<svg width="319" height="422" viewBox="0 0 319 422" fill="none" xmlns="http://www.w3.org/2000/svg">
<rect x="0.5" y="0.537598" width="317.375" height="420.925" fill="white"/>
<rect x="0.5" y="0.537598" width="317.375" height="420.925" stroke="#C4C4C4"/>
<path d="M36.39 126.488C36.39 127.008 36.43 127.388 36.51 127.628C36.59 127.848 36.74 127.998 36.96 128.078C37.2 128.158 37.58 128.198 38.1 128.198H39.12C40.68 128.198 42.03 127.788 43.17 126.968C44.31 126.128 45.07 124.998 45.45 123.578C45.45 123.538 45.49 123.518 45.57 123.518C45.61 123.518 45.65 123.538 45.69 123.578C45.75 123.598 45.78 123.618 45.78 123.638C45.6 125.618 45.51 127.268 45.51 128.588C45.51 128.748 45.47 128.868 45.39 128.948C45.33 129.008 45.22 129.038 45.06 129.038H30.9C30.86 129.038 30.84 128.978 30.84 128.858C30.84 128.738 30.86 128.678 30.9 128.678C31.54 128.678 32 128.628 32.28 128.528C32.58 128.428 32.78 128.238 32.88 127.958C33 127.658 33.06 127.208 33.06 126.608V112.718C33.06 112.118 33 111.678 32.88 111.398C32.78 111.118 32.58 110.928 32.28 110.828C31.98 110.708 31.52 110.648 30.9 110.648C30.86 110.648 30.84 110.588 30.84 110.468C30.84 110.348 30.86 110.288 30.9 110.288L32.43 110.318C33.35 110.358 34.11 110.378 34.71 110.378C35.31 110.378 36.07 110.358 36.99 110.318L38.52 110.288C38.58 110.288 38.61 110.348 38.61 110.468C38.61 110.588 38.58 110.648 38.52 110.648C37.9 110.648 37.44 110.708 37.14 110.828C36.84 110.928 36.64 111.128 36.54 111.428C36.44 111.708 36.39 112.148 36.39 112.748V126.488ZM53.4577 129.428C52.2177 129.428 51.1277 129.148 50.1877 128.588C49.2677 128.008 48.5577 127.238 48.0577 126.278C47.5577 125.298 47.3077 124.238 47.3077 123.098C47.3077 121.798 47.6377 120.698 48.2977 119.798C48.9577 118.878 49.7977 118.198 50.8177 117.758C51.8377 117.298 52.8877 117.068 53.9677 117.068C55.2077 117.068 56.2877 117.358 57.2077 117.938C58.1277 118.518 58.8277 119.288 59.3077 120.248C59.8077 121.188 60.0577 122.198 60.0577 123.278C60.0577 124.478 59.7577 125.548 59.1577 126.488C58.5577 127.408 57.7477 128.128 56.7277 128.648C55.7277 129.168 54.6377 129.428 53.4577 129.428ZM54.3577 128.798C55.1377 128.798 55.7277 128.418 56.1277 127.658C56.5477 126.878 56.7577 125.768 56.7577 124.328C56.7577 122.928 56.5777 121.728 56.2177 120.728C55.8577 119.728 55.3877 118.978 54.8077 118.478C54.2277 117.958 53.6077 117.698 52.9477 117.698C51.3477 117.698 50.5477 119.128 50.5477 121.988C50.5477 123.328 50.7177 124.518 51.0577 125.558C51.3977 126.578 51.8577 127.378 52.4377 127.958C53.0177 128.518 53.6577 128.798 54.3577 128.798ZM64.5654 118.898C64.5654 119.478 64.7654 119.978 65.1654 120.398C65.5854 120.818 66.1854 121.258 66.9654 121.718C67.7254 122.158 68.2854 122.508 68.6454 122.768C69.0254 123.008 69.3654 123.358 69.6654 123.818C69.9654 124.258 70.1154 124.798 70.1154 125.438C70.1154 126.118 69.9454 126.758 69.6054 127.358C69.2654 127.958 68.7554 128.448 68.0754 128.828C67.3954 129.188 66.5854 129.368 65.6454 129.368C64.5454 129.368 63.5054 129.098 62.5254 128.558C62.4054 128.438 62.3454 128.318 62.3454 128.198L62.2854 125.228C62.2854 125.168 62.3354 125.138 62.4354 125.138C62.5554 125.118 62.6254 125.128 62.6454 125.168C62.9654 126.168 63.4954 127.018 64.2354 127.718C64.9754 128.418 65.7254 128.768 66.4854 128.768C66.9054 128.768 67.2354 128.638 67.4754 128.378C67.7354 128.118 67.8654 127.738 67.8654 127.238C67.8654 126.498 67.6554 125.918 67.2354 125.498C66.8154 125.058 66.1954 124.608 65.3754 124.148C64.6754 123.768 64.1454 123.458 63.7854 123.218C63.4254 122.978 63.1054 122.638 62.8254 122.198C62.5454 121.758 62.4054 121.218 62.4054 120.578C62.4054 119.398 62.8254 118.538 63.6654 117.998C64.5054 117.438 65.5354 117.158 66.7554 117.158C67.2154 117.158 67.6254 117.188 67.9854 117.248C68.3654 117.308 68.7854 117.428 69.2454 117.608C69.4254 117.668 69.5154 117.778 69.5154 117.938C69.5154 118.438 69.5054 118.828 69.4854 119.108L69.4554 120.608C69.4554 120.668 69.3954 120.698 69.2754 120.698C69.1554 120.698 69.0954 120.668 69.0954 120.608C69.0954 120.228 68.9354 119.818 68.6154 119.378C68.2954 118.918 67.8754 118.528 67.3554 118.208C66.8554 117.888 66.3354 117.728 65.7954 117.728C64.9754 117.728 64.5654 118.118 64.5654 118.898ZM99.6741 128.678C99.7741 128.678 99.8241 128.738 99.8241 128.858C99.8241 128.978 99.7741 129.038 99.6741 129.038C99.2741 129.038 98.6541 129.018 97.8141 128.978C96.9341 128.938 96.3041 128.918 95.9241 128.918C95.4241 128.918 94.8141 128.938 94.0941 128.978C93.4141 129.018 92.8741 129.038 92.4741 129.038C92.3941 129.038 92.3541 128.978 92.3541 128.858C92.3541 128.738 92.3941 128.678 92.4741 128.678C92.9941 128.678 93.3641 128.628 93.5841 128.528C93.8241 128.408 93.9441 128.208 93.9441 127.928C93.9441 127.588 93.7441 127.018 93.3441 126.218L90.2241 120.068H84.8841L82.7541 124.778C82.4941 125.358 82.3641 125.898 82.3641 126.398C82.3641 127.118 82.6141 127.678 83.1141 128.078C83.6341 128.478 84.3241 128.678 85.1841 128.678C85.2841 128.678 85.3341 128.738 85.3341 128.858C85.3341 128.978 85.2841 129.038 85.1841 129.038C84.8241 129.038 84.3041 129.018 83.6241 128.978C82.8641 128.938 82.2041 128.918 81.6441 128.918C81.1041 128.918 80.4541 128.938 79.6941 128.978C79.0141 129.018 78.4641 129.038 78.0441 129.038C77.9641 129.038 77.9241 128.978 77.9241 128.858C77.9241 128.738 77.9641 128.678 78.0441 128.678C78.6041 128.678 79.0741 128.568 79.4541 128.348C79.8341 128.108 80.2141 127.698 80.5941 127.118C80.9741 126.518 81.4241 125.638 81.9441 124.478L88.4541 110.168C88.4941 110.108 88.5841 110.078 88.7241 110.078C88.8841 110.078 88.9741 110.108 88.9941 110.168L96.4941 124.928C97.1941 126.348 97.7741 127.328 98.2341 127.868C98.6941 128.408 99.1741 128.678 99.6741 128.678ZM85.2741 119.228H89.8041L87.4041 114.488L85.2741 119.228ZM114.909 128.678C114.969 128.678 114.999 128.738 114.999 128.858C114.999 128.978 114.969 129.038 114.909 129.038C114.389 129.038 113.979 129.028 113.679 129.008L111.879 128.978L110.139 129.008C109.819 129.028 109.399 129.038 108.879 129.038C108.819 129.038 108.789 128.978 108.789 128.858C108.789 128.738 108.819 128.678 108.879 128.678C109.499 128.678 109.919 128.538 110.139 128.258C110.359 127.958 110.469 127.408 110.469 126.608V122.288C110.469 121.208 110.269 120.408 109.869 119.888C109.489 119.368 108.879 119.108 108.039 119.108C107.559 119.108 107.059 119.208 106.539 119.408C106.039 119.608 105.599 119.878 105.219 120.218V126.608C105.219 127.408 105.329 127.958 105.549 128.258C105.789 128.538 106.219 128.678 106.839 128.678C106.899 128.678 106.929 128.738 106.929 128.858C106.929 128.978 106.899 129.038 106.839 129.038C106.319 129.038 105.909 129.028 105.609 129.008L103.809 128.978L102.039 129.008C101.739 129.028 101.329 129.038 100.809 129.038C100.749 129.038 100.719 128.978 100.719 128.858C100.719 128.738 100.749 128.678 100.809 128.678C101.429 128.678 101.849 128.538 102.069 128.258C102.289 127.958 102.399 127.408 102.399 126.608V120.968C102.399 120.348 102.319 119.898 102.159 119.618C102.019 119.318 101.789 119.168 101.469 119.168C101.129 119.168 100.649 119.308 100.029 119.588H99.9687C99.9087 119.588 99.8587 119.538 99.8187 119.438C99.7987 119.338 99.8087 119.278 99.8487 119.258L104.019 117.218C104.139 117.178 104.209 117.158 104.229 117.158C104.449 117.158 104.659 117.378 104.859 117.818C105.059 118.238 105.179 118.818 105.219 119.558C106.599 117.918 108.119 117.098 109.779 117.098C110.859 117.098 111.709 117.448 112.329 118.148C112.969 118.828 113.289 119.728 113.289 120.848V126.608C113.289 127.408 113.399 127.958 113.619 128.258C113.859 128.538 114.289 128.678 114.909 128.678ZM127.55 117.098C127.57 117.078 127.6 117.068 127.64 117.068C127.68 117.068 127.72 117.088 127.76 117.128C127.82 117.148 127.85 117.178 127.85 117.218V131.138C127.85 133.018 127.29 134.538 126.17 135.698C125.05 136.878 123.48 137.468 121.46 137.468C120.14 137.468 119.06 137.268 118.22 136.868C117.38 136.488 116.96 135.928 116.96 135.188C116.96 134.668 117.11 134.278 117.41 134.018C117.71 133.778 118.07 133.658 118.49 133.658C119.05 133.658 119.46 133.788 119.72 134.048C120 134.308 120.27 134.698 120.53 135.218C120.79 135.758 121.06 136.158 121.34 136.418C121.64 136.698 122.1 136.838 122.72 136.838C123.42 136.838 123.98 136.478 124.4 135.758C124.82 135.038 125.03 133.738 125.03 131.858V127.478C124.37 128.078 123.71 128.558 123.05 128.918C122.41 129.258 121.69 129.428 120.89 129.428C120.07 129.428 119.31 129.228 118.61 128.828C117.93 128.408 117.39 127.798 116.99 126.998C116.59 126.198 116.39 125.238 116.39 124.118C116.39 122.698 116.72 121.458 117.38 120.398C118.04 119.318 118.91 118.498 119.99 117.938C121.07 117.378 122.23 117.098 123.47 117.098C124.55 117.098 125.52 117.358 126.38 117.878C126.84 117.678 127.23 117.418 127.55 117.098ZM122.42 127.838C123.22 127.838 124.09 127.518 125.03 126.878V120.398C125.03 119.618 124.81 118.978 124.37 118.478C123.95 117.978 123.39 117.728 122.69 117.728C121.69 117.728 120.9 118.228 120.32 119.228C119.76 120.228 119.48 121.518 119.48 123.098C119.48 124.598 119.73 125.768 120.23 126.608C120.75 127.428 121.48 127.838 122.42 127.838ZM141.132 127.058C141.172 127.058 141.212 127.098 141.252 127.178C141.312 127.258 141.322 127.318 141.282 127.358C140.542 128.078 139.792 128.598 139.032 128.918C138.272 129.238 137.442 129.398 136.542 129.398C135.282 129.398 134.192 129.138 133.272 128.618C132.352 128.078 131.652 127.368 131.172 126.488C130.692 125.588 130.452 124.628 130.452 123.608C130.452 122.448 130.752 121.378 131.352 120.398C131.952 119.398 132.772 118.618 133.812 118.058C134.852 117.478 136.012 117.188 137.292 117.188C138.532 117.188 139.482 117.458 140.142 117.998C140.802 118.518 141.132 119.238 141.132 120.158C141.132 120.738 141.022 121.028 140.802 121.028H138.972L133.572 121.088C133.512 121.468 133.482 121.888 133.482 122.348C133.482 124.068 133.882 125.428 134.682 126.428C135.502 127.428 136.622 127.928 138.042 127.928C138.542 127.928 139.062 127.858 139.602 127.718C140.142 127.578 140.632 127.368 141.072 127.088L141.132 127.058ZM136.182 117.788C135.582 117.788 135.062 118.028 134.622 118.508C134.182 118.988 133.862 119.648 133.662 120.488L137.922 120.398C137.862 118.658 137.282 117.788 136.182 117.788ZM143.081 129.038C143.041 129.038 143.021 128.978 143.021 128.858C143.021 128.738 143.041 128.678 143.081 128.678C143.701 128.678 144.121 128.538 144.341 128.258C144.581 127.958 144.701 127.408 144.701 126.608L144.731 111.368C144.731 110.668 144.661 110.168 144.521 109.868C144.401 109.568 144.181 109.418 143.861 109.418C143.601 109.418 143.221 109.528 142.721 109.748H142.691C142.631 109.748 142.571 109.698 142.511 109.598C142.471 109.478 142.471 109.408 142.511 109.388L146.921 107.318L147.041 107.288C147.141 107.288 147.251 107.338 147.371 107.438C147.491 107.518 147.551 107.598 147.551 107.678V126.608C147.551 127.408 147.661 127.958 147.881 128.258C148.101 128.538 148.521 128.678 149.141 128.678C149.221 128.678 149.261 128.738 149.261 128.858C149.261 128.978 149.221 129.038 149.141 129.038C148.641 129.038 148.241 129.028 147.941 129.008L146.111 128.978L144.311 129.008C144.011 129.028 143.601 129.038 143.081 129.038ZM161.699 127.058C161.739 127.058 161.779 127.098 161.819 127.178C161.879 127.258 161.889 127.318 161.849 127.358C161.109 128.078 160.359 128.598 159.599 128.918C158.839 129.238 158.009 129.398 157.109 129.398C155.849 129.398 154.759 129.138 153.839 128.618C152.919 128.078 152.219 127.368 151.739 126.488C151.259 125.588 151.019 124.628 151.019 123.608C151.019 122.448 151.319 121.378 151.919 120.398C152.519 119.398 153.339 118.618 154.379 118.058C155.419 117.478 156.579 117.188 157.859 117.188C159.099 117.188 160.049 117.458 160.709 117.998C161.369 118.518 161.699 119.238 161.699 120.158C161.699 120.738 161.589 121.028 161.369 121.028H159.539L154.139 121.088C154.079 121.468 154.049 121.888 154.049 122.348C154.049 124.068 154.449 125.428 155.249 126.428C156.069 127.428 157.189 127.928 158.609 127.928C159.109 127.928 159.629 127.858 160.169 127.718C160.709 127.578 161.199 127.368 161.639 127.088L161.699 127.058ZM156.749 117.788C156.149 117.788 155.629 118.028 155.189 118.508C154.749 118.988 154.429 119.648 154.229 120.488L158.489 120.398C158.429 118.658 157.849 117.788 156.749 117.788ZM166.138 118.898C166.138 119.478 166.338 119.978 166.738 120.398C167.158 120.818 167.758 121.258 168.538 121.718C169.298 122.158 169.858 122.508 170.218 122.768C170.598 123.008 170.938 123.358 171.238 123.818C171.538 124.258 171.688 124.798 171.688 125.438C171.688 126.118 171.518 126.758 171.178 127.358C170.838 127.958 170.328 128.448 169.648 128.828C168.968 129.188 168.158 129.368 167.218 129.368C166.118 129.368 165.078 129.098 164.098 128.558C163.978 128.438 163.918 128.318 163.918 128.198L163.858 125.228C163.858 125.168 163.908 125.138 164.008 125.138C164.128 125.118 164.198 125.128 164.218 125.168C164.538 126.168 165.068 127.018 165.808 127.718C166.548 128.418 167.298 128.768 168.058 128.768C168.478 128.768 168.808 128.638 169.048 128.378C169.308 128.118 169.438 127.738 169.438 127.238C169.438 126.498 169.228 125.918 168.808 125.498C168.388 125.058 167.768 124.608 166.948 124.148C166.248 123.768 165.718 123.458 165.358 123.218C164.998 122.978 164.678 122.638 164.398 122.198C164.118 121.758 163.978 121.218 163.978 120.578C163.978 119.398 164.398 118.538 165.238 117.998C166.078 117.438 167.108 117.158 168.328 117.158C168.788 117.158 169.198 117.188 169.558 117.248C169.938 117.308 170.358 117.428 170.818 117.608C170.998 117.668 171.088 117.778 171.088 117.938C171.088 118.438 171.078 118.828 171.058 119.108L171.028 120.608C171.028 120.668 170.968 120.698 170.848 120.698C170.728 120.698 170.668 120.668 170.668 120.608C170.668 120.228 170.508 119.818 170.188 119.378C169.868 118.918 169.448 118.528 168.928 118.208C168.428 117.888 167.908 117.728 167.368 117.728C166.548 117.728 166.138 118.118 166.138 118.898ZM175.735 125.858C176.435 125.858 176.975 126.128 177.355 126.668C177.755 127.208 177.955 127.978 177.955 128.978C177.955 129.878 177.755 130.708 177.355 131.468C176.955 132.248 176.355 133.028 175.555 133.808C175.535 133.828 175.505 133.838 175.465 133.838C175.405 133.838 175.355 133.808 175.315 133.748C175.275 133.688 175.275 133.638 175.315 133.598C176.295 132.598 176.785 131.418 176.785 130.058C176.785 129.498 176.685 129.088 176.485 128.828C176.305 129.128 175.935 129.278 175.375 129.278C174.895 129.278 174.505 129.128 174.205 128.828C173.925 128.508 173.785 128.098 173.785 127.598C173.785 127.058 173.955 126.638 174.295 126.338C174.655 126.018 175.135 125.858 175.735 125.858ZM199.017 109.958C199.897 109.958 200.817 110.038 201.777 110.198C202.737 110.338 203.487 110.528 204.027 110.768C204.207 110.828 204.317 110.908 204.357 111.008C204.417 111.088 204.467 111.238 204.507 111.458L204.867 115.628C204.867 115.688 204.817 115.728 204.717 115.748C204.617 115.768 204.557 115.738 204.537 115.658C203.857 114.078 202.947 112.858 201.807 111.998C200.667 111.138 199.347 110.708 197.847 110.708C195.867 110.708 194.337 111.438 193.257 112.898C192.177 114.358 191.637 116.318 191.637 118.778C191.637 120.618 191.927 122.298 192.507 123.818C193.107 125.338 193.937 126.548 194.997 127.448C196.077 128.328 197.297 128.768 198.657 128.768C199.937 128.768 201.077 128.348 202.077 127.508C203.097 126.648 204.007 125.348 204.807 123.608C204.827 123.528 204.887 123.498 204.987 123.518C205.107 123.538 205.167 123.578 205.167 123.638L204.717 127.718C204.677 127.958 204.627 128.118 204.567 128.198C204.527 128.258 204.417 128.328 204.237 128.408C202.457 129.068 200.627 129.398 198.747 129.398C196.307 129.398 194.267 128.918 192.627 127.958C190.987 126.978 189.777 125.748 188.997 124.268C188.237 122.768 187.857 121.208 187.857 119.588C187.857 117.688 188.367 116.008 189.387 114.548C190.427 113.088 191.797 111.958 193.497 111.158C195.217 110.358 197.057 109.958 199.017 109.958ZM227.965 128.678C228.065 128.678 228.115 128.738 228.115 128.858C228.115 128.978 228.065 129.038 227.965 129.038C227.565 129.038 226.945 129.018 226.105 128.978C225.225 128.938 224.595 128.918 224.215 128.918C223.715 128.918 223.105 128.938 222.385 128.978C221.705 129.018 221.165 129.038 220.765 129.038C220.685 129.038 220.645 128.978 220.645 128.858C220.645 128.738 220.685 128.678 220.765 128.678C221.285 128.678 221.655 128.628 221.875 128.528C222.115 128.408 222.235 128.208 222.235 127.928C222.235 127.588 222.035 127.018 221.635 126.218L218.515 120.068H213.175L211.045 124.778C210.785 125.358 210.655 125.898 210.655 126.398C210.655 127.118 210.905 127.678 211.405 128.078C211.925 128.478 212.615 128.678 213.475 128.678C213.575 128.678 213.625 128.738 213.625 128.858C213.625 128.978 213.575 129.038 213.475 129.038C213.115 129.038 212.595 129.018 211.915 128.978C211.155 128.938 210.495 128.918 209.935 128.918C209.395 128.918 208.745 128.938 207.985 128.978C207.305 129.018 206.755 129.038 206.335 129.038C206.255 129.038 206.215 128.978 206.215 128.858C206.215 128.738 206.255 128.678 206.335 128.678C206.895 128.678 207.365 128.568 207.745 128.348C208.125 128.108 208.505 127.698 208.885 127.118C209.265 126.518 209.715 125.638 210.235 124.478L216.745 110.168C216.785 110.108 216.875 110.078 217.015 110.078C217.175 110.078 217.265 110.108 217.285 110.168L224.785 124.928C225.485 126.348 226.065 127.328 226.525 127.868C226.985 128.408 227.465 128.678 227.965 128.678ZM213.565 119.228H218.095L215.695 114.488L213.565 119.228Z" fill="#292E36"/>
<path d="M35.328 159.453C35.988 159.453 36.594 159.543 37.146 159.723C37.71 159.891 38.196 160.149 38.604 160.497C39.024 160.833 39.348 161.253 39.576 161.757C39.816 162.249 39.936 162.825 39.936 163.485C39.936 164.001 39.858 164.505 39.702 164.997C39.558 165.489 39.312 165.939 38.964 166.347C38.616 166.743 38.16 167.067 37.596 167.319C37.044 167.559 36.36 167.679 35.544 167.679H33.618V172.467H31.872V159.453H35.328ZM35.508 166.005C36.024 166.005 36.45 165.927 36.786 165.771C37.134 165.615 37.404 165.417 37.596 165.177C37.788 164.925 37.926 164.655 38.01 164.367C38.094 164.079 38.136 163.809 38.136 163.557C38.136 163.293 38.088 163.023 37.992 162.747C37.908 162.459 37.764 162.195 37.56 161.955C37.368 161.715 37.11 161.517 36.786 161.361C36.474 161.205 36.09 161.127 35.634 161.127H33.618V166.005H35.508ZM37.65 166.995L41.052 172.467H39.036L35.58 167.049L37.65 166.995ZM43.3232 165.015H44.9972V172.467H43.3232V165.015ZM43.1972 162.315C43.1972 162.051 43.2992 161.829 43.5032 161.649C43.7192 161.469 43.9532 161.379 44.2052 161.379C44.4572 161.379 44.6792 161.469 44.8712 161.649C45.0752 161.829 45.1772 162.051 45.1772 162.315C45.1772 162.591 45.0752 162.819 44.8712 162.999C44.6792 163.167 44.4572 163.251 44.2052 163.251C43.9532 163.251 43.7192 163.161 43.5032 162.981C43.2992 162.801 43.1972 162.579 43.1972 162.315ZM50.9175 172.683L46.7775 165.015H48.7575L51.5655 170.937L50.5395 170.901L53.1135 165.015H54.9855L51.0075 172.683H50.9175ZM60.0683 172.647C59.2163 172.647 58.4843 172.479 57.8723 172.143C57.2603 171.795 56.7863 171.327 56.4503 170.739C56.1263 170.139 55.9643 169.455 55.9643 168.687C55.9643 167.955 56.1503 167.289 56.5223 166.689C56.8943 166.089 57.3923 165.609 58.0163 165.249C58.6403 164.889 59.3363 164.709 60.1043 164.709C61.0883 164.709 61.9043 164.997 62.5523 165.573C63.2003 166.149 63.6383 166.941 63.8663 167.949L57.7283 170.109L57.3323 169.119L62.3723 167.283L62.0123 167.517C61.8683 167.121 61.6283 166.779 61.2923 166.491C60.9563 166.191 60.5183 166.041 59.9783 166.041C59.5223 166.041 59.1143 166.155 58.7543 166.383C58.3943 166.599 58.1123 166.899 57.9083 167.283C57.7043 167.667 57.6023 168.105 57.6023 168.597C57.6023 169.113 57.7103 169.569 57.9263 169.965C58.1423 170.349 58.4363 170.655 58.8083 170.883C59.1923 171.099 59.6243 171.207 60.1043 171.207C60.4283 171.207 60.7403 171.147 61.0403 171.027C61.3523 170.907 61.6403 170.751 61.9043 170.559L62.6783 171.801C62.3063 172.053 61.8863 172.257 61.4183 172.413C60.9623 172.569 60.5123 172.647 60.0683 172.647ZM67.4579 165.015L67.6199 167.175L67.5299 166.887C67.7219 166.431 67.9979 166.047 68.3579 165.735C68.7299 165.411 69.1139 165.165 69.5099 164.997C69.9179 164.817 70.2719 164.727 70.5719 164.727L70.4819 166.383C69.9179 166.347 69.4199 166.455 68.9879 166.707C68.5679 166.959 68.2319 167.295 67.9799 167.715C67.7399 168.135 67.6199 168.585 67.6199 169.065V172.467H65.9639V165.015H67.4579ZM74.8194 172.611C74.2914 172.611 73.7754 172.521 73.2714 172.341C72.7794 172.149 72.3714 171.867 72.0474 171.495L72.7494 170.523C73.0614 170.823 73.3794 171.051 73.7034 171.207C74.0394 171.351 74.3694 171.423 74.6934 171.423C74.9334 171.423 75.1554 171.393 75.3594 171.333C75.5634 171.273 75.7254 171.177 75.8454 171.045C75.9774 170.901 76.0434 170.709 76.0434 170.469C76.0434 170.205 75.9534 169.995 75.7734 169.839C75.6054 169.683 75.3834 169.557 75.1074 169.461C74.8434 169.365 74.5614 169.275 74.2614 169.191C73.6494 168.987 73.1814 168.705 72.8574 168.345C72.5334 167.985 72.3714 167.547 72.3714 167.031C72.3714 166.635 72.4674 166.269 72.6594 165.933C72.8634 165.585 73.1574 165.303 73.5414 165.087C73.9374 164.871 74.4234 164.763 74.9994 164.763C75.5154 164.763 75.9774 164.829 76.3854 164.961C76.7934 165.081 77.1774 165.285 77.5374 165.573L76.8714 166.617C76.6554 166.389 76.3974 166.221 76.0974 166.113C75.7974 166.005 75.5274 165.945 75.2874 165.933C75.0834 165.921 74.8854 165.951 74.6934 166.023C74.5134 166.095 74.3634 166.197 74.2434 166.329C74.1234 166.461 74.0634 166.617 74.0634 166.797C74.0634 167.049 74.1474 167.253 74.3154 167.409C74.4834 167.565 74.6994 167.691 74.9634 167.787C75.2394 167.871 75.5094 167.961 75.7734 168.057C76.1454 168.165 76.4754 168.309 76.7634 168.489C77.0514 168.669 77.2794 168.891 77.4474 169.155C77.6274 169.419 77.7174 169.749 77.7174 170.145C77.7174 170.589 77.6094 171.003 77.3934 171.387C77.1894 171.759 76.8714 172.059 76.4394 172.287C76.0194 172.503 75.4794 172.611 74.8194 172.611ZM80.0615 165.015H81.7355V172.467H80.0615V165.015ZM79.9355 162.315C79.9355 162.051 80.0375 161.829 80.2415 161.649C80.4575 161.469 80.6915 161.379 80.9435 161.379C81.1955 161.379 81.4175 161.469 81.6095 161.649C81.8135 161.829 81.9155 162.051 81.9155 162.315C81.9155 162.591 81.8135 162.819 81.6095 162.999C81.4175 163.167 81.1955 163.251 80.9435 163.251C80.6915 163.251 80.4575 163.161 80.2415 162.981C80.0375 162.801 79.9355 162.579 79.9355 162.315ZM87.6558 172.647C86.9718 172.647 86.3478 172.485 85.7838 172.161C85.2318 171.825 84.7938 171.357 84.4698 170.757C84.1458 170.145 83.9838 169.443 83.9838 168.651C83.9838 167.823 84.1518 167.115 84.4878 166.527C84.8358 165.939 85.3038 165.489 85.8918 165.177C86.4798 164.865 87.1398 164.709 87.8718 164.709C88.4598 164.709 89.0178 164.835 89.5458 165.087C90.0858 165.339 90.5058 165.687 90.8058 166.131L90.7338 166.725V158.535H92.3898V172.467H90.7158V170.613L90.8958 171.081C90.5478 171.537 90.0978 171.915 89.5458 172.215C88.9938 172.503 88.3638 172.647 87.6558 172.647ZM88.1778 171.225C88.6218 171.225 89.0178 171.147 89.3658 170.991C89.7138 170.823 90.0018 170.595 90.2298 170.307C90.4578 170.019 90.6198 169.677 90.7158 169.281V167.877C90.6198 167.517 90.4458 167.205 90.1938 166.941C89.9538 166.665 89.6598 166.449 89.3118 166.293C88.9758 166.125 88.5978 166.041 88.1778 166.041C87.7218 166.041 87.3018 166.155 86.9178 166.383C86.5458 166.599 86.2458 166.899 86.0178 167.283C85.7898 167.667 85.6758 168.111 85.6758 168.615C85.6758 169.107 85.7898 169.551 86.0178 169.947C86.2458 170.331 86.5518 170.643 86.9358 170.883C87.3198 171.111 87.7338 171.225 88.1778 171.225ZM98.7578 172.647C97.9058 172.647 97.1738 172.479 96.5618 172.143C95.9498 171.795 95.4758 171.327 95.1398 170.739C94.8158 170.139 94.6538 169.455 94.6538 168.687C94.6538 167.955 94.8398 167.289 95.2118 166.689C95.5838 166.089 96.0818 165.609 96.7058 165.249C97.3298 164.889 98.0258 164.709 98.7938 164.709C99.7778 164.709 100.594 164.997 101.242 165.573C101.89 166.149 102.328 166.941 102.556 167.949L96.4178 170.109L96.0218 169.119L101.062 167.283L100.702 167.517C100.558 167.121 100.318 166.779 99.9818 166.491C99.6458 166.191 99.2078 166.041 98.6678 166.041C98.2118 166.041 97.8038 166.155 97.4438 166.383C97.0838 166.599 96.8018 166.899 96.5978 167.283C96.3938 167.667 96.2918 168.105 96.2918 168.597C96.2918 169.113 96.3998 169.569 96.6158 169.965C96.8318 170.349 97.1258 170.655 97.4978 170.883C97.8818 171.099 98.3138 171.207 98.7938 171.207C99.1178 171.207 99.4298 171.147 99.7298 171.027C100.042 170.907 100.33 170.751 100.594 170.559L101.368 171.801C100.996 172.053 100.576 172.257 100.108 172.413C99.6518 172.569 99.2018 172.647 98.7578 172.647ZM109.845 172.467C110.613 171.723 111.345 170.991 112.041 170.271C112.737 169.551 113.361 168.855 113.913 168.183C114.477 167.511 114.921 166.863 115.245 166.239C115.569 165.603 115.731 164.991 115.731 164.403C115.731 164.007 115.665 163.671 115.533 163.395C115.401 163.107 115.227 162.873 115.011 162.693C114.807 162.513 114.573 162.381 114.309 162.297C114.045 162.201 113.775 162.153 113.499 162.153C113.103 162.153 112.767 162.219 112.491 162.351C112.215 162.471 111.987 162.633 111.807 162.837C111.639 163.041 111.513 163.257 111.429 163.485C111.357 163.713 111.321 163.941 111.321 164.169C111.321 164.565 111.381 164.925 111.501 165.249C111.621 165.561 111.795 165.837 112.023 166.077L110.943 167.031C110.667 166.851 110.427 166.599 110.223 166.275C110.031 165.951 109.881 165.603 109.773 165.231C109.677 164.847 109.629 164.505 109.629 164.205C109.629 163.557 109.785 162.951 110.097 162.387C110.421 161.811 110.889 161.349 111.501 161.001C112.125 160.653 112.881 160.479 113.769 160.479C114.525 160.479 115.185 160.653 115.749 161.001C116.313 161.349 116.751 161.811 117.063 162.387C117.375 162.951 117.531 163.575 117.531 164.259C117.531 164.859 117.411 165.447 117.171 166.023C116.931 166.599 116.607 167.169 116.199 167.733C115.803 168.297 115.359 168.855 114.867 169.407C114.387 169.947 113.907 170.493 113.427 171.045L112.671 170.793H117.927V172.467H109.845ZM123.109 172.611C122.473 172.611 121.861 172.497 121.273 172.269C120.697 172.041 120.229 171.747 119.869 171.387L120.805 170.037C121.045 170.313 121.363 170.535 121.759 170.703C122.167 170.871 122.569 170.955 122.965 170.955C123.409 170.955 123.799 170.859 124.135 170.667C124.483 170.463 124.753 170.193 124.945 169.857C125.137 169.509 125.233 169.113 125.233 168.669C125.233 168.189 125.143 167.763 124.963 167.391C124.795 167.019 124.537 166.731 124.189 166.527C123.853 166.311 123.427 166.203 122.911 166.203C122.491 166.203 122.101 166.263 121.741 166.383C121.381 166.491 121.009 166.659 120.625 166.887H120.607V160.623H126.277V162.297H122.119V165.321L121.885 164.961C122.089 164.889 122.317 164.835 122.569 164.799C122.833 164.751 123.085 164.727 123.325 164.727C124.129 164.727 124.801 164.907 125.341 165.267C125.893 165.615 126.307 166.083 126.583 166.671C126.871 167.259 127.015 167.907 127.015 168.615C127.015 169.359 126.847 170.037 126.511 170.649C126.175 171.249 125.713 171.729 125.125 172.089C124.537 172.437 123.865 172.611 123.109 172.611ZM131.091 170.901C130.827 171.525 130.563 172.143 130.299 172.755C130.047 173.379 129.789 174.009 129.525 174.645H128.175C128.415 174.009 128.649 173.379 128.877 172.755C129.105 172.143 129.339 171.525 129.579 170.901H131.091ZM146.077 161.775C145.633 161.547 145.147 161.349 144.619 161.181C144.091 161.013 143.575 160.929 143.071 160.929C142.375 160.929 141.817 161.091 141.397 161.415C140.989 161.739 140.785 162.171 140.785 162.711C140.785 163.119 140.917 163.467 141.181 163.755C141.445 164.031 141.793 164.271 142.225 164.475C142.657 164.679 143.107 164.871 143.575 165.051C143.983 165.207 144.385 165.381 144.781 165.573C145.177 165.765 145.531 166.005 145.843 166.293C146.167 166.581 146.419 166.935 146.599 167.355C146.791 167.775 146.887 168.297 146.887 168.921C146.887 169.605 146.713 170.229 146.365 170.793C146.029 171.357 145.543 171.801 144.907 172.125C144.271 172.449 143.515 172.611 142.639 172.611C142.063 172.611 141.511 172.545 140.983 172.413C140.467 172.281 139.987 172.113 139.543 171.909C139.099 171.693 138.703 171.471 138.355 171.243L139.129 169.875C139.417 170.079 139.747 170.277 140.119 170.469C140.491 170.649 140.881 170.799 141.289 170.919C141.697 171.027 142.093 171.081 142.477 171.081C142.885 171.081 143.287 171.009 143.683 170.865C144.091 170.709 144.427 170.475 144.691 170.163C144.955 169.851 145.087 169.437 145.087 168.921C145.087 168.477 144.967 168.111 144.727 167.823C144.499 167.523 144.193 167.271 143.809 167.067C143.425 166.851 143.017 166.659 142.585 166.491C142.177 166.335 141.763 166.167 141.343 165.987C140.923 165.795 140.533 165.567 140.173 165.303C139.813 165.027 139.525 164.691 139.309 164.295C139.093 163.899 138.985 163.419 138.985 162.855C138.985 162.171 139.147 161.577 139.471 161.073C139.807 160.557 140.263 160.155 140.839 159.867C141.415 159.567 142.075 159.405 142.819 159.381C143.659 159.381 144.397 159.483 145.033 159.687C145.681 159.891 146.251 160.143 146.743 160.443L146.077 161.775ZM152.503 172.647C151.807 172.647 151.171 172.497 150.595 172.197C150.031 171.897 149.581 171.459 149.245 170.883C148.921 170.295 148.759 169.581 148.759 168.741C148.759 167.913 148.933 167.199 149.281 166.599C149.629 165.987 150.091 165.519 150.667 165.195C151.255 164.871 151.897 164.709 152.593 164.709C153.289 164.709 153.877 164.871 154.357 165.195C154.837 165.507 155.203 165.879 155.455 166.311L155.347 166.599L155.509 165.015H157.057V172.467H155.383V170.523L155.563 170.955C155.515 171.075 155.407 171.231 155.239 171.423C155.083 171.603 154.867 171.789 154.591 171.981C154.327 172.173 154.021 172.335 153.673 172.467C153.325 172.587 152.935 172.647 152.503 172.647ZM152.953 171.261C153.373 171.261 153.751 171.183 154.087 171.027C154.423 170.871 154.699 170.655 154.915 170.379C155.143 170.091 155.299 169.749 155.383 169.353V167.895C155.287 167.535 155.119 167.223 154.879 166.959C154.639 166.683 154.351 166.473 154.015 166.329C153.679 166.173 153.307 166.095 152.899 166.095C152.455 166.095 152.047 166.203 151.675 166.419C151.303 166.635 151.003 166.935 150.775 167.319C150.559 167.703 150.451 168.153 150.451 168.669C150.451 169.149 150.565 169.587 150.793 169.983C151.021 170.379 151.327 170.691 151.711 170.919C152.095 171.147 152.509 171.261 152.953 171.261ZM161.448 165.015L161.592 166.833L161.52 166.545C161.76 165.993 162.15 165.555 162.69 165.231C163.23 164.895 163.854 164.727 164.562 164.727C165.27 164.727 165.846 164.937 166.29 165.357C166.746 165.765 166.98 166.299 166.992 166.959V172.467H165.3V167.553C165.288 167.145 165.168 166.815 164.94 166.563C164.724 166.299 164.382 166.167 163.914 166.167C163.482 166.167 163.092 166.287 162.744 166.527C162.396 166.767 162.12 167.097 161.916 167.517C161.724 167.937 161.628 168.423 161.628 168.975V172.467H159.954V165.015H161.448ZM176.013 159.453H183.735V161.127H177.759V165.285H182.997V166.941H177.759V172.467H176.013V159.453ZM187.323 165.015L187.485 167.175L187.395 166.887C187.587 166.431 187.863 166.047 188.223 165.735C188.595 165.411 188.979 165.165 189.375 164.997C189.783 164.817 190.137 164.727 190.437 164.727L190.347 166.383C189.783 166.347 189.285 166.455 188.853 166.707C188.433 166.959 188.097 167.295 187.845 167.715C187.605 168.135 187.485 168.585 187.485 169.065V172.467H185.829V165.015H187.323ZM195.517 172.647C194.821 172.647 194.185 172.497 193.609 172.197C193.045 171.897 192.595 171.459 192.259 170.883C191.935 170.295 191.773 169.581 191.773 168.741C191.773 167.913 191.947 167.199 192.295 166.599C192.643 165.987 193.105 165.519 193.681 165.195C194.269 164.871 194.911 164.709 195.607 164.709C196.303 164.709 196.891 164.871 197.371 165.195C197.851 165.507 198.217 165.879 198.469 166.311L198.361 166.599L198.523 165.015H200.071V172.467H198.397V170.523L198.577 170.955C198.529 171.075 198.421 171.231 198.253 171.423C198.097 171.603 197.881 171.789 197.605 171.981C197.341 172.173 197.035 172.335 196.687 172.467C196.339 172.587 195.949 172.647 195.517 172.647ZM195.967 171.261C196.387 171.261 196.765 171.183 197.101 171.027C197.437 170.871 197.713 170.655 197.929 170.379C198.157 170.091 198.313 169.749 198.397 169.353V167.895C198.301 167.535 198.133 167.223 197.893 166.959C197.653 166.683 197.365 166.473 197.029 166.329C196.693 166.173 196.321 166.095 195.913 166.095C195.469 166.095 195.061 166.203 194.689 166.419C194.317 166.635 194.017 166.935 193.789 167.319C193.573 167.703 193.465 168.153 193.465 168.669C193.465 169.149 193.579 169.587 193.807 169.983C194.035 170.379 194.341 170.691 194.725 170.919C195.109 171.147 195.523 171.261 195.967 171.261ZM204.462 165.015L204.606 166.833L204.534 166.545C204.774 165.993 205.164 165.555 205.704 165.231C206.244 164.895 206.868 164.727 207.576 164.727C208.284 164.727 208.86 164.937 209.304 165.357C209.76 165.765 209.994 166.299 210.006 166.959V172.467H208.314V167.553C208.302 167.145 208.182 166.815 207.954 166.563C207.738 166.299 207.396 166.167 206.928 166.167C206.496 166.167 206.106 166.287 205.758 166.527C205.41 166.767 205.134 167.097 204.93 167.517C204.738 167.937 204.642 168.423 204.642 168.975V172.467H202.968V165.015H204.462ZM218.965 171.783C218.629 172.047 218.227 172.257 217.759 172.413C217.291 172.569 216.823 172.647 216.355 172.647C215.539 172.647 214.825 172.485 214.213 172.161C213.601 171.837 213.121 171.387 212.773 170.811C212.437 170.223 212.269 169.533 212.269 168.741C212.269 167.949 212.449 167.259 212.809 166.671C213.181 166.083 213.661 165.633 214.249 165.321C214.849 164.997 215.491 164.835 216.175 164.835C216.775 164.835 217.309 164.919 217.777 165.087C218.257 165.255 218.665 165.483 219.001 165.771L218.173 166.851C217.957 166.683 217.693 166.533 217.381 166.401C217.069 166.269 216.715 166.203 216.319 166.203C215.887 166.203 215.485 166.317 215.113 166.545C214.753 166.761 214.465 167.061 214.249 167.445C214.045 167.829 213.943 168.261 213.943 168.741C213.943 169.197 214.051 169.623 214.267 170.019C214.483 170.403 214.783 170.709 215.167 170.937C215.551 171.153 215.989 171.261 216.481 171.261C216.805 171.261 217.099 171.213 217.363 171.117C217.639 171.021 217.885 170.889 218.101 170.721L218.965 171.783ZM221.126 165.015H222.8V172.467H221.126V165.015ZM221 162.315C221 162.051 221.102 161.829 221.306 161.649C221.522 161.469 221.756 161.379 222.008 161.379C222.26 161.379 222.482 161.469 222.674 161.649C222.878 161.829 222.98 162.051 222.98 162.315C222.98 162.591 222.878 162.819 222.674 162.999C222.482 163.167 222.26 163.251 222.008 163.251C221.756 163.251 221.522 163.161 221.306 162.981C221.102 162.801 221 162.579 221 162.315ZM227.784 172.611C227.256 172.611 226.74 172.521 226.236 172.341C225.744 172.149 225.336 171.867 225.012 171.495L225.714 170.523C226.026 170.823 226.344 171.051 226.668 171.207C227.004 171.351 227.334 171.423 227.658 171.423C227.898 171.423 228.12 171.393 228.324 171.333C228.528 171.273 228.69 171.177 228.81 171.045C228.942 170.901 229.008 170.709 229.008 170.469C229.008 170.205 228.918 169.995 228.738 169.839C228.57 169.683 228.348 169.557 228.072 169.461C227.808 169.365 227.526 169.275 227.226 169.191C226.614 168.987 226.146 168.705 225.822 168.345C225.498 167.985 225.336 167.547 225.336 167.031C225.336 166.635 225.432 166.269 225.624 165.933C225.828 165.585 226.122 165.303 226.506 165.087C226.902 164.871 227.388 164.763 227.964 164.763C228.48 164.763 228.942 164.829 229.35 164.961C229.758 165.081 230.142 165.285 230.502 165.573L229.836 166.617C229.62 166.389 229.362 166.221 229.062 166.113C228.762 166.005 228.492 165.945 228.252 165.933C228.048 165.921 227.85 165.951 227.658 166.023C227.478 166.095 227.328 166.197 227.208 166.329C227.088 166.461 227.028 166.617 227.028 166.797C227.028 167.049 227.112 167.253 227.28 167.409C227.448 167.565 227.664 167.691 227.928 167.787C228.204 167.871 228.474 167.961 228.738 168.057C229.11 168.165 229.44 168.309 229.728 168.489C230.016 168.669 230.244 168.891 230.412 169.155C230.592 169.419 230.682 169.749 230.682 170.145C230.682 170.589 230.574 171.003 230.358 171.387C230.154 171.759 229.836 172.059 229.404 172.287C228.984 172.503 228.444 172.611 227.784 172.611ZM239.074 171.783C238.738 172.047 238.336 172.257 237.868 172.413C237.4 172.569 236.932 172.647 236.464 172.647C235.648 172.647 234.934 172.485 234.322 172.161C233.71 171.837 233.23 171.387 232.882 170.811C232.546 170.223 232.378 169.533 232.378 168.741C232.378 167.949 232.558 167.259 232.918 166.671C233.29 166.083 233.77 165.633 234.358 165.321C234.958 164.997 235.6 164.835 236.284 164.835C236.884 164.835 237.418 164.919 237.886 165.087C238.366 165.255 238.774 165.483 239.11 165.771L238.282 166.851C238.066 166.683 237.802 166.533 237.49 166.401C237.178 166.269 236.824 166.203 236.428 166.203C235.996 166.203 235.594 166.317 235.222 166.545C234.862 166.761 234.574 167.061 234.358 167.445C234.154 167.829 234.052 168.261 234.052 168.741C234.052 169.197 234.16 169.623 234.376 170.019C234.592 170.403 234.892 170.709 235.276 170.937C235.66 171.153 236.098 171.261 236.59 171.261C236.914 171.261 237.208 171.213 237.472 171.117C237.748 171.021 237.994 170.889 238.21 170.721L239.074 171.783ZM240.587 168.669C240.587 167.925 240.761 167.253 241.109 166.653C241.469 166.053 241.961 165.579 242.585 165.231C243.209 164.883 243.917 164.709 244.709 164.709C245.525 164.709 246.239 164.883 246.851 165.231C247.463 165.579 247.937 166.053 248.273 166.653C248.609 167.253 248.777 167.925 248.777 168.669C248.777 169.413 248.609 170.091 248.273 170.703C247.937 171.303 247.457 171.777 246.833 172.125C246.221 172.473 245.507 172.647 244.691 172.647C243.899 172.647 243.191 172.485 242.567 172.161C241.955 171.825 241.469 171.363 241.109 170.775C240.761 170.175 240.587 169.473 240.587 168.669ZM242.261 168.687C242.261 169.167 242.369 169.605 242.585 170.001C242.801 170.385 243.089 170.691 243.449 170.919C243.821 171.147 244.229 171.261 244.673 171.261C245.141 171.261 245.555 171.147 245.915 170.919C246.287 170.691 246.575 170.385 246.779 170.001C246.983 169.605 247.085 169.167 247.085 168.687C247.085 168.207 246.983 167.775 246.779 167.391C246.575 166.995 246.287 166.683 245.915 166.455C245.555 166.215 245.141 166.095 244.673 166.095C244.217 166.095 243.803 166.215 243.431 166.455C243.071 166.695 242.783 167.013 242.567 167.409C242.363 167.793 242.261 168.219 242.261 168.687ZM41.43 194.495C41.214 194.639 40.92 194.801 40.548 194.981C40.176 195.161 39.738 195.311 39.234 195.431C38.742 195.551 38.202 195.611 37.614 195.611C36.606 195.599 35.694 195.419 34.878 195.071C34.074 194.723 33.39 194.249 32.826 193.649C32.262 193.049 31.824 192.359 31.512 191.579C31.212 190.787 31.062 189.947 31.062 189.059C31.062 188.087 31.218 187.193 31.53 186.377C31.854 185.549 32.304 184.835 32.88 184.235C33.456 183.623 34.134 183.149 34.914 182.813C35.706 182.477 36.57 182.309 37.506 182.309C38.286 182.309 38.994 182.417 39.63 182.633C40.266 182.837 40.812 183.083 41.268 183.371L40.566 184.991C40.206 184.751 39.768 184.523 39.252 184.307C38.748 184.091 38.184 183.983 37.56 183.983C36.924 183.983 36.324 184.109 35.76 184.361C35.196 184.613 34.698 184.967 34.266 185.423C33.834 185.879 33.492 186.413 33.24 187.025C33 187.625 32.88 188.273 32.88 188.969C32.88 189.677 32.988 190.337 33.204 190.949C33.432 191.549 33.75 192.071 34.158 192.515C34.578 192.959 35.082 193.307 35.67 193.559C36.258 193.811 36.918 193.937 37.65 193.937C38.31 193.937 38.898 193.835 39.414 193.631C39.93 193.427 40.356 193.199 40.692 192.947L41.43 194.495ZM47.052 195.647C46.356 195.647 45.72 195.497 45.144 195.197C44.58 194.897 44.13 194.459 43.794 193.883C43.47 193.295 43.308 192.581 43.308 191.741C43.308 190.913 43.482 190.199 43.83 189.599C44.178 188.987 44.64 188.519 45.216 188.195C45.804 187.871 46.446 187.709 47.142 187.709C47.838 187.709 48.426 187.871 48.906 188.195C49.386 188.507 49.752 188.879 50.004 189.311L49.896 189.599L50.058 188.015H51.606V195.467H49.932V193.523L50.112 193.955C50.064 194.075 49.956 194.231 49.788 194.423C49.632 194.603 49.416 194.789 49.14 194.981C48.876 195.173 48.57 195.335 48.222 195.467C47.874 195.587 47.484 195.647 47.052 195.647ZM47.502 194.261C47.922 194.261 48.3 194.183 48.636 194.027C48.972 193.871 49.248 193.655 49.464 193.379C49.692 193.091 49.848 192.749 49.932 192.353V190.895C49.836 190.535 49.668 190.223 49.428 189.959C49.188 189.683 48.9 189.473 48.564 189.329C48.228 189.173 47.856 189.095 47.448 189.095C47.004 189.095 46.596 189.203 46.224 189.419C45.852 189.635 45.552 189.935 45.324 190.319C45.108 190.703 45 191.153 45 191.669C45 192.149 45.114 192.587 45.342 192.983C45.57 193.379 45.876 193.691 46.26 193.919C46.644 194.147 47.058 194.261 47.502 194.261ZM54.5029 181.535H56.1769V195.467H54.5029V181.535ZM59.0732 188.015H60.7472V195.467H59.0732V188.015ZM58.9472 185.315C58.9472 185.051 59.0492 184.829 59.2532 184.649C59.4692 184.469 59.7032 184.379 59.9552 184.379C60.2072 184.379 60.4292 184.469 60.6212 184.649C60.8252 184.829 60.9272 185.051 60.9272 185.315C60.9272 185.591 60.8252 185.819 60.6212 185.999C60.4292 186.167 60.2072 186.251 59.9552 186.251C59.7032 186.251 59.4692 186.161 59.2532 185.981C59.0492 185.801 58.9472 185.579 58.9472 185.315ZM64.2555 195.467V189.509H62.9775V188.015H64.2555V184.865C64.2555 183.785 64.4955 182.957 64.9755 182.381C65.4675 181.805 66.1875 181.517 67.1355 181.517C67.3875 181.517 67.6635 181.553 67.9635 181.625C68.2755 181.697 68.5455 181.817 68.7735 181.985L68.0715 183.191C67.9635 183.083 67.8435 183.011 67.7115 182.975C67.5795 182.927 67.4475 182.903 67.3155 182.903C66.8715 182.903 66.5295 183.053 66.2895 183.353C66.0495 183.653 65.9295 184.163 65.9295 184.883V188.015H68.2875V189.509H65.9295V195.467H64.2555ZM69.4116 191.669C69.4116 190.925 69.5856 190.253 69.9336 189.653C70.2936 189.053 70.7856 188.579 71.4096 188.231C72.0336 187.883 72.7416 187.709 73.5336 187.709C74.3496 187.709 75.0636 187.883 75.6756 188.231C76.2876 188.579 76.7616 189.053 77.0976 189.653C77.4336 190.253 77.6016 190.925 77.6016 191.669C77.6016 192.413 77.4336 193.091 77.0976 193.703C76.7616 194.303 76.2816 194.777 75.6576 195.125C75.0456 195.473 74.3316 195.647 73.5156 195.647C72.7236 195.647 72.0156 195.485 71.3916 195.161C70.7796 194.825 70.2936 194.363 69.9336 193.775C69.5856 193.175 69.4116 192.473 69.4116 191.669ZM71.0856 191.687C71.0856 192.167 71.1936 192.605 71.4096 193.001C71.6256 193.385 71.9136 193.691 72.2736 193.919C72.6456 194.147 73.0536 194.261 73.4976 194.261C73.9656 194.261 74.3796 194.147 74.7396 193.919C75.1116 193.691 75.3996 193.385 75.6036 193.001C75.8076 192.605 75.9096 192.167 75.9096 191.687C75.9096 191.207 75.8076 190.775 75.6036 190.391C75.3996 189.995 75.1116 189.683 74.7396 189.455C74.3796 189.215 73.9656 189.095 73.4976 189.095C73.0416 189.095 72.6276 189.215 72.2556 189.455C71.8956 189.695 71.6076 190.013 71.3916 190.409C71.1876 190.793 71.0856 191.219 71.0856 191.687ZM81.3622 188.015L81.5242 190.175L81.4342 189.887C81.6262 189.431 81.9022 189.047 82.2622 188.735C82.6342 188.411 83.0182 188.165 83.4142 187.997C83.8222 187.817 84.1762 187.727 84.4762 187.727L84.3862 189.383C83.8222 189.347 83.3242 189.455 82.8922 189.707C82.4722 189.959 82.1362 190.295 81.8842 190.715C81.6442 191.135 81.5242 191.585 81.5242 192.065V195.467H79.8682V188.015H81.3622ZM88.1297 188.015L88.2737 189.833L88.2017 189.545C88.4417 188.993 88.8317 188.555 89.3717 188.231C89.9117 187.895 90.5357 187.727 91.2437 187.727C91.9517 187.727 92.5277 187.937 92.9717 188.357C93.4277 188.765 93.6617 189.299 93.6737 189.959V195.467H91.9817V190.553C91.9697 190.145 91.8497 189.815 91.6217 189.563C91.4057 189.299 91.0637 189.167 90.5957 189.167C90.1637 189.167 89.7737 189.287 89.4257 189.527C89.0777 189.767 88.8017 190.097 88.5977 190.517C88.4057 190.937 88.3097 191.423 88.3097 191.975V195.467H86.6357V188.015H88.1297ZM96.585 188.015H98.259V195.467H96.585V188.015ZM96.459 185.315C96.459 185.051 96.561 184.829 96.765 184.649C96.981 184.469 97.215 184.379 97.467 184.379C97.719 184.379 97.941 184.469 98.133 184.649C98.337 184.829 98.439 185.051 98.439 185.315C98.439 185.591 98.337 185.819 98.133 185.999C97.941 186.167 97.719 186.251 97.467 186.251C97.215 186.251 96.981 186.161 96.765 185.981C96.561 185.801 96.459 185.579 96.459 185.315ZM104.251 195.647C103.555 195.647 102.919 195.497 102.343 195.197C101.779 194.897 101.329 194.459 100.993 193.883C100.669 193.295 100.507 192.581 100.507 191.741C100.507 190.913 100.681 190.199 101.029 189.599C101.377 188.987 101.839 188.519 102.415 188.195C103.003 187.871 103.645 187.709 104.341 187.709C105.037 187.709 105.625 187.871 106.105 188.195C106.585 188.507 106.951 188.879 107.203 189.311L107.095 189.599L107.257 188.015H108.805V195.467H107.131V193.523L107.311 193.955C107.263 194.075 107.155 194.231 106.987 194.423C106.831 194.603 106.615 194.789 106.339 194.981C106.075 195.173 105.769 195.335 105.421 195.467C105.073 195.587 104.683 195.647 104.251 195.647ZM104.701 194.261C105.121 194.261 105.499 194.183 105.835 194.027C106.171 193.871 106.447 193.655 106.663 193.379C106.891 193.091 107.047 192.749 107.131 192.353V190.895C107.035 190.535 106.867 190.223 106.627 189.959C106.387 189.683 106.099 189.473 105.763 189.329C105.427 189.173 105.055 189.095 104.647 189.095C104.203 189.095 103.795 189.203 103.423 189.419C103.051 189.635 102.751 189.935 102.523 190.319C102.307 190.703 102.199 191.153 102.199 191.669C102.199 192.149 102.313 192.587 102.541 192.983C102.769 193.379 103.075 193.691 103.459 193.919C103.843 194.147 104.257 194.261 104.701 194.261Z" fill="#4A4A4A"/>
<path d="M33.7684 243.314L42.2472 249.909L50.7261 243.314M32.3552 239.546H52.1392C53.44 239.546 54.4945 240.6 54.4945 241.901V256.033C54.4945 257.333 53.44 258.388 52.1392 258.388H32.3552C31.0545 258.388 30 257.333 30 256.033V241.901C30 240.6 31.0545 239.546 32.3552 239.546Z" stroke="#E1B168" stroke-width="2.1" stroke-linecap="round" stroke-linejoin="round"/>
<path d="M71.881 252.783C71.545 253.047 71.143 253.257 70.675 253.413C70.207 253.569 69.739 253.647 69.271 253.647C68.455 253.647 67.741 253.485 67.129 253.161C66.517 252.837 66.037 252.387 65.689 251.811C65.353 251.223 65.185 250.533 65.185 249.741C65.185 248.949 65.365 248.259 65.725 247.671C66.097 247.083 66.577 246.633 67.165 246.321C67.765 245.997 68.407 245.835 69.091 245.835C69.691 245.835 70.225 245.919 70.693 246.087C71.173 246.255 71.581 246.483 71.917 246.771L71.089 247.851C70.873 247.683 70.609 247.533 70.297 247.401C69.985 247.269 69.631 247.203 69.235 247.203C68.803 247.203 68.401 247.317 68.029 247.545C67.669 247.761 67.381 248.061 67.165 248.445C66.961 248.829 66.859 249.261 66.859 249.741C66.859 250.197 66.967 250.623 67.183 251.019C67.399 251.403 67.699 251.709 68.083 251.937C68.467 252.153 68.905 252.261 69.397 252.261C69.721 252.261 70.015 252.213 70.279 252.117C70.555 252.021 70.801 251.889 71.017 251.721L71.881 252.783ZM73.394 249.669C73.394 248.925 73.568 248.253 73.916 247.653C74.276 247.053 74.768 246.579 75.392 246.231C76.016 245.883 76.724 245.709 77.516 245.709C78.332 245.709 79.046 245.883 79.658 246.231C80.27 246.579 80.744 247.053 81.08 247.653C81.416 248.253 81.584 248.925 81.584 249.669C81.584 250.413 81.416 251.091 81.08 251.703C80.744 252.303 80.264 252.777 79.64 253.125C79.028 253.473 78.314 253.647 77.498 253.647C76.706 253.647 75.998 253.485 75.374 253.161C74.762 252.825 74.276 252.363 73.916 251.775C73.568 251.175 73.394 250.473 73.394 249.669ZM75.068 249.687C75.068 250.167 75.176 250.605 75.392 251.001C75.608 251.385 75.896 251.691 76.256 251.919C76.628 252.147 77.036 252.261 77.48 252.261C77.948 252.261 78.362 252.147 78.722 251.919C79.094 251.691 79.382 251.385 79.586 251.001C79.79 250.605 79.892 250.167 79.892 249.687C79.892 249.207 79.79 248.775 79.586 248.391C79.382 247.995 79.094 247.683 78.722 247.455C78.362 247.215 77.948 247.095 77.48 247.095C77.024 247.095 76.61 247.215 76.238 247.455C75.878 247.695 75.59 248.013 75.374 248.409C75.17 248.793 75.068 249.219 75.068 249.687ZM85.3446 246.015L85.4886 247.833L85.4166 247.545C85.6566 246.993 86.0466 246.555 86.5866 246.231C87.1266 245.895 87.7506 245.727 88.4586 245.727C89.1666 245.727 89.7426 245.937 90.1866 246.357C90.6426 246.765 90.8766 247.299 90.8886 247.959V253.467H89.1966V248.553C89.1846 248.145 89.0646 247.815 88.8366 247.563C88.6206 247.299 88.2786 247.167 87.8106 247.167C87.3786 247.167 86.9886 247.287 86.6406 247.527C86.2926 247.767 86.0166 248.097 85.8126 248.517C85.6206 248.937 85.5246 249.423 85.5246 249.975V253.467H83.8506V246.015H85.3446ZM94.5198 242.739H96.1938V246.051H98.2458V247.365H96.1938V253.467H94.5198V247.365H93.1518V246.051H94.5198V242.739ZM103.365 253.647C102.669 253.647 102.033 253.497 101.457 253.197C100.893 252.897 100.443 252.459 100.107 251.883C99.7825 251.295 99.6205 250.581 99.6205 249.741C99.6205 248.913 99.7945 248.199 100.143 247.599C100.491 246.987 100.953 246.519 101.529 246.195C102.117 245.871 102.759 245.709 103.455 245.709C104.151 245.709 104.739 245.871 105.219 246.195C105.699 246.507 106.065 246.879 106.317 247.311L106.209 247.599L106.371 246.015H107.919V253.467H106.245V251.523L106.425 251.955C106.377 252.075 106.269 252.231 106.101 252.423C105.945 252.603 105.729 252.789 105.453 252.981C105.189 253.173 104.883 253.335 104.535 253.467C104.187 253.587 103.797 253.647 103.365 253.647ZM103.815 252.261C104.235 252.261 104.613 252.183 104.949 252.027C105.285 251.871 105.561 251.655 105.777 251.379C106.005 251.091 106.161 250.749 106.245 250.353V248.895C106.149 248.535 105.981 248.223 105.741 247.959C105.501 247.683 105.213 247.473 104.877 247.329C104.541 247.173 104.169 247.095 103.761 247.095C103.317 247.095 102.909 247.203 102.537 247.419C102.165 247.635 101.865 247.935 101.637 248.319C101.421 248.703 101.313 249.153 101.313 249.669C101.313 250.149 101.427 250.587 101.655 250.983C101.883 251.379 102.189 251.691 102.573 251.919C102.957 252.147 103.371 252.261 103.815 252.261ZM116.863 252.783C116.527 253.047 116.125 253.257 115.657 253.413C115.189 253.569 114.721 253.647 114.253 253.647C113.437 253.647 112.723 253.485 112.111 253.161C111.499 252.837 111.019 252.387 110.671 251.811C110.335 251.223 110.167 250.533 110.167 249.741C110.167 248.949 110.347 248.259 110.707 247.671C111.079 247.083 111.559 246.633 112.147 246.321C112.747 245.997 113.389 245.835 114.073 245.835C114.673 245.835 115.207 245.919 115.675 246.087C116.155 246.255 116.563 246.483 116.899 246.771L116.071 247.851C115.855 247.683 115.591 247.533 115.279 247.401C114.967 247.269 114.613 247.203 114.217 247.203C113.785 247.203 113.383 247.317 113.011 247.545C112.651 247.761 112.363 248.061 112.147 248.445C111.943 248.829 111.841 249.261 111.841 249.741C111.841 250.197 111.949 250.623 112.165 251.019C112.381 251.403 112.681 251.709 113.065 251.937C113.449 252.153 113.887 252.261 114.379 252.261C114.703 252.261 114.997 252.213 115.261 252.117C115.537 252.021 115.783 251.889 115.999 251.721L116.863 252.783ZM119.744 242.739H121.418V246.051H123.47V247.365H121.418V253.467H119.744V247.365H118.376V246.051H119.744V242.739ZM131.901 257.409C130.917 257.409 129.993 257.265 129.129 256.977C128.277 256.689 127.527 256.257 126.879 255.681C126.231 255.117 125.727 254.409 125.367 253.557C125.019 252.705 124.845 251.709 124.845 250.569C124.845 249.837 124.959 249.075 125.187 248.283C125.415 247.479 125.769 246.699 126.249 245.943C126.741 245.175 127.371 244.485 128.139 243.873C128.919 243.261 129.855 242.775 130.947 242.415C132.039 242.043 133.299 241.857 134.727 241.857C135.831 241.857 136.809 242.019 137.661 242.343C138.525 242.667 139.257 243.123 139.857 243.711C140.469 244.287 140.931 244.959 141.243 245.727C141.555 246.495 141.711 247.323 141.711 248.211C141.711 248.931 141.603 249.621 141.387 250.281C141.171 250.929 140.865 251.505 140.469 252.009C140.085 252.501 139.623 252.897 139.083 253.197C138.543 253.485 137.949 253.629 137.301 253.629C136.821 253.629 136.407 253.515 136.059 253.287C135.723 253.047 135.483 252.717 135.339 252.297C135.195 251.877 135.171 251.397 135.267 250.857L135.555 251.631C135.363 251.943 135.081 252.255 134.709 252.567C134.349 252.879 133.941 253.137 133.485 253.341C133.029 253.545 132.555 253.647 132.063 253.647C131.415 253.647 130.833 253.509 130.317 253.233C129.801 252.945 129.393 252.543 129.093 252.027C128.805 251.511 128.667 250.899 128.679 250.191C128.679 249.363 128.859 248.613 129.219 247.941C129.591 247.257 130.101 246.717 130.749 246.321C131.397 245.913 132.135 245.709 132.963 245.709C133.491 245.709 133.935 245.781 134.295 245.925C134.655 246.069 134.949 246.261 135.177 246.501C135.417 246.741 135.603 247.011 135.735 247.311L136.059 246.015H137.643L136.959 250.875C136.935 251.091 136.935 251.295 136.959 251.487C136.995 251.667 137.073 251.811 137.193 251.919C137.313 252.027 137.487 252.081 137.715 252.081C138.015 252.081 138.309 251.985 138.597 251.793C138.885 251.589 139.143 251.313 139.371 250.965C139.611 250.605 139.797 250.191 139.929 249.723C140.073 249.255 140.145 248.751 140.145 248.211C140.145 247.287 139.923 246.447 139.479 245.691C139.047 244.935 138.411 244.329 137.571 243.873C136.731 243.417 135.705 243.189 134.493 243.189C133.209 243.189 132.105 243.369 131.181 243.729C130.257 244.077 129.483 244.539 128.859 245.115C128.247 245.679 127.755 246.291 127.383 246.951C127.023 247.611 126.759 248.253 126.591 248.877C126.435 249.501 126.357 250.047 126.357 250.515C126.357 251.463 126.501 252.291 126.789 252.999C127.077 253.695 127.479 254.271 127.995 254.727C128.523 255.183 129.141 255.525 129.849 255.753C130.557 255.981 131.325 256.095 132.153 256.095C132.861 256.095 133.551 255.981 134.223 255.753C134.907 255.537 135.549 255.243 136.149 254.871L136.833 255.843C136.377 256.191 135.867 256.479 135.303 256.707C134.739 256.947 134.163 257.121 133.575 257.229C132.999 257.349 132.441 257.409 131.901 257.409ZM132.711 252.261C133.107 252.261 133.473 252.183 133.809 252.027C134.157 251.871 134.457 251.655 134.709 251.379C134.973 251.091 135.171 250.749 135.303 250.353L135.501 248.895C135.465 248.535 135.339 248.223 135.123 247.959C134.919 247.683 134.655 247.473 134.331 247.329C134.007 247.173 133.641 247.095 133.233 247.095C132.717 247.095 132.249 247.227 131.829 247.491C131.409 247.755 131.073 248.109 130.821 248.553C130.581 248.985 130.461 249.459 130.461 249.975C130.461 250.407 130.551 250.797 130.731 251.145C130.923 251.493 131.187 251.769 131.523 251.973C131.871 252.165 132.267 252.261 132.711 252.261ZM145.479 246.015L145.641 248.175L145.551 247.887C145.743 247.431 146.019 247.047 146.379 246.735C146.751 246.411 147.135 246.165 147.531 245.997C147.939 245.817 148.293 245.727 148.593 245.727L148.503 247.383C147.939 247.347 147.441 247.455 147.009 247.707C146.589 247.959 146.253 248.295 146.001 248.715C145.761 249.135 145.641 249.585 145.641 250.065V253.467H143.985V246.015H145.479ZM153.893 253.647C153.041 253.647 152.309 253.479 151.697 253.143C151.085 252.795 150.611 252.327 150.275 251.739C149.951 251.139 149.789 250.455 149.789 249.687C149.789 248.955 149.975 248.289 150.347 247.689C150.719 247.089 151.217 246.609 151.841 246.249C152.465 245.889 153.161 245.709 153.929 245.709C154.913 245.709 155.729 245.997 156.377 246.573C157.025 247.149 157.463 247.941 157.691 248.949L151.553 251.109L151.157 250.119L156.197 248.283L155.837 248.517C155.693 248.121 155.453 247.779 155.117 247.491C154.781 247.191 154.343 247.041 153.803 247.041C153.347 247.041 152.939 247.155 152.579 247.383C152.219 247.599 151.937 247.899 151.733 248.283C151.529 248.667 151.427 249.105 151.427 249.597C151.427 250.113 151.535 250.569 151.751 250.965C151.967 251.349 152.261 251.655 152.633 251.883C153.017 252.099 153.449 252.207 153.929 252.207C154.253 252.207 154.565 252.147 154.865 252.027C155.177 251.907 155.465 251.751 155.729 251.559L156.503 252.801C156.131 253.053 155.711 253.257 155.243 253.413C154.787 253.569 154.337 253.647 153.893 253.647ZM161.876 253.611C161.348 253.611 160.832 253.521 160.328 253.341C159.836 253.149 159.428 252.867 159.104 252.495L159.806 251.523C160.118 251.823 160.436 252.051 160.76 252.207C161.096 252.351 161.426 252.423 161.75 252.423C161.99 252.423 162.212 252.393 162.416 252.333C162.62 252.273 162.782 252.177 162.902 252.045C163.034 251.901 163.1 251.709 163.1 251.469C163.1 251.205 163.01 250.995 162.83 250.839C162.662 250.683 162.44 250.557 162.164 250.461C161.9 250.365 161.618 250.275 161.318 250.191C160.706 249.987 160.238 249.705 159.914 249.345C159.59 248.985 159.428 248.547 159.428 248.031C159.428 247.635 159.524 247.269 159.716 246.933C159.92 246.585 160.214 246.303 160.598 246.087C160.994 245.871 161.48 245.763 162.056 245.763C162.572 245.763 163.034 245.829 163.442 245.961C163.85 246.081 164.234 246.285 164.594 246.573L163.928 247.617C163.712 247.389 163.454 247.221 163.154 247.113C162.854 247.005 162.584 246.945 162.344 246.933C162.14 246.921 161.942 246.951 161.75 247.023C161.57 247.095 161.42 247.197 161.3 247.329C161.18 247.461 161.12 247.617 161.12 247.797C161.12 248.049 161.204 248.253 161.372 248.409C161.54 248.565 161.756 248.691 162.02 248.787C162.296 248.871 162.566 248.961 162.83 249.057C163.202 249.165 163.532 249.309 163.82 249.489C164.108 249.669 164.336 249.891 164.504 250.155C164.684 250.419 164.774 250.749 164.774 251.145C164.774 251.589 164.666 252.003 164.45 252.387C164.246 252.759 163.928 253.059 163.496 253.287C163.076 253.503 162.536 253.611 161.876 253.611ZM167.838 242.739H169.512V246.051H171.564V247.365H169.512V253.467H167.838V247.365H166.47V246.051H167.838V242.739ZM176.683 253.647C175.987 253.647 175.351 253.497 174.775 253.197C174.211 252.897 173.761 252.459 173.425 251.883C173.101 251.295 172.939 250.581 172.939 249.741C172.939 248.913 173.113 248.199 173.461 247.599C173.809 246.987 174.271 246.519 174.847 246.195C175.435 245.871 176.077 245.709 176.773 245.709C177.469 245.709 178.057 245.871 178.537 246.195C179.017 246.507 179.383 246.879 179.635 247.311L179.527 247.599L179.689 246.015H181.237V253.467H179.563V251.523L179.743 251.955C179.695 252.075 179.587 252.231 179.419 252.423C179.263 252.603 179.047 252.789 178.771 252.981C178.507 253.173 178.201 253.335 177.853 253.467C177.505 253.587 177.115 253.647 176.683 253.647ZM177.133 252.261C177.553 252.261 177.931 252.183 178.267 252.027C178.603 251.871 178.879 251.655 179.095 251.379C179.323 251.091 179.479 250.749 179.563 250.353V248.895C179.467 248.535 179.299 248.223 179.059 247.959C178.819 247.683 178.531 247.473 178.195 247.329C177.859 247.173 177.487 247.095 177.079 247.095C176.635 247.095 176.227 247.203 175.855 247.419C175.483 247.635 175.183 247.935 174.955 248.319C174.739 248.703 174.631 249.153 174.631 249.669C174.631 250.149 174.745 250.587 174.973 250.983C175.201 251.379 175.507 251.691 175.891 251.919C176.275 252.147 176.689 252.261 177.133 252.261ZM186.492 253.755C185.82 253.755 185.262 253.551 184.818 253.143C184.386 252.723 184.158 252.183 184.134 251.523V246.015H185.808V250.929C185.832 251.337 185.946 251.667 186.15 251.919C186.366 252.171 186.702 252.303 187.158 252.315C187.578 252.315 187.95 252.195 188.274 251.955C188.61 251.703 188.88 251.367 189.084 250.947C189.288 250.515 189.39 250.029 189.39 249.489V246.015H191.064V253.467H189.534L189.39 251.631L189.48 251.955C189.336 252.303 189.114 252.615 188.814 252.891C188.526 253.155 188.184 253.365 187.788 253.521C187.392 253.677 186.96 253.755 186.492 253.755ZM195.454 246.015L195.616 248.175L195.526 247.887C195.718 247.431 195.994 247.047 196.354 246.735C196.726 246.411 197.11 246.165 197.506 245.997C197.914 245.817 198.268 245.727 198.568 245.727L198.478 247.383C197.914 247.347 197.416 247.455 196.984 247.707C196.564 247.959 196.228 248.295 195.976 248.715C195.736 249.135 195.616 249.585 195.616 250.065V253.467H193.96V246.015H195.454ZM203.648 253.647C202.952 253.647 202.316 253.497 201.74 253.197C201.176 252.897 200.726 252.459 200.39 251.883C200.066 251.295 199.904 250.581 199.904 249.741C199.904 248.913 200.078 248.199 200.426 247.599C200.774 246.987 201.236 246.519 201.812 246.195C202.4 245.871 203.042 245.709 203.738 245.709C204.434 245.709 205.022 245.871 205.502 246.195C205.982 246.507 206.348 246.879 206.6 247.311L206.492 247.599L206.654 246.015H208.202V253.467H206.528V251.523L206.708 251.955C206.66 252.075 206.552 252.231 206.384 252.423C206.228 252.603 206.012 252.789 205.736 252.981C205.472 253.173 205.166 253.335 204.818 253.467C204.47 253.587 204.08 253.647 203.648 253.647ZM204.098 252.261C204.518 252.261 204.896 252.183 205.232 252.027C205.568 251.871 205.844 251.655 206.06 251.379C206.288 251.091 206.444 250.749 206.528 250.353V248.895C206.432 248.535 206.264 248.223 206.024 247.959C205.784 247.683 205.496 247.473 205.16 247.329C204.824 247.173 204.452 247.095 204.044 247.095C203.6 247.095 203.192 247.203 202.82 247.419C202.448 247.635 202.148 247.935 201.92 248.319C201.704 248.703 201.596 249.153 201.596 249.669C201.596 250.149 201.71 250.587 201.938 250.983C202.166 251.379 202.472 251.691 202.856 251.919C203.24 252.147 203.654 252.261 204.098 252.261ZM212.593 246.015L212.737 247.833L212.665 247.545C212.905 246.993 213.295 246.555 213.835 246.231C214.375 245.895 214.999 245.727 215.707 245.727C216.415 245.727 216.991 245.937 217.435 246.357C217.891 246.765 218.125 247.299 218.137 247.959V253.467H216.445V248.553C216.433 248.145 216.313 247.815 216.085 247.563C215.869 247.299 215.527 247.167 215.059 247.167C214.627 247.167 214.237 247.287 213.889 247.527C213.541 247.767 213.265 248.097 213.061 248.517C212.869 248.937 212.773 249.423 212.773 249.975V253.467H211.099V246.015H212.593ZM221.768 242.739H223.442V246.051H225.494V247.365H223.442V253.467H221.768V247.365H220.4V246.051H221.768V242.739ZM230.613 253.647C229.917 253.647 229.281 253.497 228.705 253.197C228.141 252.897 227.691 252.459 227.355 251.883C227.031 251.295 226.869 250.581 226.869 249.741C226.869 248.913 227.043 248.199 227.391 247.599C227.739 246.987 228.201 246.519 228.777 246.195C229.365 245.871 230.007 245.709 230.703 245.709C231.399 245.709 231.987 245.871 232.467 246.195C232.947 246.507 233.313 246.879 233.565 247.311L233.457 247.599L233.619 246.015H235.167V253.467H233.493V251.523L233.673 251.955C233.625 252.075 233.517 252.231 233.349 252.423C233.193 252.603 232.977 252.789 232.701 252.981C232.437 253.173 232.131 253.335 231.783 253.467C231.435 253.587 231.045 253.647 230.613 253.647ZM231.063 252.261C231.483 252.261 231.861 252.183 232.197 252.027C232.533 251.871 232.809 251.655 233.025 251.379C233.253 251.091 233.409 250.749 233.493 250.353V248.895C233.397 248.535 233.229 248.223 232.989 247.959C232.749 247.683 232.461 247.473 232.125 247.329C231.789 247.173 231.417 247.095 231.009 247.095C230.565 247.095 230.157 247.203 229.785 247.419C229.413 247.635 229.113 247.935 228.885 248.319C228.669 248.703 228.561 249.153 228.561 249.669C228.561 250.149 228.675 250.587 228.903 250.983C229.131 251.379 229.437 251.691 229.821 251.919C230.205 252.147 230.619 252.261 231.063 252.261ZM238.783 242.739H240.457V246.051H242.509V247.365H240.457V253.467H238.783V247.365H237.415V246.051H238.783V242.739ZM247.988 253.647C247.136 253.647 246.404 253.479 245.792 253.143C245.18 252.795 244.706 252.327 244.37 251.739C244.046 251.139 243.884 250.455 243.884 249.687C243.884 248.955 244.07 248.289 244.442 247.689C244.814 247.089 245.312 246.609 245.936 246.249C246.56 245.889 247.256 245.709 248.024 245.709C249.008 245.709 249.824 245.997 250.472 246.573C251.12 247.149 251.558 247.941 251.786 248.949L245.648 251.109L245.252 250.119L250.292 248.283L249.932 248.517C249.788 248.121 249.548 247.779 249.212 247.491C248.876 247.191 248.438 247.041 247.898 247.041C247.442 247.041 247.034 247.155 246.674 247.383C246.314 247.599 246.032 247.899 245.828 248.283C245.624 248.667 245.522 249.105 245.522 249.597C245.522 250.113 245.63 250.569 245.846 250.965C246.062 251.349 246.356 251.655 246.728 251.883C247.112 252.099 247.544 252.207 248.024 252.207C248.348 252.207 248.66 252.147 248.96 252.027C249.272 251.907 249.56 251.751 249.824 251.559L250.598 252.801C250.226 253.053 249.806 253.257 249.338 253.413C248.882 253.569 248.432 253.647 247.988 253.647ZM253.038 252.513C253.038 252.249 253.134 252.027 253.326 251.847C253.53 251.655 253.752 251.559 253.992 251.559C254.208 251.559 254.412 251.655 254.604 251.847C254.808 252.027 254.91 252.249 254.91 252.513C254.91 252.801 254.808 253.035 254.604 253.215C254.412 253.383 254.208 253.467 253.992 253.467C253.752 253.467 253.53 253.383 253.326 253.215C253.134 253.035 253.038 252.801 253.038 252.513ZM262.955 252.783C262.619 253.047 262.217 253.257 261.749 253.413C261.281 253.569 260.813 253.647 260.345 253.647C259.529 253.647 258.815 253.485 258.203 253.161C257.591 252.837 257.111 252.387 256.763 251.811C256.427 251.223 256.259 250.533 256.259 249.741C256.259 248.949 256.439 248.259 256.799 247.671C257.171 247.083 257.651 246.633 258.239 246.321C258.839 245.997 259.481 245.835 260.165 245.835C260.765 245.835 261.299 245.919 261.767 246.087C262.247 246.255 262.655 246.483 262.991 246.771L262.163 247.851C261.947 247.683 261.683 247.533 261.371 247.401C261.059 247.269 260.705 247.203 260.309 247.203C259.877 247.203 259.475 247.317 259.103 247.545C258.743 247.761 258.455 248.061 258.239 248.445C258.035 248.829 257.933 249.261 257.933 249.741C257.933 250.197 258.041 250.623 258.257 251.019C258.473 251.403 258.773 251.709 259.157 251.937C259.541 252.153 259.979 252.261 260.471 252.261C260.795 252.261 261.089 252.213 261.353 252.117C261.629 252.021 261.875 251.889 262.091 251.721L262.955 252.783ZM264.468 249.669C264.468 248.925 264.642 248.253 264.99 247.653C265.35 247.053 265.842 246.579 266.466 246.231C267.09 245.883 267.798 245.709 268.59 245.709C269.406 245.709 270.12 245.883 270.732 246.231C271.344 246.579 271.818 247.053 272.154 247.653C272.49 248.253 272.658 248.925 272.658 249.669C272.658 250.413 272.49 251.091 272.154 251.703C271.818 252.303 271.338 252.777 270.714 253.125C270.102 253.473 269.388 253.647 268.572 253.647C267.78 253.647 267.072 253.485 266.448 253.161C265.836 252.825 265.35 252.363 264.99 251.775C264.642 251.175 264.468 250.473 264.468 249.669ZM266.142 249.687C266.142 250.167 266.25 250.605 266.466 251.001C266.682 251.385 266.97 251.691 267.33 251.919C267.702 252.147 268.11 252.261 268.554 252.261C269.022 252.261 269.436 252.147 269.796 251.919C270.168 251.691 270.456 251.385 270.66 251.001C270.864 250.605 270.966 250.167 270.966 249.687C270.966 249.207 270.864 248.775 270.66 248.391C270.456 247.995 270.168 247.683 269.796 247.455C269.436 247.215 269.022 247.095 268.554 247.095C268.098 247.095 267.684 247.215 267.312 247.455C266.952 247.695 266.664 248.013 266.448 248.409C266.244 248.793 266.142 249.219 266.142 249.687ZM276.419 246.015L276.563 247.689L276.491 247.545C276.767 246.981 277.157 246.537 277.661 246.213C278.177 245.889 278.765 245.727 279.425 245.727C279.845 245.727 280.217 245.793 280.541 245.925C280.865 246.057 281.129 246.249 281.333 246.501C281.549 246.741 281.687 247.041 281.747 247.401L281.657 247.455C281.945 246.915 282.341 246.495 282.845 246.195C283.361 245.883 283.901 245.727 284.465 245.727C285.197 245.727 285.773 245.937 286.193 246.357C286.625 246.765 286.847 247.299 286.859 247.959V253.467H285.185V248.553C285.173 248.169 285.077 247.851 284.897 247.599C284.729 247.335 284.429 247.191 283.997 247.167C283.565 247.167 283.175 247.299 282.827 247.563C282.491 247.827 282.227 248.169 282.035 248.589C281.843 248.997 281.741 249.441 281.729 249.921V253.467H280.055V248.553C280.043 248.169 279.941 247.851 279.749 247.599C279.569 247.335 279.263 247.191 278.831 247.167C278.387 247.167 277.997 247.299 277.661 247.563C277.325 247.827 277.061 248.169 276.869 248.589C276.689 249.009 276.599 249.459 276.599 249.939V253.467H274.925V246.015H276.419Z" fill="#4A4A4A"/>
<path d="M53.7294 314.661C52.7943 313.719 50.5298 312.344 49.431 311.79C48.0002 311.07 47.8825 311.011 46.7579 311.846C46.0077 312.404 45.509 312.902 44.6311 312.715C43.7532 312.527 41.8454 311.472 40.175 309.807C38.5045 308.141 37.3875 306.178 37.1997 305.303C37.0119 304.428 37.5183 303.936 38.0706 303.184C38.849 302.124 38.7901 301.947 38.1247 300.516C37.606 299.403 36.1911 297.16 35.2455 296.23C34.2339 295.231 34.2339 295.407 33.5821 295.678C33.0514 295.901 32.5423 296.173 32.0612 296.489C31.1191 297.115 30.5962 297.635 30.2306 298.416C29.8649 299.197 29.7006 301.029 31.5889 304.46C33.4773 307.89 34.8021 309.644 37.5442 312.378C40.2862 315.113 42.3948 316.583 45.4772 318.312C49.2903 320.448 50.7529 320.031 51.5366 319.666C52.3203 319.301 52.8426 318.783 53.4697 317.841C53.7866 317.361 54.0586 316.852 54.2823 316.322C54.5537 315.672 54.7303 315.672 53.7294 314.661Z" stroke="#E1B168" stroke-width="2.1" stroke-miterlimit="10"/>
<path d="M66.211 306.905C66.211 305.693 66.355 304.559 66.643 303.503C66.931 302.447 67.303 301.505 67.759 300.677C68.227 299.849 68.713 299.165 69.217 298.625L70.531 299.363C70.063 299.903 69.631 300.545 69.235 301.289C68.851 302.033 68.539 302.879 68.299 303.827C68.071 304.775 67.957 305.807 67.957 306.923C67.957 308.039 68.071 309.071 68.299 310.019C68.539 310.955 68.851 311.789 69.235 312.521C69.631 313.265 70.063 313.907 70.531 314.447L69.217 315.203C68.713 314.663 68.227 313.973 67.759 313.133C67.303 312.305 66.931 311.369 66.643 310.325C66.355 309.269 66.211 308.129 66.211 306.905ZM71.8688 309.353V309.335L79.0868 300.227H79.1048V308.021H80.6348V309.353H79.1048V312.215H77.3588V309.353H71.8688ZM77.4668 304.169L74.4248 308.111L74.1548 308.021H77.3588V303.845L77.4668 304.169ZM81.7716 308.489C81.7716 307.877 81.8856 307.349 82.1136 306.905C82.3536 306.461 82.6476 306.089 82.9956 305.789C83.3556 305.477 83.7216 305.243 84.0936 305.087C83.7336 304.859 83.4336 304.577 83.1936 304.241C82.9656 303.905 82.8516 303.473 82.8516 302.945C82.8516 302.417 82.9836 301.949 83.2476 301.541C83.5236 301.133 83.8956 300.815 84.3636 300.587C84.8316 300.347 85.3656 300.227 85.9656 300.227C86.5536 300.227 87.0816 300.347 87.5496 300.587C88.0176 300.815 88.3896 301.127 88.6656 301.523C88.9416 301.919 89.0796 302.369 89.0796 302.873C89.0796 303.437 88.9596 303.887 88.7196 304.223C88.4916 304.559 88.1976 304.847 87.8376 305.087C88.2096 305.255 88.5756 305.495 88.9356 305.807C89.2956 306.107 89.5896 306.479 89.8176 306.923C90.0576 307.367 90.1776 307.889 90.1776 308.489C90.1776 309.173 89.9856 309.809 89.6016 310.397C89.2296 310.985 88.7256 311.459 88.0896 311.819C87.4656 312.179 86.7516 312.359 85.9476 312.359C85.1436 312.359 84.4296 312.179 83.8056 311.819C83.1816 311.459 82.6836 310.985 82.3116 310.397C81.9516 309.809 81.7716 309.173 81.7716 308.489ZM83.5536 308.399C83.5536 308.855 83.6616 309.269 83.8776 309.641C84.0936 310.013 84.3816 310.313 84.7416 310.541C85.1016 310.769 85.5036 310.883 85.9476 310.883C86.4036 310.883 86.8176 310.769 87.1896 310.541C87.5736 310.313 87.8736 310.013 88.0896 309.641C88.3176 309.269 88.4316 308.861 88.4316 308.417C88.4316 307.961 88.3236 307.553 88.1076 307.193C87.8916 306.821 87.5976 306.521 87.2256 306.293C86.8656 306.065 86.4636 305.951 86.0196 305.951C85.5756 305.939 85.1676 306.047 84.7956 306.275C84.4236 306.491 84.1236 306.785 83.8956 307.157C83.6676 307.529 83.5536 307.943 83.5536 308.399ZM84.5436 303.161C84.5436 303.533 84.6876 303.851 84.9756 304.115C85.2756 304.367 85.6176 304.493 86.0016 304.493C86.3856 304.493 86.7156 304.367 86.9916 304.115C87.2796 303.851 87.4236 303.533 87.4236 303.161C87.4236 302.729 87.2796 302.375 86.9916 302.099C86.7156 301.823 86.3856 301.685 86.0016 301.685C85.6056 301.685 85.2636 301.823 84.9756 302.099C84.6876 302.375 84.5436 302.729 84.5436 303.161ZM98.9875 300.371L94.2535 312.215H92.2915L96.5575 301.793L97.1695 302.045H91.2475V300.371H98.9875ZM105.13 306.923C105.13 308.135 104.98 309.269 104.68 310.325C104.392 311.381 104.02 312.323 103.564 313.151C103.12 313.979 102.64 314.663 102.124 315.203L100.81 314.447C101.278 313.919 101.704 313.283 102.088 312.539C102.484 311.795 102.796 310.955 103.024 310.019C103.264 309.071 103.384 308.039 103.384 306.923C103.384 305.807 103.264 304.775 103.024 303.827C102.796 302.879 102.484 302.033 102.088 301.289C101.704 300.545 101.278 299.909 100.81 299.381L102.124 298.625C102.64 299.165 103.12 299.855 103.564 300.695C104.02 301.523 104.392 302.465 104.68 303.521C104.98 304.565 105.13 305.699 105.13 306.923ZM112.99 308.489C112.99 307.877 113.104 307.349 113.332 306.905C113.572 306.461 113.866 306.089 114.214 305.789C114.574 305.477 114.94 305.243 115.312 305.087C114.952 304.859 114.652 304.577 114.412 304.241C114.184 303.905 114.07 303.473 114.07 302.945C114.07 302.417 114.202 301.949 114.466 301.541C114.742 301.133 115.114 300.815 115.582 300.587C116.05 300.347 116.584 300.227 117.184 300.227C117.772 300.227 118.3 300.347 118.768 300.587C119.236 300.815 119.608 301.127 119.884 301.523C120.16 301.919 120.298 302.369 120.298 302.873C120.298 303.437 120.178 303.887 119.938 304.223C119.71 304.559 119.416 304.847 119.056 305.087C119.428 305.255 119.794 305.495 120.154 305.807C120.514 306.107 120.808 306.479 121.036 306.923C121.276 307.367 121.396 307.889 121.396 308.489C121.396 309.173 121.204 309.809 120.82 310.397C120.448 310.985 119.944 311.459 119.308 311.819C118.684 312.179 117.97 312.359 117.166 312.359C116.362 312.359 115.648 312.179 115.024 311.819C114.4 311.459 113.902 310.985 113.53 310.397C113.17 309.809 112.99 309.173 112.99 308.489ZM114.772 308.399C114.772 308.855 114.88 309.269 115.096 309.641C115.312 310.013 115.6 310.313 115.96 310.541C116.32 310.769 116.722 310.883 117.166 310.883C117.622 310.883 118.036 310.769 118.408 310.541C118.792 310.313 119.092 310.013 119.308 309.641C119.536 309.269 119.65 308.861 119.65 308.417C119.65 307.961 119.542 307.553 119.326 307.193C119.11 306.821 118.816 306.521 118.444 306.293C118.084 306.065 117.682 305.951 117.238 305.951C116.794 305.939 116.386 306.047 116.014 306.275C115.642 306.491 115.342 306.785 115.114 307.157C114.886 307.529 114.772 307.943 114.772 308.399ZM115.762 303.161C115.762 303.533 115.906 303.851 116.194 304.115C116.494 304.367 116.836 304.493 117.22 304.493C117.604 304.493 117.934 304.367 118.21 304.115C118.498 303.851 118.642 303.533 118.642 303.161C118.642 302.729 118.498 302.375 118.21 302.099C117.934 301.823 117.604 301.685 117.22 301.685C116.824 301.685 116.482 301.823 116.194 302.099C115.906 302.375 115.762 302.729 115.762 303.161ZM130.206 300.371L125.472 312.215H123.51L127.776 301.793L128.388 302.045H122.466V300.371H130.206ZM136.331 312.269C135.599 312.269 134.927 312.131 134.315 311.855C133.703 311.579 133.175 311.183 132.731 310.667C132.299 310.139 131.963 309.503 131.723 308.759C131.483 308.015 131.363 307.181 131.363 306.257C131.363 305.249 131.477 304.373 131.705 303.629C131.933 302.873 132.263 302.243 132.695 301.739C133.139 301.235 133.667 300.863 134.279 300.623C134.891 300.371 135.575 300.245 136.331 300.245C137.063 300.245 137.729 300.383 138.329 300.659C138.941 300.935 139.463 301.337 139.895 301.865C140.339 302.381 140.681 303.011 140.921 303.755C141.173 304.487 141.299 305.321 141.299 306.257C141.299 307.205 141.173 308.051 140.921 308.795C140.681 309.539 140.339 310.169 139.895 310.685C139.463 311.201 138.941 311.597 138.329 311.873C137.729 312.137 137.063 312.269 136.331 312.269ZM136.313 310.595C137.009 310.595 137.591 310.415 138.059 310.055C138.539 309.683 138.899 309.167 139.139 308.507C139.379 307.847 139.499 307.085 139.499 306.221C139.499 305.357 139.379 304.607 139.139 303.971C138.899 303.323 138.539 302.819 138.059 302.459C137.591 302.099 137.009 301.919 136.313 301.919C135.617 301.919 135.035 302.105 134.567 302.477C134.099 302.837 133.745 303.341 133.505 303.989C133.277 304.637 133.163 305.393 133.163 306.257C133.163 307.109 133.277 307.865 133.505 308.525C133.745 309.173 134.099 309.683 134.567 310.055C135.035 310.415 135.617 310.595 136.313 310.595ZM148.579 307.607H151.945V309.083H148.579V307.607ZM159.741 300.371H162.837V312.215H161.091V302.045H159.741V300.371ZM170.327 312.269C169.595 312.269 168.923 312.131 168.311 311.855C167.699 311.579 167.171 311.183 166.727 310.667C166.295 310.139 165.959 309.503 165.719 308.759C165.479 308.015 165.359 307.181 165.359 306.257C165.359 305.249 165.473 304.373 165.701 303.629C165.929 302.873 166.259 302.243 166.691 301.739C167.135 301.235 167.663 300.863 168.275 300.623C168.887 300.371 169.571 300.245 170.327 300.245C171.059 300.245 171.725 300.383 172.325 300.659C172.937 300.935 173.459 301.337 173.891 301.865C174.335 302.381 174.677 303.011 174.917 303.755C175.169 304.487 175.295 305.321 175.295 306.257C175.295 307.205 175.169 308.051 174.917 308.795C174.677 309.539 174.335 310.169 173.891 310.685C173.459 311.201 172.937 311.597 172.325 311.873C171.725 312.137 171.059 312.269 170.327 312.269ZM170.309 310.595C171.005 310.595 171.587 310.415 172.055 310.055C172.535 309.683 172.895 309.167 173.135 308.507C173.375 307.847 173.495 307.085 173.495 306.221C173.495 305.357 173.375 304.607 173.135 303.971C172.895 303.323 172.535 302.819 172.055 302.459C171.587 302.099 171.005 301.919 170.309 301.919C169.613 301.919 169.031 302.105 168.563 302.477C168.095 302.837 167.741 303.341 167.501 303.989C167.273 304.637 167.159 305.393 167.159 306.257C167.159 307.109 167.273 307.865 167.501 308.525C167.741 309.173 168.095 309.683 168.563 310.055C169.031 310.415 169.613 310.595 170.309 310.595ZM176.43 308.489C176.43 307.877 176.544 307.349 176.772 306.905C177.012 306.461 177.306 306.089 177.654 305.789C178.014 305.477 178.38 305.243 178.752 305.087C178.392 304.859 178.092 304.577 177.852 304.241C177.624 303.905 177.51 303.473 177.51 302.945C177.51 302.417 177.642 301.949 177.906 301.541C178.182 301.133 178.554 300.815 179.022 300.587C179.49 300.347 180.024 300.227 180.624 300.227C181.212 300.227 181.74 300.347 182.208 300.587C182.676 300.815 183.048 301.127 183.324 301.523C183.6 301.919 183.738 302.369 183.738 302.873C183.738 303.437 183.618 303.887 183.378 304.223C183.15 304.559 182.856 304.847 182.496 305.087C182.868 305.255 183.234 305.495 183.594 305.807C183.954 306.107 184.248 306.479 184.476 306.923C184.716 307.367 184.836 307.889 184.836 308.489C184.836 309.173 184.644 309.809 184.26 310.397C183.888 310.985 183.384 311.459 182.748 311.819C182.124 312.179 181.41 312.359 180.606 312.359C179.802 312.359 179.088 312.179 178.464 311.819C177.84 311.459 177.342 310.985 176.97 310.397C176.61 309.809 176.43 309.173 176.43 308.489ZM178.212 308.399C178.212 308.855 178.32 309.269 178.536 309.641C178.752 310.013 179.04 310.313 179.4 310.541C179.76 310.769 180.162 310.883 180.606 310.883C181.062 310.883 181.476 310.769 181.848 310.541C182.232 310.313 182.532 310.013 182.748 309.641C182.976 309.269 183.09 308.861 183.09 308.417C183.09 307.961 182.982 307.553 182.766 307.193C182.55 306.821 182.256 306.521 181.884 306.293C181.524 306.065 181.122 305.951 180.678 305.951C180.234 305.939 179.826 306.047 179.454 306.275C179.082 306.491 178.782 306.785 178.554 307.157C178.326 307.529 178.212 307.943 178.212 308.399ZM179.202 303.161C179.202 303.533 179.346 303.851 179.634 304.115C179.934 304.367 180.276 304.493 180.66 304.493C181.044 304.493 181.374 304.367 181.65 304.115C181.938 303.851 182.082 303.533 182.082 303.161C182.082 302.729 181.938 302.375 181.65 302.099C181.374 301.823 181.044 301.685 180.66 301.685C180.264 301.685 179.922 301.823 179.634 302.099C179.346 302.375 179.202 302.729 179.202 303.161ZM193.646 300.371L188.912 312.215H186.95L191.216 301.793L191.828 302.045H185.906V300.371H193.646Z" fill="#4A4A4A"/>
</svg>
