<svg width="319" height="422" viewBox="0 0 319 422" fill="none" xmlns="http://www.w3.org/2000/svg">
<rect x="0.969727" y="0.752197" width="317.375" height="420.496" fill="white"/>
<rect x="0.969727" y="0.752197" width="317.375" height="420.496" stroke="#C4C4C4"/>
<path d="M35.6897 113.532C35.6897 114.252 35.8697 114.892 36.2297 115.452C36.6097 116.012 37.0697 116.502 37.6097 116.922C38.1497 117.342 38.8797 117.852 39.7997 118.452C40.7997 119.092 41.5997 119.652 42.1997 120.132C42.7997 120.612 43.3097 121.202 43.7297 121.902C44.1497 122.582 44.3597 123.372 44.3597 124.272C44.3597 125.312 44.0797 126.242 43.5197 127.062C42.9597 127.862 42.1797 128.492 41.1797 128.952C40.1997 129.392 39.0997 129.612 37.8797 129.612C36.9797 129.612 36.0397 129.492 35.0597 129.252C34.0797 128.992 33.4197 128.712 33.0797 128.412C32.9797 128.332 32.8997 128.262 32.8397 128.202C32.7997 128.122 32.7797 128.002 32.7797 127.842L32.6897 123.072V123.042C32.6897 122.962 32.7397 122.922 32.8397 122.922C32.9397 122.902 32.9997 122.932 33.0197 123.012C33.6197 124.232 34.1397 125.222 34.5797 125.982C35.0397 126.742 35.6097 127.412 36.2897 127.992C36.9897 128.572 37.7797 128.862 38.6597 128.862C39.4597 128.862 40.1197 128.652 40.6397 128.232C41.1597 127.792 41.4197 127.052 41.4197 126.012C41.4197 125.132 41.2197 124.362 40.8197 123.702C40.4397 123.042 39.9697 122.482 39.4097 122.022C38.8497 121.562 38.0797 121.012 37.0997 120.372C36.1397 119.752 35.3897 119.222 34.8497 118.782C34.3297 118.342 33.8797 117.812 33.4997 117.192C33.1197 116.572 32.9297 115.842 32.9297 115.002C32.9297 113.942 33.2297 113.052 33.8297 112.332C34.4497 111.592 35.2397 111.052 36.1997 110.712C37.1597 110.352 38.1697 110.172 39.2297 110.172C39.9297 110.172 40.6397 110.242 41.3597 110.382C42.0797 110.502 42.6597 110.652 43.0997 110.832C43.2797 110.912 43.3997 111.002 43.4597 111.102C43.5197 111.182 43.5497 111.292 43.5497 111.432V115.842C43.5497 115.902 43.4997 115.952 43.3997 115.992C43.2997 116.012 43.2397 115.992 43.2197 115.932L42.9797 115.362C42.4797 114.102 41.8897 113.032 41.2097 112.152C40.5497 111.272 39.6197 110.832 38.4197 110.832C37.6197 110.832 36.9597 111.062 36.4397 111.522C35.9397 111.982 35.6897 112.652 35.6897 113.532ZM60.4592 127.302C60.5192 127.302 60.5692 127.352 60.6092 127.452C60.6692 127.552 60.6692 127.612 60.6092 127.632L56.4692 129.642C56.4292 129.662 56.3792 129.672 56.3192 129.672C56.1392 129.672 55.9692 129.492 55.8092 129.132C55.6692 128.772 55.5792 128.282 55.5392 127.662C54.8792 128.282 54.2192 128.772 53.5592 129.132C52.8992 129.472 52.1692 129.642 51.3692 129.642C50.5492 129.642 49.7892 129.442 49.0892 129.042C48.4092 128.622 47.8692 128.012 47.4692 127.212C47.0692 126.412 46.8692 125.452 46.8692 124.332C46.8692 122.912 47.1992 121.672 47.8592 120.612C48.5192 119.532 49.3892 118.712 50.4692 118.152C51.5492 117.592 52.7092 117.312 53.9492 117.312C55.0292 117.312 55.9992 117.572 56.8592 118.092C57.3192 117.892 57.7092 117.632 58.0292 117.312C58.0492 117.292 58.0792 117.282 58.1192 117.282C58.1592 117.282 58.1992 117.302 58.2392 117.342C58.2992 117.362 58.3292 117.392 58.3292 117.432V125.982C58.3292 126.582 58.3892 127.012 58.5092 127.272C58.6492 127.512 58.8692 127.632 59.1692 127.632C59.4292 127.632 59.8392 127.522 60.3992 127.302H60.4592ZM52.8992 128.052C53.6992 128.052 54.5692 127.732 55.5092 127.092V126.792V120.612C55.5092 119.832 55.2892 119.192 54.8492 118.692C54.4292 118.192 53.8692 117.942 53.1692 117.942C52.1692 117.942 51.3792 118.442 50.7992 119.442C50.2392 120.442 49.9592 121.732 49.9592 123.312C49.9592 124.812 50.2092 125.982 50.7092 126.822C51.2292 127.642 51.9592 128.052 52.8992 128.052ZM75.8862 128.892C75.9462 128.892 75.9762 128.952 75.9762 129.072C75.9762 129.192 75.9462 129.252 75.8862 129.252C75.3662 129.252 74.9562 129.242 74.6562 129.222L72.8562 129.192L71.1162 129.222C70.7962 129.242 70.3762 129.252 69.8562 129.252C69.7962 129.252 69.7662 129.192 69.7662 129.072C69.7662 128.952 69.7962 128.892 69.8562 128.892C70.4762 128.892 70.8962 128.752 71.1162 128.472C71.3362 128.172 71.4462 127.622 71.4462 126.822V122.502C71.4462 121.422 71.2462 120.622 70.8462 120.102C70.4662 119.582 69.8562 119.322 69.0162 119.322C68.5362 119.322 68.0362 119.422 67.5162 119.622C67.0162 119.822 66.5762 120.092 66.1962 120.432V126.822C66.1962 127.622 66.3062 128.172 66.5262 128.472C66.7662 128.752 67.1962 128.892 67.8162 128.892C67.8762 128.892 67.9062 128.952 67.9062 129.072C67.9062 129.192 67.8762 129.252 67.8162 129.252C67.2962 129.252 66.8862 129.242 66.5862 129.222L64.7862 129.192L63.0162 129.222C62.7162 129.242 62.3062 129.252 61.7862 129.252C61.7262 129.252 61.6962 129.192 61.6962 129.072C61.6962 128.952 61.7262 128.892 61.7862 128.892C62.4062 128.892 62.8262 128.752 63.0462 128.472C63.2662 128.172 63.3762 127.622 63.3762 126.822V121.182C63.3762 120.562 63.2962 120.112 63.1362 119.832C62.9962 119.532 62.7662 119.382 62.4462 119.382C62.1062 119.382 61.6262 119.522 61.0062 119.802H60.9462C60.8862 119.802 60.8362 119.752 60.7962 119.652C60.7762 119.552 60.7862 119.492 60.8262 119.472L64.9962 117.432C65.1162 117.392 65.1862 117.372 65.2062 117.372C65.4262 117.372 65.6362 117.592 65.8362 118.032C66.0362 118.452 66.1562 119.032 66.1962 119.772C67.5762 118.132 69.0962 117.312 70.7562 117.312C71.8362 117.312 72.6862 117.662 73.3062 118.362C73.9462 119.042 74.2662 119.942 74.2662 121.062V126.822C74.2662 127.622 74.3762 128.172 74.5962 128.472C74.8362 128.752 75.2662 128.892 75.8862 128.892ZM97.7485 114.762C97.7485 114.802 97.6885 114.832 97.5685 114.852C97.4685 114.872 97.4085 114.852 97.3885 114.792C97.0685 113.632 96.5285 112.772 95.7685 112.212C95.0085 111.652 94.0085 111.372 92.7685 111.372H91.8685C91.2685 111.372 90.8285 111.502 90.5485 111.762C90.2685 112.022 90.1285 112.422 90.1285 112.962V119.442H92.2885C93.4485 119.442 94.3285 119.242 94.9285 118.842C95.5485 118.422 95.8585 117.852 95.8585 117.132C95.8585 117.092 95.9185 117.072 96.0385 117.072C96.1585 117.072 96.2185 117.092 96.2185 117.132L96.1885 119.862C96.1885 120.502 96.1985 120.982 96.2185 121.302L96.2485 122.892C96.2485 122.952 96.1885 122.982 96.0685 122.982C95.9485 122.982 95.8885 122.952 95.8885 122.892C95.8885 122.092 95.5685 121.462 94.9285 121.002C94.3085 120.522 93.4185 120.282 92.2585 120.282H90.1285V126.702C90.1285 127.322 90.2085 127.782 90.3685 128.082C90.5285 128.382 90.8285 128.592 91.2685 128.712C91.7085 128.832 92.3985 128.892 93.3385 128.892C93.3785 128.892 93.3985 128.952 93.3985 129.072C93.3985 129.192 93.3785 129.252 93.3385 129.252C92.5185 129.252 91.8785 129.242 91.4185 129.222L88.3585 129.192L86.1085 129.222C85.7085 129.242 85.1585 129.252 84.4585 129.252C84.3985 129.252 84.3685 129.192 84.3685 129.072C84.3685 128.952 84.3985 128.892 84.4585 128.892C85.1585 128.892 85.6685 128.842 85.9885 128.742C86.3085 128.642 86.5185 128.452 86.6185 128.172C86.7385 127.872 86.7985 127.422 86.7985 126.822V112.932C86.7985 112.332 86.7485 111.892 86.6485 111.612C86.5485 111.332 86.3485 111.142 86.0485 111.042C85.7485 110.922 85.2885 110.862 84.6685 110.862C84.6085 110.862 84.5785 110.802 84.5785 110.682C84.5785 110.562 84.6085 110.502 84.6685 110.502H97.3885C97.5885 110.502 97.6885 110.592 97.6885 110.772L97.7485 114.762ZM108.082 117.372C108.542 117.372 108.982 117.542 109.402 117.882C109.842 118.202 110.062 118.592 110.062 119.052C110.062 119.472 109.932 119.822 109.672 120.102C109.412 120.362 109.072 120.492 108.652 120.492C108.352 120.492 108.102 120.432 107.902 120.312C107.722 120.192 107.532 120.012 107.332 119.772C107.152 119.572 106.992 119.432 106.852 119.352C106.732 119.252 106.582 119.202 106.402 119.202C106.202 119.202 105.982 119.282 105.742 119.442C105.522 119.582 105.172 119.892 104.692 120.372V126.822C104.692 127.622 104.882 128.172 105.262 128.472C105.642 128.752 106.342 128.892 107.362 128.892C107.442 128.892 107.482 128.952 107.482 129.072C107.482 129.192 107.442 129.252 107.362 129.252C106.662 129.252 106.112 129.242 105.712 129.222L103.282 129.192L101.512 129.222C101.212 129.242 100.802 129.252 100.282 129.252C100.222 129.252 100.192 129.192 100.192 129.072C100.192 128.952 100.222 128.892 100.282 128.892C100.902 128.892 101.322 128.752 101.542 128.472C101.762 128.172 101.872 127.622 101.872 126.822V121.182C101.872 120.562 101.792 120.112 101.632 119.832C101.492 119.532 101.262 119.382 100.942 119.382C100.602 119.382 100.122 119.522 99.5023 119.802H99.4423C99.3823 119.802 99.3323 119.752 99.2923 119.652C99.2723 119.552 99.2823 119.492 99.3223 119.472L103.492 117.432C103.612 117.392 103.682 117.372 103.702 117.372C103.922 117.372 104.122 117.582 104.302 118.002C104.502 118.402 104.622 118.952 104.662 119.652C105.482 118.812 106.152 118.222 106.672 117.882C107.212 117.542 107.682 117.372 108.082 117.372ZM124.678 127.302C124.738 127.302 124.788 127.352 124.828 127.452C124.888 127.552 124.888 127.612 124.828 127.632L120.688 129.642C120.648 129.662 120.598 129.672 120.538 129.672C120.358 129.672 120.188 129.492 120.028 129.132C119.888 128.772 119.798 128.282 119.758 127.662C119.098 128.282 118.438 128.772 117.778 129.132C117.118 129.472 116.388 129.642 115.588 129.642C114.768 129.642 114.008 129.442 113.308 129.042C112.628 128.622 112.088 128.012 111.688 127.212C111.288 126.412 111.088 125.452 111.088 124.332C111.088 122.912 111.418 121.672 112.078 120.612C112.738 119.532 113.608 118.712 114.688 118.152C115.768 117.592 116.928 117.312 118.168 117.312C119.248 117.312 120.218 117.572 121.078 118.092C121.538 117.892 121.928 117.632 122.248 117.312C122.268 117.292 122.298 117.282 122.338 117.282C122.378 117.282 122.418 117.302 122.458 117.342C122.518 117.362 122.548 117.392 122.548 117.432V125.982C122.548 126.582 122.608 127.012 122.728 127.272C122.868 127.512 123.088 127.632 123.388 127.632C123.648 127.632 124.058 127.522 124.618 127.302H124.678ZM117.118 128.052C117.918 128.052 118.788 127.732 119.728 127.092V126.792V120.612C119.728 119.832 119.508 119.192 119.068 118.692C118.648 118.192 118.088 117.942 117.388 117.942C116.388 117.942 115.598 118.442 115.018 119.442C114.458 120.442 114.178 121.732 114.178 123.312C114.178 124.812 114.428 125.982 114.928 126.822C115.448 127.642 116.178 128.052 117.118 128.052ZM140.105 128.892C140.165 128.892 140.195 128.952 140.195 129.072C140.195 129.192 140.165 129.252 140.105 129.252C139.585 129.252 139.175 129.242 138.875 129.222L137.075 129.192L135.335 129.222C135.015 129.242 134.595 129.252 134.075 129.252C134.015 129.252 133.985 129.192 133.985 129.072C133.985 128.952 134.015 128.892 134.075 128.892C134.695 128.892 135.115 128.752 135.335 128.472C135.555 128.172 135.665 127.622 135.665 126.822V122.502C135.665 121.422 135.465 120.622 135.065 120.102C134.685 119.582 134.075 119.322 133.235 119.322C132.755 119.322 132.255 119.422 131.735 119.622C131.235 119.822 130.795 120.092 130.415 120.432V126.822C130.415 127.622 130.525 128.172 130.745 128.472C130.985 128.752 131.415 128.892 132.035 128.892C132.095 128.892 132.125 128.952 132.125 129.072C132.125 129.192 132.095 129.252 132.035 129.252C131.515 129.252 131.105 129.242 130.805 129.222L129.005 129.192L127.235 129.222C126.935 129.242 126.525 129.252 126.005 129.252C125.945 129.252 125.915 129.192 125.915 129.072C125.915 128.952 125.945 128.892 126.005 128.892C126.625 128.892 127.045 128.752 127.265 128.472C127.485 128.172 127.595 127.622 127.595 126.822V121.182C127.595 120.562 127.515 120.112 127.355 119.832C127.215 119.532 126.985 119.382 126.665 119.382C126.325 119.382 125.845 119.522 125.225 119.802H125.165C125.105 119.802 125.055 119.752 125.015 119.652C124.995 119.552 125.005 119.492 125.045 119.472L129.215 117.432C129.335 117.392 129.405 117.372 129.425 117.372C129.645 117.372 129.855 117.592 130.055 118.032C130.255 118.452 130.375 119.032 130.415 119.772C131.795 118.132 133.315 117.312 134.975 117.312C136.055 117.312 136.905 117.662 137.525 118.362C138.165 119.042 138.485 119.942 138.485 121.062V126.822C138.485 127.622 138.595 128.172 138.815 128.472C139.055 128.752 139.485 128.892 140.105 128.892ZM147.646 129.612C146.326 129.612 145.206 129.332 144.286 128.772C143.386 128.192 142.706 127.452 142.246 126.552C141.806 125.632 141.586 124.672 141.586 123.672C141.586 122.412 141.936 121.312 142.636 120.372C143.336 119.412 144.226 118.682 145.306 118.182C146.406 117.662 147.526 117.402 148.666 117.402C149.626 117.402 150.486 117.602 151.246 118.002C152.026 118.402 152.416 118.952 152.416 119.652C152.416 120.032 152.266 120.362 151.966 120.642C151.686 120.902 151.286 121.032 150.766 121.032C150.286 121.032 149.906 120.912 149.626 120.672C149.346 120.412 149.116 120.022 148.936 119.502C148.756 118.942 148.576 118.562 148.396 118.362C148.236 118.142 147.936 118.032 147.496 118.032C146.636 118.032 145.946 118.462 145.426 119.322C144.926 120.162 144.676 121.282 144.676 122.682C144.676 124.342 145.046 125.672 145.786 126.672C146.526 127.652 147.706 128.142 149.326 128.142C149.866 128.142 150.326 128.082 150.706 127.962C151.106 127.842 151.606 127.642 152.206 127.362H152.236C152.296 127.362 152.346 127.392 152.386 127.452C152.446 127.512 152.456 127.562 152.416 127.602C151.676 128.282 150.936 128.792 150.196 129.132C149.456 129.452 148.606 129.612 147.646 129.612ZM157.42 114.402C156.84 114.402 156.39 114.242 156.07 113.922C155.75 113.602 155.59 113.152 155.59 112.572C155.59 112.052 155.75 111.642 156.07 111.342C156.41 111.022 156.86 110.862 157.42 110.862C157.98 110.862 158.41 111.012 158.71 111.312C159.01 111.612 159.16 112.032 159.16 112.572C159.16 113.152 159.01 113.602 158.71 113.922C158.41 114.242 157.98 114.402 157.42 114.402ZM154.54 129.252C154.48 129.252 154.45 129.192 154.45 129.072C154.45 128.952 154.48 128.892 154.54 128.892C155.16 128.892 155.58 128.752 155.8 128.472C156.02 128.172 156.13 127.622 156.13 126.822V121.452C156.13 120.772 156.06 120.282 155.92 119.982C155.78 119.682 155.55 119.532 155.23 119.532C154.97 119.532 154.6 119.642 154.12 119.862H154.09C154.01 119.862 153.95 119.812 153.91 119.712C153.87 119.592 153.88 119.522 153.94 119.502L158.47 117.402L158.56 117.372C158.66 117.372 158.76 117.422 158.86 117.522C158.96 117.622 159.01 117.712 159.01 117.792V118.452C158.97 119.252 158.95 120.232 158.95 121.392V126.822C158.95 127.622 159.06 128.172 159.28 128.472C159.52 128.752 159.95 128.892 160.57 128.892C160.63 128.892 160.66 128.952 160.66 129.072C160.66 129.192 160.63 129.252 160.57 129.252C160.05 129.252 159.64 129.242 159.34 129.222L157.54 129.192L155.77 129.222C155.47 129.242 155.06 129.252 154.54 129.252ZM164.791 119.112C164.791 119.692 164.991 120.192 165.391 120.612C165.811 121.032 166.411 121.472 167.191 121.932C167.951 122.372 168.511 122.722 168.871 122.982C169.251 123.222 169.591 123.572 169.891 124.032C170.191 124.472 170.341 125.012 170.341 125.652C170.341 126.332 170.171 126.972 169.831 127.572C169.491 128.172 168.981 128.662 168.301 129.042C167.621 129.402 166.811 129.582 165.871 129.582C164.771 129.582 163.731 129.312 162.751 128.772C162.631 128.652 162.571 128.532 162.571 128.412L162.511 125.442C162.511 125.382 162.561 125.352 162.661 125.352C162.781 125.332 162.851 125.342 162.871 125.382C163.191 126.382 163.721 127.232 164.461 127.932C165.201 128.632 165.951 128.982 166.711 128.982C167.131 128.982 167.461 128.852 167.701 128.592C167.961 128.332 168.091 127.952 168.091 127.452C168.091 126.712 167.881 126.132 167.461 125.712C167.041 125.272 166.421 124.822 165.601 124.362C164.901 123.982 164.371 123.672 164.011 123.432C163.651 123.192 163.331 122.852 163.051 122.412C162.771 121.972 162.631 121.432 162.631 120.792C162.631 119.612 163.051 118.752 163.891 118.212C164.731 117.652 165.761 117.372 166.981 117.372C167.441 117.372 167.851 117.402 168.211 117.462C168.591 117.522 169.011 117.642 169.471 117.822C169.651 117.882 169.741 117.992 169.741 118.152C169.741 118.652 169.731 119.042 169.711 119.322L169.681 120.822C169.681 120.882 169.621 120.912 169.501 120.912C169.381 120.912 169.321 120.882 169.321 120.822C169.321 120.442 169.161 120.032 168.841 119.592C168.521 119.132 168.101 118.742 167.581 118.422C167.081 118.102 166.561 117.942 166.021 117.942C165.201 117.942 164.791 118.332 164.791 119.112ZM178.378 129.612C177.058 129.612 175.938 129.332 175.018 128.772C174.118 128.192 173.438 127.452 172.978 126.552C172.538 125.632 172.318 124.672 172.318 123.672C172.318 122.412 172.668 121.312 173.368 120.372C174.068 119.412 174.958 118.682 176.038 118.182C177.138 117.662 178.258 117.402 179.398 117.402C180.358 117.402 181.218 117.602 181.978 118.002C182.758 118.402 183.148 118.952 183.148 119.652C183.148 120.032 182.998 120.362 182.698 120.642C182.418 120.902 182.018 121.032 181.498 121.032C181.018 121.032 180.638 120.912 180.358 120.672C180.078 120.412 179.848 120.022 179.668 119.502C179.488 118.942 179.308 118.562 179.128 118.362C178.968 118.142 178.668 118.032 178.228 118.032C177.368 118.032 176.678 118.462 176.158 119.322C175.658 120.162 175.408 121.282 175.408 122.682C175.408 124.342 175.778 125.672 176.518 126.672C177.258 127.652 178.438 128.142 180.058 128.142C180.598 128.142 181.058 128.082 181.438 127.962C181.838 127.842 182.338 127.642 182.938 127.362H182.968C183.028 127.362 183.078 127.392 183.118 127.452C183.178 127.512 183.188 127.562 183.148 127.602C182.408 128.282 181.668 128.792 180.928 129.132C180.188 129.452 179.338 129.612 178.378 129.612ZM191.037 129.642C189.797 129.642 188.707 129.362 187.767 128.802C186.847 128.222 186.137 127.452 185.637 126.492C185.137 125.512 184.887 124.452 184.887 123.312C184.887 122.012 185.217 120.912 185.877 120.012C186.537 119.092 187.377 118.412 188.397 117.972C189.417 117.512 190.467 117.282 191.547 117.282C192.787 117.282 193.867 117.572 194.787 118.152C195.707 118.732 196.407 119.502 196.887 120.462C197.387 121.402 197.637 122.412 197.637 123.492C197.637 124.692 197.337 125.762 196.737 126.702C196.137 127.622 195.327 128.342 194.307 128.862C193.307 129.382 192.217 129.642 191.037 129.642ZM191.937 129.012C192.717 129.012 193.307 128.632 193.707 127.872C194.127 127.092 194.337 125.982 194.337 124.542C194.337 123.142 194.157 121.942 193.797 120.942C193.437 119.942 192.967 119.192 192.387 118.692C191.807 118.172 191.187 117.912 190.527 117.912C188.927 117.912 188.127 119.342 188.127 122.202C188.127 123.542 188.297 124.732 188.637 125.772C188.977 126.792 189.437 127.592 190.017 128.172C190.597 128.732 191.237 129.012 191.937 129.012ZM201.634 126.072C202.334 126.072 202.874 126.342 203.254 126.882C203.654 127.422 203.854 128.192 203.854 129.192C203.854 130.092 203.654 130.922 203.254 131.682C202.854 132.462 202.254 133.242 201.454 134.022C201.434 134.042 201.404 134.052 201.364 134.052C201.304 134.052 201.254 134.022 201.214 133.962C201.174 133.902 201.174 133.852 201.214 133.812C202.194 132.812 202.684 131.632 202.684 130.272C202.684 129.712 202.584 129.302 202.384 129.042C202.204 129.342 201.834 129.492 201.274 129.492C200.794 129.492 200.404 129.342 200.104 129.042C199.824 128.722 199.684 128.312 199.684 127.812C199.684 127.272 199.854 126.852 200.194 126.552C200.554 126.232 201.034 126.072 201.634 126.072ZM224.916 110.172C225.796 110.172 226.716 110.252 227.676 110.412C228.636 110.552 229.386 110.742 229.926 110.982C230.106 111.042 230.216 111.122 230.256 111.222C230.316 111.302 230.366 111.452 230.406 111.672L230.766 115.842C230.766 115.902 230.716 115.942 230.616 115.962C230.516 115.982 230.456 115.952 230.436 115.872C229.756 114.292 228.846 113.072 227.706 112.212C226.566 111.352 225.246 110.922 223.746 110.922C221.766 110.922 220.236 111.652 219.156 113.112C218.076 114.572 217.536 116.532 217.536 118.992C217.536 120.832 217.826 122.512 218.406 124.032C219.006 125.552 219.836 126.762 220.896 127.662C221.976 128.542 223.196 128.982 224.556 128.982C225.836 128.982 226.976 128.562 227.976 127.722C228.996 126.862 229.906 125.562 230.706 123.822C230.726 123.742 230.786 123.712 230.886 123.732C231.006 123.752 231.066 123.792 231.066 123.852L230.616 127.932C230.576 128.172 230.526 128.332 230.466 128.412C230.426 128.472 230.316 128.542 230.136 128.622C228.356 129.282 226.526 129.612 224.646 129.612C222.206 129.612 220.166 129.132 218.526 128.172C216.886 127.192 215.676 125.962 214.896 124.482C214.136 122.982 213.756 121.422 213.756 119.802C213.756 117.902 214.266 116.222 215.286 114.762C216.326 113.302 217.696 112.172 219.396 111.372C221.116 110.572 222.956 110.172 224.916 110.172ZM253.864 128.892C253.964 128.892 254.014 128.952 254.014 129.072C254.014 129.192 253.964 129.252 253.864 129.252C253.464 129.252 252.844 129.232 252.004 129.192C251.124 129.152 250.494 129.132 250.114 129.132C249.614 129.132 249.004 129.152 248.284 129.192C247.604 129.232 247.064 129.252 246.664 129.252C246.584 129.252 246.544 129.192 246.544 129.072C246.544 128.952 246.584 128.892 246.664 128.892C247.184 128.892 247.554 128.842 247.774 128.742C248.014 128.622 248.134 128.422 248.134 128.142C248.134 127.802 247.934 127.232 247.534 126.432L244.414 120.282H239.074L236.944 124.992C236.684 125.572 236.554 126.112 236.554 126.612C236.554 127.332 236.804 127.892 237.304 128.292C237.824 128.692 238.514 128.892 239.374 128.892C239.474 128.892 239.524 128.952 239.524 129.072C239.524 129.192 239.474 129.252 239.374 129.252C239.014 129.252 238.494 129.232 237.814 129.192C237.054 129.152 236.394 129.132 235.834 129.132C235.294 129.132 234.644 129.152 233.884 129.192C233.204 129.232 232.654 129.252 232.234 129.252C232.154 129.252 232.114 129.192 232.114 129.072C232.114 128.952 232.154 128.892 232.234 128.892C232.794 128.892 233.264 128.782 233.644 128.562C234.024 128.322 234.404 127.912 234.784 127.332C235.164 126.732 235.614 125.852 236.134 124.692L242.644 110.382C242.684 110.322 242.774 110.292 242.914 110.292C243.074 110.292 243.164 110.322 243.184 110.382L250.684 125.142C251.384 126.562 251.964 127.542 252.424 128.082C252.884 128.622 253.364 128.892 253.864 128.892ZM239.464 119.442H243.994L241.594 114.702L239.464 119.442Z" fill="#292E36"/>
<path d="M35.7977 159.238C36.4577 159.238 37.0637 159.328 37.6157 159.508C38.1797 159.676 38.6657 159.934 39.0737 160.282C39.4937 160.618 39.8177 161.038 40.0457 161.542C40.2857 162.034 40.4057 162.61 40.4057 163.27C40.4057 163.786 40.3277 164.29 40.1717 164.782C40.0277 165.274 39.7817 165.724 39.4337 166.132C39.0857 166.528 38.6297 166.852 38.0657 167.104C37.5137 167.344 36.8297 167.464 36.0137 167.464H34.0877V172.252H32.3417V159.238H35.7977ZM35.9777 165.79C36.4937 165.79 36.9197 165.712 37.2557 165.556C37.6037 165.4 37.8737 165.202 38.0657 164.962C38.2577 164.71 38.3957 164.44 38.4797 164.152C38.5637 163.864 38.6057 163.594 38.6057 163.342C38.6057 163.078 38.5577 162.808 38.4617 162.532C38.3777 162.244 38.2337 161.98 38.0297 161.74C37.8377 161.5 37.5797 161.302 37.2557 161.146C36.9437 160.99 36.5597 160.912 36.1037 160.912H34.0877V165.79H35.9777ZM38.1197 166.78L41.5217 172.252H39.5057L36.0497 166.834L38.1197 166.78ZM43.793 164.8H45.467V172.252H43.793V164.8ZM43.667 162.1C43.667 161.836 43.769 161.614 43.973 161.434C44.189 161.254 44.423 161.164 44.675 161.164C44.927 161.164 45.149 161.254 45.341 161.434C45.545 161.614 45.647 161.836 45.647 162.1C45.647 162.376 45.545 162.604 45.341 162.784C45.149 162.952 44.927 163.036 44.675 163.036C44.423 163.036 44.189 162.946 43.973 162.766C43.769 162.586 43.667 162.364 43.667 162.1ZM51.3873 172.468L47.2473 164.8H49.2273L52.0353 170.722L51.0093 170.686L53.5833 164.8H55.4553L51.4773 172.468H51.3873ZM60.538 172.432C59.686 172.432 58.954 172.264 58.342 171.928C57.73 171.58 57.256 171.112 56.92 170.524C56.596 169.924 56.434 169.24 56.434 168.472C56.434 167.74 56.62 167.074 56.992 166.474C57.364 165.874 57.862 165.394 58.486 165.034C59.11 164.674 59.806 164.494 60.574 164.494C61.558 164.494 62.374 164.782 63.022 165.358C63.67 165.934 64.108 166.726 64.336 167.734L58.198 169.894L57.802 168.904L62.842 167.068L62.482 167.302C62.338 166.906 62.098 166.564 61.762 166.276C61.426 165.976 60.988 165.826 60.448 165.826C59.992 165.826 59.584 165.94 59.224 166.168C58.864 166.384 58.582 166.684 58.378 167.068C58.174 167.452 58.072 167.89 58.072 168.382C58.072 168.898 58.18 169.354 58.396 169.75C58.612 170.134 58.906 170.44 59.278 170.668C59.662 170.884 60.094 170.992 60.574 170.992C60.898 170.992 61.21 170.932 61.51 170.812C61.822 170.692 62.11 170.536 62.374 170.344L63.148 171.586C62.776 171.838 62.356 172.042 61.888 172.198C61.432 172.354 60.982 172.432 60.538 172.432ZM67.9276 164.8L68.0896 166.96L67.9996 166.672C68.1916 166.216 68.4676 165.832 68.8276 165.52C69.1996 165.196 69.5836 164.95 69.9796 164.782C70.3876 164.602 70.7416 164.512 71.0416 164.512L70.9516 166.168C70.3876 166.132 69.8896 166.24 69.4576 166.492C69.0376 166.744 68.7016 167.08 68.4496 167.5C68.2096 167.92 68.0896 168.37 68.0896 168.85V172.252H66.4336V164.8H67.9276ZM75.2892 172.396C74.7612 172.396 74.2452 172.306 73.7412 172.126C73.2492 171.934 72.8412 171.652 72.5172 171.28L73.2192 170.308C73.5312 170.608 73.8492 170.836 74.1732 170.992C74.5092 171.136 74.8392 171.208 75.1632 171.208C75.4032 171.208 75.6252 171.178 75.8292 171.118C76.0332 171.058 76.1952 170.962 76.3152 170.83C76.4472 170.686 76.5132 170.494 76.5132 170.254C76.5132 169.99 76.4232 169.78 76.2432 169.624C76.0752 169.468 75.8532 169.342 75.5772 169.246C75.3132 169.15 75.0312 169.06 74.7312 168.976C74.1192 168.772 73.6512 168.49 73.3272 168.13C73.0032 167.77 72.8412 167.332 72.8412 166.816C72.8412 166.42 72.9372 166.054 73.1292 165.718C73.3332 165.37 73.6272 165.088 74.0112 164.872C74.4072 164.656 74.8932 164.548 75.4692 164.548C75.9852 164.548 76.4472 164.614 76.8552 164.746C77.2632 164.866 77.6472 165.07 78.0072 165.358L77.3412 166.402C77.1252 166.174 76.8672 166.006 76.5672 165.898C76.2672 165.79 75.9972 165.73 75.7572 165.718C75.5532 165.706 75.3552 165.736 75.1632 165.808C74.9832 165.88 74.8332 165.982 74.7132 166.114C74.5932 166.246 74.5332 166.402 74.5332 166.582C74.5332 166.834 74.6172 167.038 74.7852 167.194C74.9532 167.35 75.1692 167.476 75.4332 167.572C75.7092 167.656 75.9792 167.746 76.2432 167.842C76.6152 167.95 76.9452 168.094 77.2332 168.274C77.5212 168.454 77.7492 168.676 77.9172 168.94C78.0972 169.204 78.1872 169.534 78.1872 169.93C78.1872 170.374 78.0792 170.788 77.8632 171.172C77.6592 171.544 77.3412 171.844 76.9092 172.072C76.4892 172.288 75.9492 172.396 75.2892 172.396ZM80.5312 164.8H82.2052V172.252H80.5312V164.8ZM80.4052 162.1C80.4052 161.836 80.5072 161.614 80.7112 161.434C80.9272 161.254 81.1612 161.164 81.4132 161.164C81.6652 161.164 81.8872 161.254 82.0792 161.434C82.2832 161.614 82.3852 161.836 82.3852 162.1C82.3852 162.376 82.2832 162.604 82.0792 162.784C81.8872 162.952 81.6652 163.036 81.4132 163.036C81.1612 163.036 80.9272 162.946 80.7112 162.766C80.5072 162.586 80.4052 162.364 80.4052 162.1ZM88.1256 172.432C87.4416 172.432 86.8176 172.27 86.2536 171.946C85.7016 171.61 85.2636 171.142 84.9396 170.542C84.6156 169.93 84.4536 169.228 84.4536 168.436C84.4536 167.608 84.6216 166.9 84.9576 166.312C85.3056 165.724 85.7736 165.274 86.3616 164.962C86.9496 164.65 87.6096 164.494 88.3416 164.494C88.9296 164.494 89.4876 164.62 90.0156 164.872C90.5556 165.124 90.9756 165.472 91.2756 165.916L91.2036 166.51V158.32H92.8596V172.252H91.1856V170.398L91.3656 170.866C91.0176 171.322 90.5676 171.7 90.0156 172C89.4636 172.288 88.8336 172.432 88.1256 172.432ZM88.6476 171.01C89.0916 171.01 89.4876 170.932 89.8356 170.776C90.1836 170.608 90.4716 170.38 90.6996 170.092C90.9276 169.804 91.0896 169.462 91.1856 169.066V167.662C91.0896 167.302 90.9156 166.99 90.6636 166.726C90.4236 166.45 90.1296 166.234 89.7816 166.078C89.4456 165.91 89.0676 165.826 88.6476 165.826C88.1916 165.826 87.7716 165.94 87.3876 166.168C87.0156 166.384 86.7156 166.684 86.4876 167.068C86.2596 167.452 86.1456 167.896 86.1456 168.4C86.1456 168.892 86.2596 169.336 86.4876 169.732C86.7156 170.116 87.0216 170.428 87.4056 170.668C87.7896 170.896 88.2036 171.01 88.6476 171.01ZM99.2275 172.432C98.3755 172.432 97.6435 172.264 97.0315 171.928C96.4195 171.58 95.9455 171.112 95.6095 170.524C95.2855 169.924 95.1235 169.24 95.1235 168.472C95.1235 167.74 95.3095 167.074 95.6815 166.474C96.0535 165.874 96.5515 165.394 97.1755 165.034C97.7995 164.674 98.4955 164.494 99.2635 164.494C100.247 164.494 101.063 164.782 101.711 165.358C102.359 165.934 102.797 166.726 103.025 167.734L96.8875 169.894L96.4915 168.904L101.531 167.068L101.171 167.302C101.027 166.906 100.787 166.564 100.451 166.276C100.115 165.976 99.6775 165.826 99.1375 165.826C98.6815 165.826 98.2735 165.94 97.9135 166.168C97.5535 166.384 97.2715 166.684 97.0675 167.068C96.8635 167.452 96.7615 167.89 96.7615 168.382C96.7615 168.898 96.8695 169.354 97.0855 169.75C97.3015 170.134 97.5955 170.44 97.9675 170.668C98.3515 170.884 98.7835 170.992 99.2635 170.992C99.5875 170.992 99.8995 170.932 100.199 170.812C100.511 170.692 100.799 170.536 101.063 170.344L101.837 171.586C101.465 171.838 101.045 172.042 100.577 172.198C100.121 172.354 99.6715 172.432 99.2275 172.432ZM110.314 172.252C111.082 171.508 111.814 170.776 112.51 170.056C113.206 169.336 113.83 168.64 114.382 167.968C114.946 167.296 115.39 166.648 115.714 166.024C116.038 165.388 116.2 164.776 116.2 164.188C116.2 163.792 116.134 163.456 116.002 163.18C115.87 162.892 115.696 162.658 115.48 162.478C115.276 162.298 115.042 162.166 114.778 162.082C114.514 161.986 114.244 161.938 113.968 161.938C113.572 161.938 113.236 162.004 112.96 162.136C112.684 162.256 112.456 162.418 112.276 162.622C112.108 162.826 111.982 163.042 111.898 163.27C111.826 163.498 111.79 163.726 111.79 163.954C111.79 164.35 111.85 164.71 111.97 165.034C112.09 165.346 112.264 165.622 112.492 165.862L111.412 166.816C111.136 166.636 110.896 166.384 110.692 166.06C110.5 165.736 110.35 165.388 110.242 165.016C110.146 164.632 110.098 164.29 110.098 163.99C110.098 163.342 110.254 162.736 110.566 162.172C110.89 161.596 111.358 161.134 111.97 160.786C112.594 160.438 113.35 160.264 114.238 160.264C114.994 160.264 115.654 160.438 116.218 160.786C116.782 161.134 117.22 161.596 117.532 162.172C117.844 162.736 118 163.36 118 164.044C118 164.644 117.88 165.232 117.64 165.808C117.4 166.384 117.076 166.954 116.668 167.518C116.272 168.082 115.828 168.64 115.336 169.192C114.856 169.732 114.376 170.278 113.896 170.83L113.14 170.578H118.396V172.252H110.314ZM123.579 172.396C122.943 172.396 122.331 172.282 121.743 172.054C121.167 171.826 120.699 171.532 120.339 171.172L121.275 169.822C121.515 170.098 121.833 170.32 122.229 170.488C122.637 170.656 123.039 170.74 123.435 170.74C123.879 170.74 124.269 170.644 124.605 170.452C124.953 170.248 125.223 169.978 125.415 169.642C125.607 169.294 125.703 168.898 125.703 168.454C125.703 167.974 125.613 167.548 125.433 167.176C125.265 166.804 125.007 166.516 124.659 166.312C124.323 166.096 123.897 165.988 123.381 165.988C122.961 165.988 122.571 166.048 122.211 166.168C121.851 166.276 121.479 166.444 121.095 166.672H121.077V160.408H126.747V162.082H122.589V165.106L122.355 164.746C122.559 164.674 122.787 164.62 123.039 164.584C123.303 164.536 123.555 164.512 123.795 164.512C124.599 164.512 125.271 164.692 125.811 165.052C126.363 165.4 126.777 165.868 127.053 166.456C127.341 167.044 127.485 167.692 127.485 168.4C127.485 169.144 127.317 169.822 126.981 170.434C126.645 171.034 126.183 171.514 125.595 171.874C125.007 172.222 124.335 172.396 123.579 172.396ZM131.561 170.686C131.297 171.31 131.033 171.928 130.769 172.54C130.517 173.164 130.259 173.794 129.995 174.43H128.645C128.885 173.794 129.119 173.164 129.347 172.54C129.575 171.928 129.809 171.31 130.049 170.686H131.561ZM146.546 161.56C146.102 161.332 145.616 161.134 145.088 160.966C144.56 160.798 144.044 160.714 143.54 160.714C142.844 160.714 142.286 160.876 141.866 161.2C141.458 161.524 141.254 161.956 141.254 162.496C141.254 162.904 141.386 163.252 141.65 163.54C141.914 163.816 142.262 164.056 142.694 164.26C143.126 164.464 143.576 164.656 144.044 164.836C144.452 164.992 144.854 165.166 145.25 165.358C145.646 165.55 146 165.79 146.312 166.078C146.636 166.366 146.888 166.72 147.068 167.14C147.26 167.56 147.356 168.082 147.356 168.706C147.356 169.39 147.182 170.014 146.834 170.578C146.498 171.142 146.012 171.586 145.376 171.91C144.74 172.234 143.984 172.396 143.108 172.396C142.532 172.396 141.98 172.33 141.452 172.198C140.936 172.066 140.456 171.898 140.012 171.694C139.568 171.478 139.172 171.256 138.824 171.028L139.598 169.66C139.886 169.864 140.216 170.062 140.588 170.254C140.96 170.434 141.35 170.584 141.758 170.704C142.166 170.812 142.562 170.866 142.946 170.866C143.354 170.866 143.756 170.794 144.152 170.65C144.56 170.494 144.896 170.26 145.16 169.948C145.424 169.636 145.556 169.222 145.556 168.706C145.556 168.262 145.436 167.896 145.196 167.608C144.968 167.308 144.662 167.056 144.278 166.852C143.894 166.636 143.486 166.444 143.054 166.276C142.646 166.12 142.232 165.952 141.812 165.772C141.392 165.58 141.002 165.352 140.642 165.088C140.282 164.812 139.994 164.476 139.778 164.08C139.562 163.684 139.454 163.204 139.454 162.64C139.454 161.956 139.616 161.362 139.94 160.858C140.276 160.342 140.732 159.94 141.308 159.652C141.884 159.352 142.544 159.19 143.288 159.166C144.128 159.166 144.866 159.268 145.502 159.472C146.15 159.676 146.72 159.928 147.212 160.228L146.546 161.56ZM152.973 172.432C152.277 172.432 151.641 172.282 151.065 171.982C150.501 171.682 150.051 171.244 149.715 170.668C149.391 170.08 149.229 169.366 149.229 168.526C149.229 167.698 149.403 166.984 149.751 166.384C150.099 165.772 150.561 165.304 151.137 164.98C151.725 164.656 152.367 164.494 153.063 164.494C153.759 164.494 154.347 164.656 154.827 164.98C155.307 165.292 155.673 165.664 155.925 166.096L155.817 166.384L155.979 164.8H157.527V172.252H155.853V170.308L156.033 170.74C155.985 170.86 155.877 171.016 155.709 171.208C155.553 171.388 155.337 171.574 155.061 171.766C154.797 171.958 154.491 172.12 154.143 172.252C153.795 172.372 153.405 172.432 152.973 172.432ZM153.423 171.046C153.843 171.046 154.221 170.968 154.557 170.812C154.893 170.656 155.169 170.44 155.385 170.164C155.613 169.876 155.769 169.534 155.853 169.138V167.68C155.757 167.32 155.589 167.008 155.349 166.744C155.109 166.468 154.821 166.258 154.485 166.114C154.149 165.958 153.777 165.88 153.369 165.88C152.925 165.88 152.517 165.988 152.145 166.204C151.773 166.42 151.473 166.72 151.245 167.104C151.029 167.488 150.921 167.938 150.921 168.454C150.921 168.934 151.035 169.372 151.263 169.768C151.491 170.164 151.797 170.476 152.181 170.704C152.565 170.932 152.979 171.046 153.423 171.046ZM161.918 164.8L162.062 166.618L161.99 166.33C162.23 165.778 162.62 165.34 163.16 165.016C163.7 164.68 164.324 164.512 165.032 164.512C165.74 164.512 166.316 164.722 166.76 165.142C167.216 165.55 167.45 166.084 167.462 166.744V172.252H165.77V167.338C165.758 166.93 165.638 166.6 165.41 166.348C165.194 166.084 164.852 165.952 164.384 165.952C163.952 165.952 163.562 166.072 163.214 166.312C162.866 166.552 162.59 166.882 162.386 167.302C162.194 167.722 162.098 168.208 162.098 168.76V172.252H160.424V164.8H161.918ZM176.482 159.238H184.204V160.912H178.228V165.07H183.466V166.726H178.228V172.252H176.482V159.238ZM187.793 164.8L187.955 166.96L187.865 166.672C188.057 166.216 188.333 165.832 188.693 165.52C189.065 165.196 189.449 164.95 189.845 164.782C190.253 164.602 190.607 164.512 190.907 164.512L190.817 166.168C190.253 166.132 189.755 166.24 189.323 166.492C188.903 166.744 188.567 167.08 188.315 167.5C188.075 167.92 187.955 168.37 187.955 168.85V172.252H186.299V164.8H187.793ZM195.987 172.432C195.291 172.432 194.655 172.282 194.079 171.982C193.515 171.682 193.065 171.244 192.729 170.668C192.405 170.08 192.243 169.366 192.243 168.526C192.243 167.698 192.417 166.984 192.765 166.384C193.113 165.772 193.575 165.304 194.151 164.98C194.739 164.656 195.381 164.494 196.077 164.494C196.773 164.494 197.361 164.656 197.841 164.98C198.321 165.292 198.687 165.664 198.939 166.096L198.831 166.384L198.993 164.8H200.541V172.252H198.867V170.308L199.047 170.74C198.999 170.86 198.891 171.016 198.723 171.208C198.567 171.388 198.351 171.574 198.075 171.766C197.811 171.958 197.505 172.12 197.157 172.252C196.809 172.372 196.419 172.432 195.987 172.432ZM196.437 171.046C196.857 171.046 197.235 170.968 197.571 170.812C197.907 170.656 198.183 170.44 198.399 170.164C198.627 169.876 198.783 169.534 198.867 169.138V167.68C198.771 167.32 198.603 167.008 198.363 166.744C198.123 166.468 197.835 166.258 197.499 166.114C197.163 165.958 196.791 165.88 196.383 165.88C195.939 165.88 195.531 165.988 195.159 166.204C194.787 166.42 194.487 166.72 194.259 167.104C194.043 167.488 193.935 167.938 193.935 168.454C193.935 168.934 194.049 169.372 194.277 169.768C194.505 170.164 194.811 170.476 195.195 170.704C195.579 170.932 195.993 171.046 196.437 171.046ZM204.931 164.8L205.075 166.618L205.003 166.33C205.243 165.778 205.633 165.34 206.173 165.016C206.713 164.68 207.337 164.512 208.045 164.512C208.753 164.512 209.329 164.722 209.773 165.142C210.229 165.55 210.463 166.084 210.475 166.744V172.252H208.783V167.338C208.771 166.93 208.651 166.6 208.423 166.348C208.207 166.084 207.865 165.952 207.397 165.952C206.965 165.952 206.575 166.072 206.227 166.312C205.879 166.552 205.603 166.882 205.399 167.302C205.207 167.722 205.111 168.208 205.111 168.76V172.252H203.437V164.8H204.931ZM219.435 171.568C219.099 171.832 218.697 172.042 218.229 172.198C217.761 172.354 217.293 172.432 216.825 172.432C216.009 172.432 215.295 172.27 214.683 171.946C214.071 171.622 213.591 171.172 213.243 170.596C212.907 170.008 212.739 169.318 212.739 168.526C212.739 167.734 212.919 167.044 213.279 166.456C213.651 165.868 214.131 165.418 214.719 165.106C215.319 164.782 215.961 164.62 216.645 164.62C217.245 164.62 217.779 164.704 218.247 164.872C218.727 165.04 219.135 165.268 219.471 165.556L218.643 166.636C218.427 166.468 218.163 166.318 217.851 166.186C217.539 166.054 217.185 165.988 216.789 165.988C216.357 165.988 215.955 166.102 215.583 166.33C215.223 166.546 214.935 166.846 214.719 167.23C214.515 167.614 214.413 168.046 214.413 168.526C214.413 168.982 214.521 169.408 214.737 169.804C214.953 170.188 215.253 170.494 215.637 170.722C216.021 170.938 216.459 171.046 216.951 171.046C217.275 171.046 217.569 170.998 217.833 170.902C218.109 170.806 218.355 170.674 218.571 170.506L219.435 171.568ZM221.596 164.8H223.27V172.252H221.596V164.8ZM221.47 162.1C221.47 161.836 221.572 161.614 221.776 161.434C221.992 161.254 222.226 161.164 222.478 161.164C222.73 161.164 222.952 161.254 223.144 161.434C223.348 161.614 223.45 161.836 223.45 162.1C223.45 162.376 223.348 162.604 223.144 162.784C222.952 162.952 222.73 163.036 222.478 163.036C222.226 163.036 221.992 162.946 221.776 162.766C221.572 162.586 221.47 162.364 221.47 162.1ZM228.254 172.396C227.726 172.396 227.21 172.306 226.706 172.126C226.214 171.934 225.806 171.652 225.482 171.28L226.184 170.308C226.496 170.608 226.814 170.836 227.138 170.992C227.474 171.136 227.804 171.208 228.128 171.208C228.368 171.208 228.59 171.178 228.794 171.118C228.998 171.058 229.16 170.962 229.28 170.83C229.412 170.686 229.478 170.494 229.478 170.254C229.478 169.99 229.388 169.78 229.208 169.624C229.04 169.468 228.818 169.342 228.542 169.246C228.278 169.15 227.996 169.06 227.696 168.976C227.084 168.772 226.616 168.49 226.292 168.13C225.968 167.77 225.806 167.332 225.806 166.816C225.806 166.42 225.902 166.054 226.094 165.718C226.298 165.37 226.592 165.088 226.976 164.872C227.372 164.656 227.858 164.548 228.434 164.548C228.95 164.548 229.412 164.614 229.82 164.746C230.228 164.866 230.612 165.07 230.972 165.358L230.306 166.402C230.09 166.174 229.832 166.006 229.532 165.898C229.232 165.79 228.962 165.73 228.722 165.718C228.518 165.706 228.32 165.736 228.128 165.808C227.948 165.88 227.798 165.982 227.678 166.114C227.558 166.246 227.498 166.402 227.498 166.582C227.498 166.834 227.582 167.038 227.75 167.194C227.918 167.35 228.134 167.476 228.398 167.572C228.674 167.656 228.944 167.746 229.208 167.842C229.58 167.95 229.91 168.094 230.198 168.274C230.486 168.454 230.714 168.676 230.882 168.94C231.062 169.204 231.152 169.534 231.152 169.93C231.152 170.374 231.044 170.788 230.828 171.172C230.624 171.544 230.306 171.844 229.874 172.072C229.454 172.288 228.914 172.396 228.254 172.396ZM239.544 171.568C239.208 171.832 238.806 172.042 238.338 172.198C237.87 172.354 237.402 172.432 236.934 172.432C236.118 172.432 235.404 172.27 234.792 171.946C234.18 171.622 233.7 171.172 233.352 170.596C233.016 170.008 232.848 169.318 232.848 168.526C232.848 167.734 233.028 167.044 233.388 166.456C233.76 165.868 234.24 165.418 234.828 165.106C235.428 164.782 236.07 164.62 236.754 164.62C237.354 164.62 237.888 164.704 238.356 164.872C238.836 165.04 239.244 165.268 239.58 165.556L238.752 166.636C238.536 166.468 238.272 166.318 237.96 166.186C237.648 166.054 237.294 165.988 236.898 165.988C236.466 165.988 236.064 166.102 235.692 166.33C235.332 166.546 235.044 166.846 234.828 167.23C234.624 167.614 234.522 168.046 234.522 168.526C234.522 168.982 234.63 169.408 234.846 169.804C235.062 170.188 235.362 170.494 235.746 170.722C236.13 170.938 236.568 171.046 237.06 171.046C237.384 171.046 237.678 170.998 237.942 170.902C238.218 170.806 238.464 170.674 238.68 170.506L239.544 171.568ZM241.057 168.454C241.057 167.71 241.231 167.038 241.579 166.438C241.939 165.838 242.431 165.364 243.055 165.016C243.679 164.668 244.387 164.494 245.179 164.494C245.995 164.494 246.709 164.668 247.321 165.016C247.933 165.364 248.407 165.838 248.743 166.438C249.079 167.038 249.247 167.71 249.247 168.454C249.247 169.198 249.079 169.876 248.743 170.488C248.407 171.088 247.927 171.562 247.303 171.91C246.691 172.258 245.977 172.432 245.161 172.432C244.369 172.432 243.661 172.27 243.037 171.946C242.425 171.61 241.939 171.148 241.579 170.56C241.231 169.96 241.057 169.258 241.057 168.454ZM242.731 168.472C242.731 168.952 242.839 169.39 243.055 169.786C243.271 170.17 243.559 170.476 243.919 170.704C244.291 170.932 244.699 171.046 245.143 171.046C245.611 171.046 246.025 170.932 246.385 170.704C246.757 170.476 247.045 170.17 247.249 169.786C247.453 169.39 247.555 168.952 247.555 168.472C247.555 167.992 247.453 167.56 247.249 167.176C247.045 166.78 246.757 166.468 246.385 166.24C246.025 166 245.611 165.88 245.143 165.88C244.687 165.88 244.273 166 243.901 166.24C243.541 166.48 243.253 166.798 243.037 167.194C242.833 167.578 242.731 168.004 242.731 168.472ZM41.8997 194.28C41.6837 194.424 41.3897 194.586 41.0177 194.766C40.6457 194.946 40.2077 195.096 39.7037 195.216C39.2117 195.336 38.6717 195.396 38.0837 195.396C37.0757 195.384 36.1637 195.204 35.3477 194.856C34.5437 194.508 33.8597 194.034 33.2957 193.434C32.7317 192.834 32.2937 192.144 31.9817 191.364C31.6817 190.572 31.5317 189.732 31.5317 188.844C31.5317 187.872 31.6877 186.978 31.9997 186.162C32.3237 185.334 32.7737 184.62 33.3497 184.02C33.9257 183.408 34.6037 182.934 35.3837 182.598C36.1757 182.262 37.0397 182.094 37.9757 182.094C38.7557 182.094 39.4637 182.202 40.0997 182.418C40.7357 182.622 41.2817 182.868 41.7377 183.156L41.0357 184.776C40.6757 184.536 40.2377 184.308 39.7217 184.092C39.2177 183.876 38.6537 183.768 38.0297 183.768C37.3937 183.768 36.7937 183.894 36.2297 184.146C35.6657 184.398 35.1677 184.752 34.7357 185.208C34.3037 185.664 33.9617 186.198 33.7097 186.81C33.4697 187.41 33.3497 188.058 33.3497 188.754C33.3497 189.462 33.4577 190.122 33.6737 190.734C33.9017 191.334 34.2197 191.856 34.6277 192.3C35.0477 192.744 35.5517 193.092 36.1397 193.344C36.7277 193.596 37.3877 193.722 38.1197 193.722C38.7797 193.722 39.3677 193.62 39.8837 193.416C40.3997 193.212 40.8257 192.984 41.1617 192.732L41.8997 194.28ZM47.5218 195.432C46.8258 195.432 46.1898 195.282 45.6138 194.982C45.0498 194.682 44.5998 194.244 44.2638 193.668C43.9398 193.08 43.7778 192.366 43.7778 191.526C43.7778 190.698 43.9518 189.984 44.2998 189.384C44.6478 188.772 45.1098 188.304 45.6858 187.98C46.2738 187.656 46.9158 187.494 47.6118 187.494C48.3078 187.494 48.8958 187.656 49.3758 187.98C49.8558 188.292 50.2218 188.664 50.4738 189.096L50.3658 189.384L50.5278 187.8H52.0758V195.252H50.4018V193.308L50.5818 193.74C50.5338 193.86 50.4258 194.016 50.2578 194.208C50.1018 194.388 49.8858 194.574 49.6098 194.766C49.3458 194.958 49.0398 195.12 48.6918 195.252C48.3438 195.372 47.9538 195.432 47.5218 195.432ZM47.9718 194.046C48.3918 194.046 48.7698 193.968 49.1058 193.812C49.4418 193.656 49.7178 193.44 49.9338 193.164C50.1618 192.876 50.3178 192.534 50.4018 192.138V190.68C50.3058 190.32 50.1378 190.008 49.8978 189.744C49.6578 189.468 49.3698 189.258 49.0338 189.114C48.6978 188.958 48.3258 188.88 47.9178 188.88C47.4738 188.88 47.0658 188.988 46.6938 189.204C46.3218 189.42 46.0218 189.72 45.7938 190.104C45.5778 190.488 45.4698 190.938 45.4698 191.454C45.4698 191.934 45.5838 192.372 45.8118 192.768C46.0398 193.164 46.3458 193.476 46.7298 193.704C47.1138 193.932 47.5278 194.046 47.9718 194.046ZM54.9726 181.32H56.6466V195.252H54.9726V181.32ZM59.543 187.8H61.217V195.252H59.543V187.8ZM59.417 185.1C59.417 184.836 59.519 184.614 59.723 184.434C59.939 184.254 60.173 184.164 60.425 184.164C60.677 184.164 60.899 184.254 61.091 184.434C61.295 184.614 61.397 184.836 61.397 185.1C61.397 185.376 61.295 185.604 61.091 185.784C60.899 185.952 60.677 186.036 60.425 186.036C60.173 186.036 59.939 185.946 59.723 185.766C59.519 185.586 59.417 185.364 59.417 185.1ZM64.7253 195.252V189.294H63.4473V187.8H64.7253V184.65C64.7253 183.57 64.9653 182.742 65.4453 182.166C65.9373 181.59 66.6573 181.302 67.6053 181.302C67.8573 181.302 68.1333 181.338 68.4333 181.41C68.7453 181.482 69.0153 181.602 69.2433 181.77L68.5413 182.976C68.4333 182.868 68.3133 182.796 68.1813 182.76C68.0493 182.712 67.9173 182.688 67.7853 182.688C67.3413 182.688 66.9993 182.838 66.7593 183.138C66.5193 183.438 66.3993 183.948 66.3993 184.668V187.8H68.7573V189.294H66.3993V195.252H64.7253ZM69.8813 191.454C69.8813 190.71 70.0553 190.038 70.4033 189.438C70.7633 188.838 71.2553 188.364 71.8793 188.016C72.5033 187.668 73.2113 187.494 74.0033 187.494C74.8193 187.494 75.5333 187.668 76.1453 188.016C76.7573 188.364 77.2313 188.838 77.5673 189.438C77.9033 190.038 78.0713 190.71 78.0713 191.454C78.0713 192.198 77.9033 192.876 77.5673 193.488C77.2313 194.088 76.7513 194.562 76.1273 194.91C75.5153 195.258 74.8013 195.432 73.9853 195.432C73.1933 195.432 72.4853 195.27 71.8613 194.946C71.2493 194.61 70.7633 194.148 70.4033 193.56C70.0553 192.96 69.8813 192.258 69.8813 191.454ZM71.5553 191.472C71.5553 191.952 71.6633 192.39 71.8793 192.786C72.0953 193.17 72.3833 193.476 72.7433 193.704C73.1153 193.932 73.5233 194.046 73.9673 194.046C74.4353 194.046 74.8493 193.932 75.2093 193.704C75.5813 193.476 75.8693 193.17 76.0733 192.786C76.2773 192.39 76.3793 191.952 76.3793 191.472C76.3793 190.992 76.2773 190.56 76.0733 190.176C75.8693 189.78 75.5813 189.468 75.2093 189.24C74.8493 189 74.4353 188.88 73.9673 188.88C73.5113 188.88 73.0973 189 72.7253 189.24C72.3653 189.48 72.0773 189.798 71.8613 190.194C71.6573 190.578 71.5553 191.004 71.5553 191.472ZM81.8319 187.8L81.9939 189.96L81.9039 189.672C82.0959 189.216 82.3719 188.832 82.7319 188.52C83.1039 188.196 83.4879 187.95 83.8839 187.782C84.2919 187.602 84.6459 187.512 84.9459 187.512L84.8559 189.168C84.2919 189.132 83.7939 189.24 83.3619 189.492C82.9419 189.744 82.6059 190.08 82.3539 190.5C82.1139 190.92 81.9939 191.37 81.9939 191.85V195.252H80.3379V187.8H81.8319ZM88.5995 187.8L88.7435 189.618L88.6715 189.33C88.9115 188.778 89.3015 188.34 89.8415 188.016C90.3815 187.68 91.0055 187.512 91.7135 187.512C92.4215 187.512 92.9975 187.722 93.4415 188.142C93.8975 188.55 94.1315 189.084 94.1435 189.744V195.252H92.4515V190.338C92.4395 189.93 92.3195 189.6 92.0915 189.348C91.8755 189.084 91.5335 188.952 91.0655 188.952C90.6335 188.952 90.2435 189.072 89.8955 189.312C89.5475 189.552 89.2715 189.882 89.0675 190.302C88.8755 190.722 88.7795 191.208 88.7795 191.76V195.252H87.1055V187.8H88.5995ZM97.0547 187.8H98.7287V195.252H97.0547V187.8ZM96.9287 185.1C96.9287 184.836 97.0307 184.614 97.2347 184.434C97.4507 184.254 97.6847 184.164 97.9367 184.164C98.1887 184.164 98.4107 184.254 98.6027 184.434C98.8067 184.614 98.9087 184.836 98.9087 185.1C98.9087 185.376 98.8067 185.604 98.6027 185.784C98.4107 185.952 98.1887 186.036 97.9367 186.036C97.6847 186.036 97.4507 185.946 97.2347 185.766C97.0307 185.586 96.9287 185.364 96.9287 185.1ZM104.721 195.432C104.025 195.432 103.389 195.282 102.813 194.982C102.249 194.682 101.799 194.244 101.463 193.668C101.139 193.08 100.977 192.366 100.977 191.526C100.977 190.698 101.151 189.984 101.499 189.384C101.847 188.772 102.309 188.304 102.885 187.98C103.473 187.656 104.115 187.494 104.811 187.494C105.507 187.494 106.095 187.656 106.575 187.98C107.055 188.292 107.421 188.664 107.673 189.096L107.565 189.384L107.727 187.8H109.275V195.252H107.601V193.308L107.781 193.74C107.733 193.86 107.625 194.016 107.457 194.208C107.301 194.388 107.085 194.574 106.809 194.766C106.545 194.958 106.239 195.12 105.891 195.252C105.543 195.372 105.153 195.432 104.721 195.432ZM105.171 194.046C105.591 194.046 105.969 193.968 106.305 193.812C106.641 193.656 106.917 193.44 107.133 193.164C107.361 192.876 107.517 192.534 107.601 192.138V190.68C107.505 190.32 107.337 190.008 107.097 189.744C106.857 189.468 106.569 189.258 106.233 189.114C105.897 188.958 105.525 188.88 105.117 188.88C104.673 188.88 104.265 188.988 103.893 189.204C103.521 189.42 103.221 189.72 102.993 190.104C102.777 190.488 102.669 190.938 102.669 191.454C102.669 191.934 102.783 192.372 103.011 192.768C103.239 193.164 103.545 193.476 103.929 193.704C104.313 193.932 104.727 194.046 105.171 194.046Z" fill="#4A4A4A"/>
<path d="M34.2381 243.1L42.717 249.694L51.1958 243.1M32.825 239.331H52.609C53.9097 239.331 54.9642 240.386 54.9642 241.687V255.818C54.9642 257.119 53.9097 258.173 52.609 258.173H32.825C31.5242 258.173 30.4697 257.119 30.4697 255.818V241.687C30.4697 240.386 31.5242 239.331 32.825 239.331Z" stroke="#E1B168" stroke-width="2.1" stroke-linecap="round" stroke-linejoin="round"/>
<path d="M72.3507 252.568C72.0147 252.832 71.6127 253.042 71.1447 253.198C70.6767 253.354 70.2087 253.432 69.7407 253.432C68.9247 253.432 68.2107 253.27 67.5987 252.946C66.9867 252.622 66.5067 252.172 66.1587 251.596C65.8227 251.008 65.6547 250.318 65.6547 249.526C65.6547 248.734 65.8347 248.044 66.1947 247.456C66.5667 246.868 67.0467 246.418 67.6347 246.106C68.2347 245.782 68.8767 245.62 69.5607 245.62C70.1607 245.62 70.6947 245.704 71.1627 245.872C71.6427 246.04 72.0507 246.268 72.3867 246.556L71.5587 247.636C71.3427 247.468 71.0787 247.318 70.7667 247.186C70.4547 247.054 70.1007 246.988 69.7047 246.988C69.2727 246.988 68.8707 247.102 68.4987 247.33C68.1387 247.546 67.8507 247.846 67.6347 248.23C67.4307 248.614 67.3287 249.046 67.3287 249.526C67.3287 249.982 67.4367 250.408 67.6527 250.804C67.8687 251.188 68.1687 251.494 68.5527 251.722C68.9367 251.938 69.3747 252.046 69.8667 252.046C70.1907 252.046 70.4847 251.998 70.7487 251.902C71.0247 251.806 71.2707 251.674 71.4867 251.506L72.3507 252.568ZM73.8637 249.454C73.8637 248.71 74.0377 248.038 74.3857 247.438C74.7457 246.838 75.2377 246.364 75.8617 246.016C76.4857 245.668 77.1937 245.494 77.9857 245.494C78.8017 245.494 79.5157 245.668 80.1277 246.016C80.7397 246.364 81.2137 246.838 81.5497 247.438C81.8857 248.038 82.0537 248.71 82.0537 249.454C82.0537 250.198 81.8857 250.876 81.5497 251.488C81.2137 252.088 80.7337 252.562 80.1097 252.91C79.4977 253.258 78.7837 253.432 77.9677 253.432C77.1757 253.432 76.4677 253.27 75.8437 252.946C75.2317 252.61 74.7457 252.148 74.3857 251.56C74.0377 250.96 73.8637 250.258 73.8637 249.454ZM75.5377 249.472C75.5377 249.952 75.6457 250.39 75.8617 250.786C76.0777 251.17 76.3657 251.476 76.7257 251.704C77.0977 251.932 77.5057 252.046 77.9497 252.046C78.4177 252.046 78.8317 251.932 79.1917 251.704C79.5637 251.476 79.8517 251.17 80.0557 250.786C80.2597 250.39 80.3617 249.952 80.3617 249.472C80.3617 248.992 80.2597 248.56 80.0557 248.176C79.8517 247.78 79.5637 247.468 79.1917 247.24C78.8317 247 78.4177 246.88 77.9497 246.88C77.4937 246.88 77.0797 247 76.7077 247.24C76.3477 247.48 76.0597 247.798 75.8437 248.194C75.6397 248.578 75.5377 249.004 75.5377 249.472ZM85.8143 245.8L85.9583 247.618L85.8863 247.33C86.1263 246.778 86.5163 246.34 87.0563 246.016C87.5963 245.68 88.2203 245.512 88.9283 245.512C89.6363 245.512 90.2123 245.722 90.6563 246.142C91.1123 246.55 91.3463 247.084 91.3583 247.744V253.252H89.6663V248.338C89.6543 247.93 89.5343 247.6 89.3063 247.348C89.0903 247.084 88.7483 246.952 88.2803 246.952C87.8483 246.952 87.4583 247.072 87.1103 247.312C86.7623 247.552 86.4863 247.882 86.2823 248.302C86.0903 248.722 85.9943 249.208 85.9943 249.76V253.252H84.3203V245.8H85.8143ZM94.9895 242.524H96.6635V245.836H98.7155V247.15H96.6635V253.252H94.9895V247.15H93.6215V245.836H94.9895V242.524ZM103.834 253.432C103.138 253.432 102.502 253.282 101.926 252.982C101.362 252.682 100.912 252.244 100.576 251.668C100.252 251.08 100.09 250.366 100.09 249.526C100.09 248.698 100.264 247.984 100.612 247.384C100.96 246.772 101.422 246.304 101.998 245.98C102.586 245.656 103.228 245.494 103.924 245.494C104.62 245.494 105.208 245.656 105.688 245.98C106.168 246.292 106.534 246.664 106.786 247.096L106.678 247.384L106.84 245.8H108.388V253.252H106.714V251.308L106.894 251.74C106.846 251.86 106.738 252.016 106.57 252.208C106.414 252.388 106.198 252.574 105.922 252.766C105.658 252.958 105.352 253.12 105.004 253.252C104.656 253.372 104.266 253.432 103.834 253.432ZM104.284 252.046C104.704 252.046 105.082 251.968 105.418 251.812C105.754 251.656 106.03 251.44 106.246 251.164C106.474 250.876 106.63 250.534 106.714 250.138V248.68C106.618 248.32 106.45 248.008 106.21 247.744C105.97 247.468 105.682 247.258 105.346 247.114C105.01 246.958 104.638 246.88 104.23 246.88C103.786 246.88 103.378 246.988 103.006 247.204C102.634 247.42 102.334 247.72 102.106 248.104C101.89 248.488 101.782 248.938 101.782 249.454C101.782 249.934 101.896 250.372 102.124 250.768C102.352 251.164 102.658 251.476 103.042 251.704C103.426 251.932 103.84 252.046 104.284 252.046ZM117.333 252.568C116.997 252.832 116.595 253.042 116.127 253.198C115.659 253.354 115.191 253.432 114.723 253.432C113.907 253.432 113.193 253.27 112.581 252.946C111.969 252.622 111.489 252.172 111.141 251.596C110.805 251.008 110.637 250.318 110.637 249.526C110.637 248.734 110.817 248.044 111.177 247.456C111.549 246.868 112.029 246.418 112.617 246.106C113.217 245.782 113.859 245.62 114.543 245.62C115.143 245.62 115.677 245.704 116.145 245.872C116.625 246.04 117.033 246.268 117.369 246.556L116.541 247.636C116.325 247.468 116.061 247.318 115.749 247.186C115.437 247.054 115.083 246.988 114.687 246.988C114.255 246.988 113.853 247.102 113.481 247.33C113.121 247.546 112.833 247.846 112.617 248.23C112.413 248.614 112.311 249.046 112.311 249.526C112.311 249.982 112.419 250.408 112.635 250.804C112.851 251.188 113.151 251.494 113.535 251.722C113.919 251.938 114.357 252.046 114.849 252.046C115.173 252.046 115.467 251.998 115.731 251.902C116.007 251.806 116.253 251.674 116.469 251.506L117.333 252.568ZM120.214 242.524H121.888V245.836H123.94V247.15H121.888V253.252H120.214V247.15H118.846V245.836H120.214V242.524ZM132.371 257.194C131.387 257.194 130.463 257.05 129.599 256.762C128.747 256.474 127.997 256.042 127.349 255.466C126.701 254.902 126.197 254.194 125.837 253.342C125.489 252.49 125.315 251.494 125.315 250.354C125.315 249.622 125.429 248.86 125.657 248.068C125.885 247.264 126.239 246.484 126.719 245.728C127.211 244.96 127.841 244.27 128.609 243.658C129.389 243.046 130.325 242.56 131.417 242.2C132.509 241.828 133.769 241.642 135.197 241.642C136.301 241.642 137.279 241.804 138.131 242.128C138.995 242.452 139.727 242.908 140.327 243.496C140.939 244.072 141.401 244.744 141.713 245.512C142.025 246.28 142.181 247.108 142.181 247.996C142.181 248.716 142.073 249.406 141.857 250.066C141.641 250.714 141.335 251.29 140.939 251.794C140.555 252.286 140.093 252.682 139.553 252.982C139.013 253.27 138.419 253.414 137.771 253.414C137.291 253.414 136.877 253.3 136.529 253.072C136.193 252.832 135.953 252.502 135.809 252.082C135.665 251.662 135.641 251.182 135.737 250.642L136.025 251.416C135.833 251.728 135.551 252.04 135.179 252.352C134.819 252.664 134.411 252.922 133.955 253.126C133.499 253.33 133.025 253.432 132.533 253.432C131.885 253.432 131.303 253.294 130.787 253.018C130.271 252.73 129.863 252.328 129.563 251.812C129.275 251.296 129.137 250.684 129.149 249.976C129.149 249.148 129.329 248.398 129.689 247.726C130.061 247.042 130.571 246.502 131.219 246.106C131.867 245.698 132.605 245.494 133.433 245.494C133.961 245.494 134.405 245.566 134.765 245.71C135.125 245.854 135.419 246.046 135.647 246.286C135.887 246.526 136.073 246.796 136.205 247.096L136.529 245.8H138.113L137.429 250.66C137.405 250.876 137.405 251.08 137.429 251.272C137.465 251.452 137.543 251.596 137.663 251.704C137.783 251.812 137.957 251.866 138.185 251.866C138.485 251.866 138.779 251.77 139.067 251.578C139.355 251.374 139.613 251.098 139.841 250.75C140.081 250.39 140.267 249.976 140.399 249.508C140.543 249.04 140.615 248.536 140.615 247.996C140.615 247.072 140.393 246.232 139.949 245.476C139.517 244.72 138.881 244.114 138.041 243.658C137.201 243.202 136.175 242.974 134.963 242.974C133.679 242.974 132.575 243.154 131.651 243.514C130.727 243.862 129.953 244.324 129.329 244.9C128.717 245.464 128.225 246.076 127.853 246.736C127.493 247.396 127.229 248.038 127.061 248.662C126.905 249.286 126.827 249.832 126.827 250.3C126.827 251.248 126.971 252.076 127.259 252.784C127.547 253.48 127.949 254.056 128.465 254.512C128.993 254.968 129.611 255.31 130.319 255.538C131.027 255.766 131.795 255.88 132.623 255.88C133.331 255.88 134.021 255.766 134.693 255.538C135.377 255.322 136.019 255.028 136.619 254.656L137.303 255.628C136.847 255.976 136.337 256.264 135.773 256.492C135.209 256.732 134.633 256.906 134.045 257.014C133.469 257.134 132.911 257.194 132.371 257.194ZM133.181 252.046C133.577 252.046 133.943 251.968 134.279 251.812C134.627 251.656 134.927 251.44 135.179 251.164C135.443 250.876 135.641 250.534 135.773 250.138L135.971 248.68C135.935 248.32 135.809 248.008 135.593 247.744C135.389 247.468 135.125 247.258 134.801 247.114C134.477 246.958 134.111 246.88 133.703 246.88C133.187 246.88 132.719 247.012 132.299 247.276C131.879 247.54 131.543 247.894 131.291 248.338C131.051 248.77 130.931 249.244 130.931 249.76C130.931 250.192 131.021 250.582 131.201 250.93C131.393 251.278 131.657 251.554 131.993 251.758C132.341 251.95 132.737 252.046 133.181 252.046ZM145.949 245.8L146.111 247.96L146.021 247.672C146.213 247.216 146.489 246.832 146.849 246.52C147.221 246.196 147.605 245.95 148.001 245.782C148.409 245.602 148.763 245.512 149.063 245.512L148.973 247.168C148.409 247.132 147.911 247.24 147.479 247.492C147.059 247.744 146.723 248.08 146.471 248.5C146.231 248.92 146.111 249.37 146.111 249.85V253.252H144.455V245.8H145.949ZM154.362 253.432C153.51 253.432 152.778 253.264 152.166 252.928C151.554 252.58 151.08 252.112 150.744 251.524C150.42 250.924 150.258 250.24 150.258 249.472C150.258 248.74 150.444 248.074 150.816 247.474C151.188 246.874 151.686 246.394 152.31 246.034C152.934 245.674 153.63 245.494 154.398 245.494C155.382 245.494 156.198 245.782 156.846 246.358C157.494 246.934 157.932 247.726 158.16 248.734L152.022 250.894L151.626 249.904L156.666 248.068L156.306 248.302C156.162 247.906 155.922 247.564 155.586 247.276C155.25 246.976 154.812 246.826 154.272 246.826C153.816 246.826 153.408 246.94 153.048 247.168C152.688 247.384 152.406 247.684 152.202 248.068C151.998 248.452 151.896 248.89 151.896 249.382C151.896 249.898 152.004 250.354 152.22 250.75C152.436 251.134 152.73 251.44 153.102 251.668C153.486 251.884 153.918 251.992 154.398 251.992C154.722 251.992 155.034 251.932 155.334 251.812C155.646 251.692 155.934 251.536 156.198 251.344L156.972 252.586C156.6 252.838 156.18 253.042 155.712 253.198C155.256 253.354 154.806 253.432 154.362 253.432ZM162.346 253.396C161.818 253.396 161.302 253.306 160.798 253.126C160.306 252.934 159.898 252.652 159.574 252.28L160.276 251.308C160.588 251.608 160.906 251.836 161.23 251.992C161.566 252.136 161.896 252.208 162.22 252.208C162.46 252.208 162.682 252.178 162.886 252.118C163.09 252.058 163.252 251.962 163.372 251.83C163.504 251.686 163.57 251.494 163.57 251.254C163.57 250.99 163.48 250.78 163.3 250.624C163.132 250.468 162.91 250.342 162.634 250.246C162.37 250.15 162.088 250.06 161.788 249.976C161.176 249.772 160.708 249.49 160.384 249.13C160.06 248.77 159.898 248.332 159.898 247.816C159.898 247.42 159.994 247.054 160.186 246.718C160.39 246.37 160.684 246.088 161.068 245.872C161.464 245.656 161.95 245.548 162.526 245.548C163.042 245.548 163.504 245.614 163.912 245.746C164.32 245.866 164.704 246.07 165.064 246.358L164.398 247.402C164.182 247.174 163.924 247.006 163.624 246.898C163.324 246.79 163.054 246.73 162.814 246.718C162.61 246.706 162.412 246.736 162.22 246.808C162.04 246.88 161.89 246.982 161.77 247.114C161.65 247.246 161.59 247.402 161.59 247.582C161.59 247.834 161.674 248.038 161.842 248.194C162.01 248.35 162.226 248.476 162.49 248.572C162.766 248.656 163.036 248.746 163.3 248.842C163.672 248.95 164.002 249.094 164.29 249.274C164.578 249.454 164.806 249.676 164.974 249.94C165.154 250.204 165.244 250.534 165.244 250.93C165.244 251.374 165.136 251.788 164.92 252.172C164.716 252.544 164.398 252.844 163.966 253.072C163.546 253.288 163.006 253.396 162.346 253.396ZM168.308 242.524H169.982V245.836H172.034V247.15H169.982V253.252H168.308V247.15H166.94V245.836H168.308V242.524ZM177.153 253.432C176.457 253.432 175.821 253.282 175.245 252.982C174.681 252.682 174.231 252.244 173.895 251.668C173.571 251.08 173.409 250.366 173.409 249.526C173.409 248.698 173.583 247.984 173.931 247.384C174.279 246.772 174.741 246.304 175.317 245.98C175.905 245.656 176.547 245.494 177.243 245.494C177.939 245.494 178.527 245.656 179.007 245.98C179.487 246.292 179.853 246.664 180.105 247.096L179.997 247.384L180.159 245.8H181.707V253.252H180.033V251.308L180.213 251.74C180.165 251.86 180.057 252.016 179.889 252.208C179.733 252.388 179.517 252.574 179.241 252.766C178.977 252.958 178.671 253.12 178.323 253.252C177.975 253.372 177.585 253.432 177.153 253.432ZM177.603 252.046C178.023 252.046 178.401 251.968 178.737 251.812C179.073 251.656 179.349 251.44 179.565 251.164C179.793 250.876 179.949 250.534 180.033 250.138V248.68C179.937 248.32 179.769 248.008 179.529 247.744C179.289 247.468 179.001 247.258 178.665 247.114C178.329 246.958 177.957 246.88 177.549 246.88C177.105 246.88 176.697 246.988 176.325 247.204C175.953 247.42 175.653 247.72 175.425 248.104C175.209 248.488 175.101 248.938 175.101 249.454C175.101 249.934 175.215 250.372 175.443 250.768C175.671 251.164 175.977 251.476 176.361 251.704C176.745 251.932 177.159 252.046 177.603 252.046ZM186.962 253.54C186.29 253.54 185.732 253.336 185.288 252.928C184.856 252.508 184.628 251.968 184.604 251.308V245.8H186.278V250.714C186.302 251.122 186.416 251.452 186.62 251.704C186.836 251.956 187.172 252.088 187.628 252.1C188.048 252.1 188.42 251.98 188.744 251.74C189.08 251.488 189.35 251.152 189.554 250.732C189.758 250.3 189.86 249.814 189.86 249.274V245.8H191.534V253.252H190.004L189.86 251.416L189.95 251.74C189.806 252.088 189.584 252.4 189.284 252.676C188.996 252.94 188.654 253.15 188.258 253.306C187.862 253.462 187.43 253.54 186.962 253.54ZM195.924 245.8L196.086 247.96L195.996 247.672C196.188 247.216 196.464 246.832 196.824 246.52C197.196 246.196 197.58 245.95 197.976 245.782C198.384 245.602 198.738 245.512 199.038 245.512L198.948 247.168C198.384 247.132 197.886 247.24 197.454 247.492C197.034 247.744 196.698 248.08 196.446 248.5C196.206 248.92 196.086 249.37 196.086 249.85V253.252H194.43V245.8H195.924ZM204.117 253.432C203.421 253.432 202.785 253.282 202.209 252.982C201.645 252.682 201.195 252.244 200.859 251.668C200.535 251.08 200.373 250.366 200.373 249.526C200.373 248.698 200.547 247.984 200.895 247.384C201.243 246.772 201.705 246.304 202.281 245.98C202.869 245.656 203.511 245.494 204.207 245.494C204.903 245.494 205.491 245.656 205.971 245.98C206.451 246.292 206.817 246.664 207.069 247.096L206.961 247.384L207.123 245.8H208.671V253.252H206.997V251.308L207.177 251.74C207.129 251.86 207.021 252.016 206.853 252.208C206.697 252.388 206.481 252.574 206.205 252.766C205.941 252.958 205.635 253.12 205.287 253.252C204.939 253.372 204.549 253.432 204.117 253.432ZM204.567 252.046C204.987 252.046 205.365 251.968 205.701 251.812C206.037 251.656 206.313 251.44 206.529 251.164C206.757 250.876 206.913 250.534 206.997 250.138V248.68C206.901 248.32 206.733 248.008 206.493 247.744C206.253 247.468 205.965 247.258 205.629 247.114C205.293 246.958 204.921 246.88 204.513 246.88C204.069 246.88 203.661 246.988 203.289 247.204C202.917 247.42 202.617 247.72 202.389 248.104C202.173 248.488 202.065 248.938 202.065 249.454C202.065 249.934 202.179 250.372 202.407 250.768C202.635 251.164 202.941 251.476 203.325 251.704C203.709 251.932 204.123 252.046 204.567 252.046ZM213.062 245.8L213.206 247.618L213.134 247.33C213.374 246.778 213.764 246.34 214.304 246.016C214.844 245.68 215.468 245.512 216.176 245.512C216.884 245.512 217.46 245.722 217.904 246.142C218.36 246.55 218.594 247.084 218.606 247.744V253.252H216.914V248.338C216.902 247.93 216.782 247.6 216.554 247.348C216.338 247.084 215.996 246.952 215.528 246.952C215.096 246.952 214.706 247.072 214.358 247.312C214.01 247.552 213.734 247.882 213.53 248.302C213.338 248.722 213.242 249.208 213.242 249.76V253.252H211.568V245.8H213.062ZM222.238 242.524H223.912V245.836H225.964V247.15H223.912V253.252H222.238V247.15H220.87V245.836H222.238V242.524ZM231.082 253.432C230.386 253.432 229.75 253.282 229.174 252.982C228.61 252.682 228.16 252.244 227.824 251.668C227.5 251.08 227.338 250.366 227.338 249.526C227.338 248.698 227.512 247.984 227.86 247.384C228.208 246.772 228.67 246.304 229.246 245.98C229.834 245.656 230.476 245.494 231.172 245.494C231.868 245.494 232.456 245.656 232.936 245.98C233.416 246.292 233.782 246.664 234.034 247.096L233.926 247.384L234.088 245.8H235.636V253.252H233.962V251.308L234.142 251.74C234.094 251.86 233.986 252.016 233.818 252.208C233.662 252.388 233.446 252.574 233.17 252.766C232.906 252.958 232.6 253.12 232.252 253.252C231.904 253.372 231.514 253.432 231.082 253.432ZM231.532 252.046C231.952 252.046 232.33 251.968 232.666 251.812C233.002 251.656 233.278 251.44 233.494 251.164C233.722 250.876 233.878 250.534 233.962 250.138V248.68C233.866 248.32 233.698 248.008 233.458 247.744C233.218 247.468 232.93 247.258 232.594 247.114C232.258 246.958 231.886 246.88 231.478 246.88C231.034 246.88 230.626 246.988 230.254 247.204C229.882 247.42 229.582 247.72 229.354 248.104C229.138 248.488 229.03 248.938 229.03 249.454C229.03 249.934 229.144 250.372 229.372 250.768C229.6 251.164 229.906 251.476 230.29 251.704C230.674 251.932 231.088 252.046 231.532 252.046ZM239.253 242.524H240.927V245.836H242.979V247.15H240.927V253.252H239.253V247.15H237.885V245.836H239.253V242.524ZM248.458 253.432C247.606 253.432 246.874 253.264 246.262 252.928C245.65 252.58 245.176 252.112 244.84 251.524C244.516 250.924 244.354 250.24 244.354 249.472C244.354 248.74 244.54 248.074 244.912 247.474C245.284 246.874 245.782 246.394 246.406 246.034C247.03 245.674 247.726 245.494 248.494 245.494C249.478 245.494 250.294 245.782 250.942 246.358C251.59 246.934 252.028 247.726 252.256 248.734L246.118 250.894L245.722 249.904L250.762 248.068L250.402 248.302C250.258 247.906 250.018 247.564 249.682 247.276C249.346 246.976 248.908 246.826 248.368 246.826C247.912 246.826 247.504 246.94 247.144 247.168C246.784 247.384 246.502 247.684 246.298 248.068C246.094 248.452 245.992 248.89 245.992 249.382C245.992 249.898 246.1 250.354 246.316 250.75C246.532 251.134 246.826 251.44 247.198 251.668C247.582 251.884 248.014 251.992 248.494 251.992C248.818 251.992 249.13 251.932 249.43 251.812C249.742 251.692 250.03 251.536 250.294 251.344L251.068 252.586C250.696 252.838 250.276 253.042 249.808 253.198C249.352 253.354 248.902 253.432 248.458 253.432ZM253.508 252.298C253.508 252.034 253.604 251.812 253.796 251.632C254 251.44 254.222 251.344 254.462 251.344C254.678 251.344 254.882 251.44 255.074 251.632C255.278 251.812 255.38 252.034 255.38 252.298C255.38 252.586 255.278 252.82 255.074 253C254.882 253.168 254.678 253.252 254.462 253.252C254.222 253.252 254 253.168 253.796 253C253.604 252.82 253.508 252.586 253.508 252.298ZM263.425 252.568C263.089 252.832 262.687 253.042 262.219 253.198C261.751 253.354 261.283 253.432 260.815 253.432C259.999 253.432 259.285 253.27 258.673 252.946C258.061 252.622 257.581 252.172 257.233 251.596C256.897 251.008 256.729 250.318 256.729 249.526C256.729 248.734 256.909 248.044 257.269 247.456C257.641 246.868 258.121 246.418 258.709 246.106C259.309 245.782 259.951 245.62 260.635 245.62C261.235 245.62 261.769 245.704 262.237 245.872C262.717 246.04 263.125 246.268 263.461 246.556L262.633 247.636C262.417 247.468 262.153 247.318 261.841 247.186C261.529 247.054 261.175 246.988 260.779 246.988C260.347 246.988 259.945 247.102 259.573 247.33C259.213 247.546 258.925 247.846 258.709 248.23C258.505 248.614 258.403 249.046 258.403 249.526C258.403 249.982 258.511 250.408 258.727 250.804C258.943 251.188 259.243 251.494 259.627 251.722C260.011 251.938 260.449 252.046 260.941 252.046C261.265 252.046 261.559 251.998 261.823 251.902C262.099 251.806 262.345 251.674 262.561 251.506L263.425 252.568ZM264.938 249.454C264.938 248.71 265.112 248.038 265.46 247.438C265.82 246.838 266.312 246.364 266.936 246.016C267.56 245.668 268.268 245.494 269.06 245.494C269.876 245.494 270.59 245.668 271.202 246.016C271.814 246.364 272.288 246.838 272.624 247.438C272.96 248.038 273.128 248.71 273.128 249.454C273.128 250.198 272.96 250.876 272.624 251.488C272.288 252.088 271.808 252.562 271.184 252.91C270.572 253.258 269.858 253.432 269.042 253.432C268.25 253.432 267.542 253.27 266.918 252.946C266.306 252.61 265.82 252.148 265.46 251.56C265.112 250.96 264.938 250.258 264.938 249.454ZM266.612 249.472C266.612 249.952 266.72 250.39 266.936 250.786C267.152 251.17 267.44 251.476 267.8 251.704C268.172 251.932 268.58 252.046 269.024 252.046C269.492 252.046 269.906 251.932 270.266 251.704C270.638 251.476 270.926 251.17 271.13 250.786C271.334 250.39 271.436 249.952 271.436 249.472C271.436 248.992 271.334 248.56 271.13 248.176C270.926 247.78 270.638 247.468 270.266 247.24C269.906 247 269.492 246.88 269.024 246.88C268.568 246.88 268.154 247 267.782 247.24C267.422 247.48 267.134 247.798 266.918 248.194C266.714 248.578 266.612 249.004 266.612 249.472ZM276.889 245.8L277.033 247.474L276.961 247.33C277.237 246.766 277.627 246.322 278.131 245.998C278.647 245.674 279.235 245.512 279.895 245.512C280.315 245.512 280.687 245.578 281.011 245.71C281.335 245.842 281.599 246.034 281.803 246.286C282.019 246.526 282.157 246.826 282.217 247.186L282.127 247.24C282.415 246.7 282.811 246.28 283.315 245.98C283.831 245.668 284.371 245.512 284.935 245.512C285.667 245.512 286.243 245.722 286.663 246.142C287.095 246.55 287.317 247.084 287.329 247.744V253.252H285.655V248.338C285.643 247.954 285.547 247.636 285.367 247.384C285.199 247.12 284.899 246.976 284.467 246.952C284.035 246.952 283.645 247.084 283.297 247.348C282.961 247.612 282.697 247.954 282.505 248.374C282.313 248.782 282.211 249.226 282.199 249.706V253.252H280.525V248.338C280.513 247.954 280.411 247.636 280.219 247.384C280.039 247.12 279.733 246.976 279.301 246.952C278.857 246.952 278.467 247.084 278.131 247.348C277.795 247.612 277.531 247.954 277.339 248.374C277.159 248.794 277.069 249.244 277.069 249.724V253.252H275.395V245.8H276.889Z" fill="#4A4A4A"/>
<path d="M54.1991 314.447C53.2641 313.505 50.9995 312.13 49.9008 311.576C48.47 310.855 48.3522 310.796 47.2276 311.632C46.4774 312.189 45.9787 312.687 45.1008 312.5C44.2229 312.313 42.3151 311.257 40.6447 309.592C38.9742 307.927 37.8573 305.964 37.6694 305.089C37.4816 304.214 37.988 303.721 38.5403 302.969C39.3187 301.909 39.2598 301.733 38.5945 300.302C38.0757 299.189 36.6608 296.946 35.7152 296.015C34.7036 295.016 34.7036 295.193 34.0518 295.463C33.5211 295.687 33.012 295.958 32.5309 296.274C31.5888 296.9 31.0659 297.42 30.7003 298.201C30.3346 298.983 30.1704 300.815 32.0587 304.245C33.947 307.675 35.2718 309.429 38.0139 312.164C40.756 314.898 42.8645 316.369 45.9469 318.097C49.7601 320.233 51.2227 319.817 52.0064 319.452C52.7901 319.087 53.3123 318.568 53.9394 317.626C54.2564 317.146 54.5284 316.637 54.752 316.107C55.0234 315.458 55.2001 315.458 54.1991 314.447Z" stroke="#E1B168" stroke-width="2.1" stroke-miterlimit="10"/>
<path d="M66.6807 306.69C66.6807 305.478 66.8247 304.344 67.1127 303.288C67.4007 302.232 67.7727 301.29 68.2287 300.462C68.6967 299.634 69.1827 298.95 69.6867 298.41L71.0007 299.148C70.5327 299.688 70.1007 300.33 69.7047 301.074C69.3207 301.818 69.0087 302.664 68.7687 303.612C68.5407 304.56 68.4267 305.592 68.4267 306.708C68.4267 307.824 68.5407 308.856 68.7687 309.804C69.0087 310.74 69.3207 311.574 69.7047 312.306C70.1007 313.05 70.5327 313.692 71.0007 314.232L69.6867 314.988C69.1827 314.448 68.6967 313.758 68.2287 312.918C67.7727 312.09 67.4007 311.154 67.1127 310.11C66.8247 309.054 66.6807 307.914 66.6807 306.69ZM72.3385 309.138V309.12L79.5565 300.012H79.5745V307.806H81.1045V309.138H79.5745V312H77.8285V309.138H72.3385ZM77.9365 303.954L74.8945 307.896L74.6245 307.806H77.8285V303.63L77.9365 303.954ZM82.2413 308.274C82.2413 307.662 82.3553 307.134 82.5833 306.69C82.8233 306.246 83.1173 305.874 83.4653 305.574C83.8253 305.262 84.1913 305.028 84.5633 304.872C84.2033 304.644 83.9033 304.362 83.6633 304.026C83.4353 303.69 83.3213 303.258 83.3213 302.73C83.3213 302.202 83.4533 301.734 83.7173 301.326C83.9933 300.918 84.3653 300.6 84.8333 300.372C85.3013 300.132 85.8353 300.012 86.4353 300.012C87.0233 300.012 87.5513 300.132 88.0193 300.372C88.4873 300.6 88.8593 300.912 89.1353 301.308C89.4113 301.704 89.5493 302.154 89.5493 302.658C89.5493 303.222 89.4293 303.672 89.1893 304.008C88.9613 304.344 88.6673 304.632 88.3073 304.872C88.6793 305.04 89.0453 305.28 89.4053 305.592C89.7653 305.892 90.0593 306.264 90.2873 306.708C90.5273 307.152 90.6473 307.674 90.6473 308.274C90.6473 308.958 90.4553 309.594 90.0713 310.182C89.6993 310.77 89.1953 311.244 88.5593 311.604C87.9353 311.964 87.2213 312.144 86.4173 312.144C85.6133 312.144 84.8993 311.964 84.2753 311.604C83.6513 311.244 83.1533 310.77 82.7813 310.182C82.4213 309.594 82.2413 308.958 82.2413 308.274ZM84.0233 308.184C84.0233 308.64 84.1313 309.054 84.3473 309.426C84.5633 309.798 84.8513 310.098 85.2113 310.326C85.5713 310.554 85.9733 310.668 86.4173 310.668C86.8733 310.668 87.2873 310.554 87.6593 310.326C88.0433 310.098 88.3433 309.798 88.5593 309.426C88.7873 309.054 88.9013 308.646 88.9013 308.202C88.9013 307.746 88.7933 307.338 88.5773 306.978C88.3613 306.606 88.0673 306.306 87.6953 306.078C87.3353 305.85 86.9333 305.736 86.4893 305.736C86.0453 305.724 85.6373 305.832 85.2653 306.06C84.8933 306.276 84.5933 306.57 84.3653 306.942C84.1373 307.314 84.0233 307.728 84.0233 308.184ZM85.0133 302.946C85.0133 303.318 85.1573 303.636 85.4453 303.9C85.7453 304.152 86.0873 304.278 86.4713 304.278C86.8553 304.278 87.1853 304.152 87.4613 303.9C87.7493 303.636 87.8933 303.318 87.8933 302.946C87.8933 302.514 87.7493 302.16 87.4613 301.884C87.1853 301.608 86.8553 301.47 86.4713 301.47C86.0753 301.47 85.7333 301.608 85.4453 301.884C85.1573 302.16 85.0133 302.514 85.0133 302.946ZM99.4572 300.156L94.7232 312H92.7612L97.0272 301.578L97.6392 301.83H91.7172V300.156H99.4572ZM105.6 306.708C105.6 307.92 105.45 309.054 105.15 310.11C104.862 311.166 104.49 312.108 104.034 312.936C103.59 313.764 103.11 314.448 102.594 314.988L101.28 314.232C101.748 313.704 102.174 313.068 102.558 312.324C102.954 311.58 103.266 310.74 103.494 309.804C103.734 308.856 103.854 307.824 103.854 306.708C103.854 305.592 103.734 304.56 103.494 303.612C103.266 302.664 102.954 301.818 102.558 301.074C102.174 300.33 101.748 299.694 101.28 299.166L102.594 298.41C103.11 298.95 103.59 299.64 104.034 300.48C104.49 301.308 104.862 302.25 105.15 303.306C105.45 304.35 105.6 305.484 105.6 306.708ZM113.46 308.274C113.46 307.662 113.574 307.134 113.802 306.69C114.042 306.246 114.336 305.874 114.684 305.574C115.044 305.262 115.41 305.028 115.782 304.872C115.422 304.644 115.122 304.362 114.882 304.026C114.654 303.69 114.54 303.258 114.54 302.73C114.54 302.202 114.672 301.734 114.936 301.326C115.212 300.918 115.584 300.6 116.052 300.372C116.52 300.132 117.054 300.012 117.654 300.012C118.242 300.012 118.77 300.132 119.238 300.372C119.706 300.6 120.078 300.912 120.354 301.308C120.63 301.704 120.768 302.154 120.768 302.658C120.768 303.222 120.648 303.672 120.408 304.008C120.18 304.344 119.886 304.632 119.526 304.872C119.898 305.04 120.264 305.28 120.624 305.592C120.984 305.892 121.278 306.264 121.506 306.708C121.746 307.152 121.866 307.674 121.866 308.274C121.866 308.958 121.674 309.594 121.29 310.182C120.918 310.77 120.414 311.244 119.778 311.604C119.154 311.964 118.44 312.144 117.636 312.144C116.832 312.144 116.118 311.964 115.494 311.604C114.87 311.244 114.372 310.77 114 310.182C113.64 309.594 113.46 308.958 113.46 308.274ZM115.242 308.184C115.242 308.64 115.35 309.054 115.566 309.426C115.782 309.798 116.07 310.098 116.43 310.326C116.79 310.554 117.192 310.668 117.636 310.668C118.092 310.668 118.506 310.554 118.878 310.326C119.262 310.098 119.562 309.798 119.778 309.426C120.006 309.054 120.12 308.646 120.12 308.202C120.12 307.746 120.012 307.338 119.796 306.978C119.58 306.606 119.286 306.306 118.914 306.078C118.554 305.85 118.152 305.736 117.708 305.736C117.264 305.724 116.856 305.832 116.484 306.06C116.112 306.276 115.812 306.57 115.584 306.942C115.356 307.314 115.242 307.728 115.242 308.184ZM116.232 302.946C116.232 303.318 116.376 303.636 116.664 303.9C116.964 304.152 117.306 304.278 117.69 304.278C118.074 304.278 118.404 304.152 118.68 303.9C118.968 303.636 119.112 303.318 119.112 302.946C119.112 302.514 118.968 302.16 118.68 301.884C118.404 301.608 118.074 301.47 117.69 301.47C117.294 301.47 116.952 301.608 116.664 301.884C116.376 302.16 116.232 302.514 116.232 302.946ZM130.676 300.156L125.942 312H123.98L128.246 301.578L128.858 301.83H122.936V300.156H130.676ZM136.801 312.054C136.069 312.054 135.397 311.916 134.785 311.64C134.173 311.364 133.645 310.968 133.201 310.452C132.769 309.924 132.433 309.288 132.193 308.544C131.953 307.8 131.833 306.966 131.833 306.042C131.833 305.034 131.947 304.158 132.175 303.414C132.403 302.658 132.733 302.028 133.165 301.524C133.609 301.02 134.137 300.648 134.749 300.408C135.361 300.156 136.045 300.03 136.801 300.03C137.533 300.03 138.199 300.168 138.799 300.444C139.411 300.72 139.933 301.122 140.365 301.65C140.809 302.166 141.151 302.796 141.391 303.54C141.643 304.272 141.769 305.106 141.769 306.042C141.769 306.99 141.643 307.836 141.391 308.58C141.151 309.324 140.809 309.954 140.365 310.47C139.933 310.986 139.411 311.382 138.799 311.658C138.199 311.922 137.533 312.054 136.801 312.054ZM136.783 310.38C137.479 310.38 138.061 310.2 138.529 309.84C139.009 309.468 139.369 308.952 139.609 308.292C139.849 307.632 139.969 306.87 139.969 306.006C139.969 305.142 139.849 304.392 139.609 303.756C139.369 303.108 139.009 302.604 138.529 302.244C138.061 301.884 137.479 301.704 136.783 301.704C136.087 301.704 135.505 301.89 135.037 302.262C134.569 302.622 134.215 303.126 133.975 303.774C133.747 304.422 133.633 305.178 133.633 306.042C133.633 306.894 133.747 307.65 133.975 308.31C134.215 308.958 134.569 309.468 135.037 309.84C135.505 310.2 136.087 310.38 136.783 310.38ZM149.049 307.392H152.415V308.868H149.049V307.392ZM160.211 300.156H163.307V312H161.561V301.83H160.211V300.156ZM170.797 312.054C170.065 312.054 169.393 311.916 168.781 311.64C168.169 311.364 167.641 310.968 167.197 310.452C166.765 309.924 166.429 309.288 166.189 308.544C165.949 307.8 165.829 306.966 165.829 306.042C165.829 305.034 165.943 304.158 166.171 303.414C166.399 302.658 166.729 302.028 167.161 301.524C167.605 301.02 168.133 300.648 168.745 300.408C169.357 300.156 170.041 300.03 170.797 300.03C171.529 300.03 172.195 300.168 172.795 300.444C173.407 300.72 173.929 301.122 174.361 301.65C174.805 302.166 175.147 302.796 175.387 303.54C175.639 304.272 175.765 305.106 175.765 306.042C175.765 306.99 175.639 307.836 175.387 308.58C175.147 309.324 174.805 309.954 174.361 310.47C173.929 310.986 173.407 311.382 172.795 311.658C172.195 311.922 171.529 312.054 170.797 312.054ZM170.779 310.38C171.475 310.38 172.057 310.2 172.525 309.84C173.005 309.468 173.365 308.952 173.605 308.292C173.845 307.632 173.965 306.87 173.965 306.006C173.965 305.142 173.845 304.392 173.605 303.756C173.365 303.108 173.005 302.604 172.525 302.244C172.057 301.884 171.475 301.704 170.779 301.704C170.083 301.704 169.501 301.89 169.033 302.262C168.565 302.622 168.211 303.126 167.971 303.774C167.743 304.422 167.629 305.178 167.629 306.042C167.629 306.894 167.743 307.65 167.971 308.31C168.211 308.958 168.565 309.468 169.033 309.84C169.501 310.2 170.083 310.38 170.779 310.38ZM176.9 308.274C176.9 307.662 177.014 307.134 177.242 306.69C177.482 306.246 177.776 305.874 178.124 305.574C178.484 305.262 178.85 305.028 179.222 304.872C178.862 304.644 178.562 304.362 178.322 304.026C178.094 303.69 177.98 303.258 177.98 302.73C177.98 302.202 178.112 301.734 178.376 301.326C178.652 300.918 179.024 300.6 179.492 300.372C179.96 300.132 180.494 300.012 181.094 300.012C181.682 300.012 182.21 300.132 182.678 300.372C183.146 300.6 183.518 300.912 183.794 301.308C184.07 301.704 184.208 302.154 184.208 302.658C184.208 303.222 184.088 303.672 183.848 304.008C183.62 304.344 183.326 304.632 182.966 304.872C183.338 305.04 183.704 305.28 184.064 305.592C184.424 305.892 184.718 306.264 184.946 306.708C185.186 307.152 185.306 307.674 185.306 308.274C185.306 308.958 185.114 309.594 184.73 310.182C184.358 310.77 183.854 311.244 183.218 311.604C182.594 311.964 181.88 312.144 181.076 312.144C180.272 312.144 179.558 311.964 178.934 311.604C178.31 311.244 177.812 310.77 177.44 310.182C177.08 309.594 176.9 308.958 176.9 308.274ZM178.682 308.184C178.682 308.64 178.79 309.054 179.006 309.426C179.222 309.798 179.51 310.098 179.87 310.326C180.23 310.554 180.632 310.668 181.076 310.668C181.532 310.668 181.946 310.554 182.318 310.326C182.702 310.098 183.002 309.798 183.218 309.426C183.446 309.054 183.56 308.646 183.56 308.202C183.56 307.746 183.452 307.338 183.236 306.978C183.02 306.606 182.726 306.306 182.354 306.078C181.994 305.85 181.592 305.736 181.148 305.736C180.704 305.724 180.296 305.832 179.924 306.06C179.552 306.276 179.252 306.57 179.024 306.942C178.796 307.314 178.682 307.728 178.682 308.184ZM179.672 302.946C179.672 303.318 179.816 303.636 180.104 303.9C180.404 304.152 180.746 304.278 181.13 304.278C181.514 304.278 181.844 304.152 182.12 303.9C182.408 303.636 182.552 303.318 182.552 302.946C182.552 302.514 182.408 302.16 182.12 301.884C181.844 301.608 181.514 301.47 181.13 301.47C180.734 301.47 180.392 301.608 180.104 301.884C179.816 302.16 179.672 302.514 179.672 302.946ZM194.115 300.156L189.381 312H187.419L191.685 301.578L192.297 301.83H186.375V300.156H194.115Z" fill="#4A4A4A"/>
</svg>
