<svg width="566" height="68" viewBox="0 0 566 68" fill="none" xmlns="http://www.w3.org/2000/svg">
<rect x="1" y="1" width="267" height="66" stroke="#EAEAEA" stroke-width="2"/>
<path d="M65.244 24.028H74.814V26.294H67.598V31.09H73.912V33.334H67.598V40H65.244V24.028ZM79.3948 30.782L79.6148 33.422L79.5048 33.07C79.7541 32.5127 80.1061 32.036 80.5608 31.64C81.0155 31.244 81.4848 30.9433 81.9688 30.738C82.4675 30.518 82.8855 30.408 83.2228 30.408L83.1128 32.652C82.4088 32.608 81.7928 32.74 81.2648 33.048C80.7515 33.356 80.3481 33.7667 80.0548 34.28C79.7615 34.7933 79.6148 35.3433 79.6148 35.93V40H77.3708V30.782H79.3948ZM89.74 40.22C88.6693 40.22 87.7526 40.0147 86.99 39.604C86.2273 39.1787 85.6406 38.5993 85.23 37.866C84.8193 37.118 84.614 36.2673 84.614 35.314C84.614 34.4047 84.8413 33.5833 85.296 32.85C85.7653 32.102 86.3886 31.508 87.166 31.068C87.958 30.628 88.8306 30.408 89.784 30.408C91.016 30.408 92.0353 30.7673 92.842 31.486C93.6633 32.2047 94.2133 33.2093 94.492 34.5L86.99 37.096L86.462 35.776L92.468 33.62L92.006 33.906C91.83 33.4513 91.5513 33.0553 91.17 32.718C90.7886 32.366 90.268 32.19 89.608 32.19C89.08 32.19 88.6033 32.322 88.178 32.586C87.7673 32.8353 87.4373 33.1873 87.188 33.642C86.9533 34.082 86.836 34.6027 86.836 35.204C86.836 35.82 86.9606 36.3627 87.21 36.832C87.474 37.2867 87.826 37.646 88.266 37.91C88.7206 38.174 89.2266 38.306 89.784 38.306C90.18 38.306 90.554 38.2327 90.906 38.086C91.2726 37.9393 91.6173 37.756 91.94 37.536L92.974 39.208C92.49 39.516 91.962 39.7653 91.39 39.956C90.8326 40.132 90.2826 40.22 89.74 40.22ZM99.6915 40.198C99.0169 40.198 98.3642 40.0807 97.7335 39.846C97.1029 39.5967 96.5822 39.2373 96.1715 38.768L97.1395 37.492C97.5355 37.8587 97.9315 38.1373 98.3275 38.328C98.7382 38.504 99.1269 38.592 99.4935 38.592C99.7869 38.592 100.051 38.5627 100.286 38.504C100.52 38.4307 100.711 38.3133 100.858 38.152C101.004 37.9907 101.078 37.778 101.078 37.514C101.078 37.206 100.975 36.964 100.77 36.788C100.564 36.612 100.3 36.4653 99.9775 36.348C99.6549 36.2307 99.3102 36.1207 98.9435 36.018C98.1662 35.7687 97.5795 35.4167 97.1835 34.962C96.7875 34.4927 96.5895 33.9427 96.5895 33.312C96.5895 32.828 96.7069 32.3733 96.9415 31.948C97.1909 31.508 97.5649 31.1487 98.0635 30.87C98.5622 30.5913 99.1782 30.452 99.9115 30.452C100.586 30.452 101.18 30.5327 101.694 30.694C102.207 30.8407 102.684 31.0973 103.124 31.464L102.244 32.828C101.98 32.564 101.664 32.366 101.298 32.234C100.946 32.0873 100.623 32.0067 100.33 31.992C100.066 31.992 99.8235 32.036 99.6035 32.124C99.3835 32.1973 99.2075 32.3147 99.0755 32.476C98.9435 32.6227 98.8775 32.7987 98.8775 33.004C98.8629 33.2973 98.9582 33.5393 99.1635 33.73C99.3835 33.906 99.6622 34.0527 99.9995 34.17C100.337 34.2727 100.667 34.3827 100.99 34.5C101.444 34.632 101.848 34.8153 102.2 35.05C102.552 35.27 102.83 35.5413 103.036 35.864C103.241 36.1867 103.344 36.5973 103.344 37.096C103.344 37.6387 103.212 38.152 102.948 38.636C102.684 39.1053 102.28 39.4867 101.738 39.78C101.195 40.0587 100.513 40.198 99.6915 40.198ZM106.138 40V22.906H108.338V32.872L108.316 32.498C108.624 31.8967 109.094 31.398 109.724 31.002C110.355 30.606 111.11 30.408 111.99 30.408C112.856 30.408 113.567 30.6647 114.124 31.178C114.696 31.6913 114.99 32.3587 115.004 33.18V40H112.738V33.972C112.724 33.5027 112.584 33.1213 112.32 32.828C112.056 32.52 111.646 32.3587 111.088 32.344C110.59 32.344 110.135 32.498 109.724 32.806C109.314 33.0993 108.991 33.51 108.756 34.038C108.522 34.5513 108.404 35.138 108.404 35.798V40H106.138ZM125.98 24.028H135.55V26.294H128.334V31.09H134.648V33.334H128.334V40H125.98V24.028ZM136.542 35.292C136.542 34.368 136.762 33.5393 137.202 32.806C137.642 32.058 138.25 31.4713 139.028 31.046C139.805 30.6207 140.692 30.408 141.69 30.408C142.702 30.408 143.589 30.6207 144.352 31.046C145.114 31.4713 145.701 32.058 146.112 32.806C146.537 33.5393 146.75 34.368 146.75 35.292C146.75 36.216 146.537 37.052 146.112 37.8C145.701 38.548 145.114 39.142 144.352 39.582C143.589 40.0073 142.694 40.22 141.668 40.22C140.685 40.22 139.805 40.022 139.028 39.626C138.265 39.23 137.656 38.6653 137.202 37.932C136.762 37.184 136.542 36.304 136.542 35.292ZM138.83 35.314C138.83 35.886 138.954 36.4067 139.204 36.876C139.453 37.3307 139.79 37.6973 140.216 37.976C140.641 38.24 141.118 38.372 141.646 38.372C142.188 38.372 142.672 38.24 143.098 37.976C143.523 37.6973 143.853 37.3307 144.088 36.876C144.337 36.4067 144.462 35.886 144.462 35.314C144.462 34.742 144.337 34.2287 144.088 33.774C143.853 33.3193 143.523 32.9527 143.098 32.674C142.672 32.3953 142.188 32.256 141.646 32.256C141.103 32.256 140.619 32.3953 140.194 32.674C139.768 32.9527 139.431 33.3267 139.182 33.796C138.947 34.2507 138.83 34.7567 138.83 35.314ZM148.637 35.292C148.637 34.368 148.857 33.5393 149.297 32.806C149.737 32.058 150.346 31.4713 151.123 31.046C151.901 30.6207 152.788 30.408 153.785 30.408C154.797 30.408 155.685 30.6207 156.447 31.046C157.21 31.4713 157.797 32.058 158.207 32.806C158.633 33.5393 158.845 34.368 158.845 35.292C158.845 36.216 158.633 37.052 158.207 37.8C157.797 38.548 157.21 39.142 156.447 39.582C155.685 40.0073 154.79 40.22 153.763 40.22C152.781 40.22 151.901 40.022 151.123 39.626C150.361 39.23 149.752 38.6653 149.297 37.932C148.857 37.184 148.637 36.304 148.637 35.292ZM150.925 35.314C150.925 35.886 151.05 36.4067 151.299 36.876C151.549 37.3307 151.886 37.6973 152.311 37.976C152.737 38.24 153.213 38.372 153.741 38.372C154.284 38.372 154.768 38.24 155.193 37.976C155.619 37.6973 155.949 37.3307 156.183 36.876C156.433 36.4067 156.557 35.886 156.557 35.314C156.557 34.742 156.433 34.2287 156.183 33.774C155.949 33.3193 155.619 32.9527 155.193 32.674C154.768 32.3953 154.284 32.256 153.741 32.256C153.199 32.256 152.715 32.3953 152.289 32.674C151.864 32.9527 151.527 33.3267 151.277 33.796C151.043 34.2507 150.925 34.7567 150.925 35.314ZM165.287 40.22C164.422 40.22 163.644 40.022 162.955 39.626C162.266 39.2153 161.723 38.636 161.327 37.888C160.931 37.14 160.733 36.2673 160.733 35.27C160.733 34.2433 160.946 33.3707 161.371 32.652C161.796 31.9187 162.368 31.3613 163.087 30.98C163.82 30.584 164.642 30.386 165.551 30.386C166.255 30.386 166.922 30.5327 167.553 30.826C168.198 31.1047 168.697 31.5007 169.049 32.014L168.983 32.784V22.906H171.227V40H168.961V37.822L169.203 38.416C168.748 38.9293 168.191 39.362 167.531 39.714C166.871 40.0513 166.123 40.22 165.287 40.22ZM165.991 38.306C166.504 38.306 166.959 38.218 167.355 38.042C167.751 37.866 168.088 37.6167 168.367 37.294C168.646 36.9567 168.844 36.568 168.961 36.128V34.28C168.858 33.8693 168.66 33.51 168.367 33.202C168.088 32.8793 167.744 32.63 167.333 32.454C166.922 32.278 166.475 32.19 165.991 32.19C165.448 32.19 164.95 32.322 164.495 32.586C164.055 32.8353 163.696 33.1873 163.417 33.642C163.153 34.0967 163.021 34.6247 163.021 35.226C163.021 35.798 163.153 36.3187 163.417 36.788C163.696 37.2573 164.062 37.6313 164.517 37.91C164.972 38.174 165.463 38.306 165.991 38.306Z" fill="#292E36"/>
<path d="M24.1658 26.867C24.0186 26.6345 23.9667 26.3528 24.021 26.082C24.0754 25.8112 24.2317 25.5727 24.4568 25.4171C28.4057 22.5447 33.1418 21 38 21C42.8582 21 47.5943 22.5447 51.5432 25.4171C51.7683 25.5727 51.9246 25.8112 51.979 26.082C52.0333 26.3528 51.9814 26.6345 51.8342 26.867L38.8861 47.5014C38.7922 47.6539 38.6616 47.7798 38.5066 47.867C38.3516 47.9542 38.1772 48 38 48C37.8228 48 37.6484 47.9542 37.4934 47.867C37.3384 47.7798 37.2078 47.6539 37.1139 47.5014L24.1658 26.867Z" stroke="#E1B168" stroke-width="2" stroke-linecap="round" stroke-linejoin="round"/>
<path d="M27 30C30.1028 27.4134 33.9895 26 38 26C42.0105 26 45.8972 27.4134 49 30" stroke="#E1B168" stroke-width="2" stroke-linecap="round" stroke-linejoin="round"/>
<path d="M42.3447 40.2514C41.7388 40.1384 41.1728 39.8998 40.6918 39.5548C40.2108 39.2097 39.828 38.7677 39.574 38.264C39.3199 37.7602 39.2016 37.2086 39.2285 36.6531C39.2554 36.0976 39.4267 35.5534 39.7287 35.064C40.0308 34.5747 40.4554 34.1535 40.9685 33.8342C41.4817 33.5148 42.0693 33.3061 42.6846 33.2245C43.2999 33.143 43.9259 33.1909 44.5128 33.3646C45.0996 33.5382 45.6311 33.8326 46.0649 34.2245" stroke="#E1B168" stroke-width="2" stroke-linecap="round" stroke-linejoin="round"/>
<path d="M29 34.225C29.2402 33.6321 29.6432 33.1137 30.1658 32.7256C30.6884 32.3375 31.3108 32.0944 31.9658 32.0224C32.6209 31.9505 33.2839 32.0524 33.8834 32.3173C34.4829 32.5821 34.9962 32.9999 35.3682 33.5255C35.7401 34.0512 35.9565 34.6648 35.9941 35.3004C36.0317 35.936 35.8891 36.5695 35.5815 37.1326C35.274 37.6957 34.8133 38.1672 34.2489 38.4962C33.6845 38.8253 33.0379 38.9995 32.3786 39H32.1456" stroke="#E1B168" stroke-width="2" stroke-linecap="round" stroke-linejoin="round"/>
<rect x="298" y="1" width="267" height="66" stroke="#EAEAEA" stroke-width="2"/>
<path d="M368.244 26.028H377.814V28.294H370.598V33.09H376.912V35.334H370.598V42H368.244V26.028ZM383.447 42.22C382.582 42.22 381.797 42.044 381.093 41.692C380.389 41.3253 379.832 40.7827 379.421 40.064C379.011 39.3453 378.805 38.458 378.805 37.402C378.805 36.3607 379.018 35.466 379.443 34.718C379.883 33.97 380.455 33.398 381.159 33.002C381.878 32.5913 382.655 32.386 383.491 32.386C384.371 32.386 385.09 32.5767 385.647 32.958C386.219 33.3247 386.667 33.7573 386.989 34.256L386.835 34.608L387.055 32.782H389.145V42H386.879V39.69L387.121 40.24C387.063 40.3573 386.938 40.526 386.747 40.746C386.557 40.9513 386.3 41.1713 385.977 41.406C385.669 41.6407 385.303 41.8387 384.877 42C384.467 42.1467 383.99 42.22 383.447 42.22ZM384.063 40.372C384.547 40.372 384.98 40.284 385.361 40.108C385.743 39.932 386.065 39.6827 386.329 39.36C386.593 39.0373 386.777 38.656 386.879 38.216V36.302C386.762 35.8913 386.564 35.5393 386.285 35.246C386.007 34.938 385.669 34.696 385.273 34.52C384.892 34.344 384.467 34.256 383.997 34.256C383.469 34.256 382.985 34.388 382.545 34.652C382.105 34.9013 381.753 35.2533 381.489 35.708C381.225 36.1627 381.093 36.6907 381.093 37.292C381.093 37.864 381.225 38.3847 381.489 38.854C381.768 39.3233 382.135 39.6973 382.589 39.976C383.044 40.24 383.535 40.372 384.063 40.372ZM395.301 42.198C394.626 42.198 393.974 42.0807 393.343 41.846C392.712 41.5967 392.192 41.2373 391.781 40.768L392.749 39.492C393.145 39.8587 393.541 40.1373 393.937 40.328C394.348 40.504 394.736 40.592 395.103 40.592C395.396 40.592 395.66 40.5627 395.895 40.504C396.13 40.4307 396.32 40.3133 396.467 40.152C396.614 39.9907 396.687 39.778 396.687 39.514C396.687 39.206 396.584 38.964 396.379 38.788C396.174 38.612 395.91 38.4653 395.587 38.348C395.264 38.2307 394.92 38.1207 394.553 38.018C393.776 37.7687 393.189 37.4167 392.793 36.962C392.397 36.4927 392.199 35.9427 392.199 35.312C392.199 34.828 392.316 34.3733 392.551 33.948C392.8 33.508 393.174 33.1487 393.673 32.87C394.172 32.5913 394.788 32.452 395.521 32.452C396.196 32.452 396.79 32.5327 397.303 32.694C397.816 32.8407 398.293 33.0973 398.733 33.464L397.853 34.828C397.589 34.564 397.274 34.366 396.907 34.234C396.555 34.0873 396.232 34.0067 395.939 33.992C395.675 33.992 395.433 34.036 395.213 34.124C394.993 34.1973 394.817 34.3147 394.685 34.476C394.553 34.6227 394.487 34.7987 394.487 35.004C394.472 35.2973 394.568 35.5393 394.773 35.73C394.993 35.906 395.272 36.0527 395.609 36.17C395.946 36.2727 396.276 36.3827 396.599 36.5C397.054 36.632 397.457 36.8153 397.809 37.05C398.161 37.27 398.44 37.5413 398.645 37.864C398.85 38.1867 398.953 38.5973 398.953 39.096C398.953 39.6387 398.821 40.152 398.557 40.636C398.293 41.1053 397.89 41.4867 397.347 41.78C396.804 42.0587 396.122 42.198 395.301 42.198ZM402.628 28.734H404.894V32.804H407.358V34.586H404.894V42H402.628V34.586H401V32.804H402.628V28.734ZM417.314 42V26.028H421.758C423.342 26.028 424.692 26.27 425.806 26.754C426.921 27.238 427.816 27.876 428.49 28.668C429.18 29.46 429.678 30.34 429.986 31.308C430.309 32.276 430.47 33.2513 430.47 34.234C430.47 35.422 430.258 36.4927 429.832 37.446C429.407 38.3993 428.828 39.2207 428.094 39.91C427.361 40.5847 426.518 41.1053 425.564 41.472C424.611 41.824 423.599 42 422.528 42H417.314ZM419.668 39.734H422.088C422.954 39.734 423.746 39.6093 424.464 39.36C425.198 39.1107 425.828 38.744 426.356 38.26C426.899 37.776 427.317 37.182 427.61 36.478C427.904 35.774 428.05 34.9673 428.05 34.058C428.05 33.0753 427.882 32.2247 427.544 31.506C427.222 30.7727 426.789 30.1713 426.246 29.702C425.704 29.218 425.095 28.866 424.42 28.646C423.76 28.4113 423.086 28.294 422.396 28.294H419.668V39.734ZM437.793 42.22C436.722 42.22 435.805 42.0147 435.043 41.604C434.28 41.1787 433.693 40.5993 433.283 39.866C432.872 39.118 432.667 38.2673 432.667 37.314C432.667 36.4047 432.894 35.5833 433.349 34.85C433.818 34.102 434.441 33.508 435.219 33.068C436.011 32.628 436.883 32.408 437.837 32.408C439.069 32.408 440.088 32.7673 440.895 33.486C441.716 34.2047 442.266 35.2093 442.545 36.5L435.043 39.096L434.515 37.776L440.521 35.62L440.059 35.906C439.883 35.4513 439.604 35.0553 439.223 34.718C438.841 34.366 438.321 34.19 437.661 34.19C437.133 34.19 436.656 34.322 436.231 34.586C435.82 34.8353 435.49 35.1873 435.241 35.642C435.006 36.082 434.889 36.6027 434.889 37.204C434.889 37.82 435.013 38.3627 435.263 38.832C435.527 39.2867 435.879 39.646 436.319 39.91C436.773 40.174 437.279 40.306 437.837 40.306C438.233 40.306 438.607 40.2327 438.959 40.086C439.325 39.9393 439.67 39.756 439.993 39.536L441.027 41.208C440.543 41.516 440.015 41.7653 439.443 41.956C438.885 42.132 438.335 42.22 437.793 42.22ZM445.06 24.906H447.326V42H445.06V24.906ZM450.775 32.782H453.041V42H450.775V32.782ZM450.643 29.482C450.643 29.13 450.782 28.8367 451.061 28.602C451.34 28.3673 451.64 28.25 451.963 28.25C452.3 28.25 452.601 28.3673 452.865 28.602C453.129 28.8367 453.261 29.13 453.261 29.482C453.261 29.834 453.129 30.1273 452.865 30.362C452.601 30.582 452.3 30.692 451.963 30.692C451.64 30.692 451.34 30.582 451.061 30.362C450.782 30.1273 450.643 29.834 450.643 29.482ZM460.34 42.242L455.126 32.782H457.81L461.198 39.91L459.812 39.844L462.892 32.782H465.422L460.428 42.242H460.34ZM471.631 42.22C470.56 42.22 469.643 42.0147 468.881 41.604C468.118 41.1787 467.531 40.5993 467.121 39.866C466.71 39.118 466.505 38.2673 466.505 37.314C466.505 36.4047 466.732 35.5833 467.187 34.85C467.656 34.102 468.279 33.508 469.057 33.068C469.849 32.628 470.721 32.408 471.675 32.408C472.907 32.408 473.926 32.7673 474.733 33.486C475.554 34.2047 476.104 35.2093 476.383 36.5L468.881 39.096L468.353 37.776L474.359 35.62L473.897 35.906C473.721 35.4513 473.442 35.0553 473.061 34.718C472.679 34.366 472.159 34.19 471.499 34.19C470.971 34.19 470.494 34.322 470.069 34.586C469.658 34.8353 469.328 35.1873 469.079 35.642C468.844 36.082 468.727 36.6027 468.727 37.204C468.727 37.82 468.851 38.3627 469.101 38.832C469.365 39.2867 469.717 39.646 470.157 39.91C470.611 40.174 471.117 40.306 471.675 40.306C472.071 40.306 472.445 40.2327 472.797 40.086C473.163 39.9393 473.508 39.756 473.831 39.536L474.865 41.208C474.381 41.516 473.853 41.7653 473.281 41.956C472.723 42.132 472.173 42.22 471.631 42.22ZM480.922 32.782L481.142 35.422L481.032 35.07C481.281 34.5127 481.633 34.036 482.088 33.64C482.543 33.244 483.012 32.9433 483.496 32.738C483.995 32.518 484.413 32.408 484.75 32.408L484.64 34.652C483.936 34.608 483.32 34.74 482.792 35.048C482.279 35.356 481.875 35.7667 481.582 36.28C481.289 36.7933 481.142 37.3433 481.142 37.93V42H478.898V32.782H480.922ZM488.09 46.422L494.184 32.782H496.252L490.312 46.422H488.09ZM490.422 42.066L485.956 32.782H488.508L492.16 40.922L490.422 42.066Z" fill="#292E36"/>
<path d="M345.043 25.9563H351.295C351.528 25.9547 351.757 26.0286 351.951 26.1683C352.145 26.3079 352.295 26.5069 352.38 26.7389L354.435 32.2172" stroke="#E1B168" stroke-width="2" stroke-linecap="round" stroke-linejoin="round"/>
<path d="M321.565 35.3477H345.043" stroke="#E1B168" stroke-width="2" stroke-linecap="round" stroke-linejoin="round"/>
<path d="M347 45.5215C348.945 45.5215 350.522 43.9448 350.522 41.9998C350.522 40.0548 348.945 38.478 347 38.478C345.055 38.478 343.478 40.0548 343.478 41.9998C343.478 43.9448 345.055 45.5215 347 45.5215Z" stroke="#E1B168" stroke-width="2" stroke-linecap="round" stroke-linejoin="round"/>
<path d="M329 45.5215C330.945 45.5215 332.522 43.9448 332.522 41.9998C332.522 40.0548 330.945 38.478 329 38.478C327.055 38.478 325.479 40.0548 325.479 41.9998C325.479 43.9448 327.055 45.5215 329 45.5215Z" stroke="#E1B168" stroke-width="2" stroke-linecap="round" stroke-linejoin="round"/>
<path d="M343.479 41.6084H332.522" stroke="#E1B168" stroke-width="2" stroke-linecap="round" stroke-linejoin="round"/>
<path d="M325.087 41.6087H322.739C322.428 41.6087 322.129 41.4902 321.909 41.2792C321.689 41.0682 321.565 40.7821 321.565 40.4837V24.7336C321.565 24.4353 321.689 24.1491 321.909 23.9381C322.129 23.7272 322.428 23.6086 322.739 23.6086H345.043V38.6837" stroke="#E1B168" stroke-width="2" stroke-linecap="round" stroke-linejoin="round"/>
<path d="M345.043 32.217H354.435V40.5649C354.435 40.8417 354.311 41.1071 354.091 41.3028C353.871 41.4985 353.572 41.6084 353.261 41.6084H351.304" stroke="#E1B168" stroke-width="2" stroke-linecap="round" stroke-linejoin="round"/>
</svg>
