<svg width="269" height="68" viewBox="0 0 269 68" fill="none" xmlns="http://www.w3.org/2000/svg">
<rect x="1" y="1" width="267" height="66" stroke="#EAEAEA" stroke-width="2"/>
<path d="M65.244 24.028H74.814V26.294H67.598V31.09H73.912V33.334H67.598V40H65.244V24.028ZM79.3948 30.782L79.6148 33.422L79.5048 33.07C79.7541 32.5127 80.1061 32.036 80.5608 31.64C81.0155 31.244 81.4848 30.9433 81.9688 30.738C82.4675 30.518 82.8855 30.408 83.2228 30.408L83.1128 32.652C82.4088 32.608 81.7928 32.74 81.2648 33.048C80.7515 33.356 80.3481 33.7667 80.0548 34.28C79.7615 34.7933 79.6148 35.3433 79.6148 35.93V40H77.3708V30.782H79.3948ZM89.74 40.22C88.6693 40.22 87.7526 40.0147 86.99 39.604C86.2273 39.1787 85.6406 38.5993 85.23 37.866C84.8193 37.118 84.614 36.2673 84.614 35.314C84.614 34.4047 84.8413 33.5833 85.296 32.85C85.7653 32.102 86.3886 31.508 87.166 31.068C87.958 30.628 88.8306 30.408 89.784 30.408C91.016 30.408 92.0353 30.7673 92.842 31.486C93.6633 32.2047 94.2133 33.2093 94.492 34.5L86.99 37.096L86.462 35.776L92.468 33.62L92.006 33.906C91.83 33.4513 91.5513 33.0553 91.17 32.718C90.7886 32.366 90.268 32.19 89.608 32.19C89.08 32.19 88.6033 32.322 88.178 32.586C87.7673 32.8353 87.4373 33.1873 87.188 33.642C86.9533 34.082 86.836 34.6027 86.836 35.204C86.836 35.82 86.9606 36.3627 87.21 36.832C87.474 37.2867 87.826 37.646 88.266 37.91C88.7206 38.174 89.2266 38.306 89.784 38.306C90.18 38.306 90.554 38.2327 90.906 38.086C91.2726 37.9393 91.6173 37.756 91.94 37.536L92.974 39.208C92.49 39.516 91.962 39.7653 91.39 39.956C90.8326 40.132 90.2826 40.22 89.74 40.22ZM99.6915 40.198C99.0169 40.198 98.3642 40.0807 97.7335 39.846C97.1029 39.5967 96.5822 39.2373 96.1715 38.768L97.1395 37.492C97.5355 37.8587 97.9315 38.1373 98.3275 38.328C98.7382 38.504 99.1269 38.592 99.4935 38.592C99.7869 38.592 100.051 38.5627 100.286 38.504C100.52 38.4307 100.711 38.3133 100.858 38.152C101.004 37.9907 101.078 37.778 101.078 37.514C101.078 37.206 100.975 36.964 100.77 36.788C100.564 36.612 100.3 36.4653 99.9775 36.348C99.6549 36.2307 99.3102 36.1207 98.9435 36.018C98.1662 35.7687 97.5795 35.4167 97.1835 34.962C96.7875 34.4927 96.5895 33.9427 96.5895 33.312C96.5895 32.828 96.7069 32.3733 96.9415 31.948C97.1909 31.508 97.5649 31.1487 98.0635 30.87C98.5622 30.5913 99.1782 30.452 99.9115 30.452C100.586 30.452 101.18 30.5327 101.694 30.694C102.207 30.8407 102.684 31.0973 103.124 31.464L102.244 32.828C101.98 32.564 101.664 32.366 101.298 32.234C100.946 32.0873 100.623 32.0067 100.33 31.992C100.066 31.992 99.8235 32.036 99.6035 32.124C99.3835 32.1973 99.2075 32.3147 99.0755 32.476C98.9435 32.6227 98.8775 32.7987 98.8775 33.004C98.8629 33.2973 98.9582 33.5393 99.1635 33.73C99.3835 33.906 99.6622 34.0527 99.9995 34.17C100.337 34.2727 100.667 34.3827 100.99 34.5C101.444 34.632 101.848 34.8153 102.2 35.05C102.552 35.27 102.83 35.5413 103.036 35.864C103.241 36.1867 103.344 36.5973 103.344 37.096C103.344 37.6387 103.212 38.152 102.948 38.636C102.684 39.1053 102.28 39.4867 101.738 39.78C101.195 40.0587 100.513 40.198 99.6915 40.198ZM106.138 40V22.906H108.338V32.872L108.316 32.498C108.624 31.8967 109.094 31.398 109.724 31.002C110.355 30.606 111.11 30.408 111.99 30.408C112.856 30.408 113.567 30.6647 114.124 31.178C114.696 31.6913 114.99 32.3587 115.004 33.18V40H112.738V33.972C112.724 33.5027 112.584 33.1213 112.32 32.828C112.056 32.52 111.646 32.3587 111.088 32.344C110.59 32.344 110.135 32.498 109.724 32.806C109.314 33.0993 108.991 33.51 108.756 34.038C108.522 34.5513 108.404 35.138 108.404 35.798V40H106.138ZM125.98 24.028H135.55V26.294H128.334V31.09H134.648V33.334H128.334V40H125.98V24.028ZM136.542 35.292C136.542 34.368 136.762 33.5393 137.202 32.806C137.642 32.058 138.25 31.4713 139.028 31.046C139.805 30.6207 140.692 30.408 141.69 30.408C142.702 30.408 143.589 30.6207 144.352 31.046C145.114 31.4713 145.701 32.058 146.112 32.806C146.537 33.5393 146.75 34.368 146.75 35.292C146.75 36.216 146.537 37.052 146.112 37.8C145.701 38.548 145.114 39.142 144.352 39.582C143.589 40.0073 142.694 40.22 141.668 40.22C140.685 40.22 139.805 40.022 139.028 39.626C138.265 39.23 137.656 38.6653 137.202 37.932C136.762 37.184 136.542 36.304 136.542 35.292ZM138.83 35.314C138.83 35.886 138.954 36.4067 139.204 36.876C139.453 37.3307 139.79 37.6973 140.216 37.976C140.641 38.24 141.118 38.372 141.646 38.372C142.188 38.372 142.672 38.24 143.098 37.976C143.523 37.6973 143.853 37.3307 144.088 36.876C144.337 36.4067 144.462 35.886 144.462 35.314C144.462 34.742 144.337 34.2287 144.088 33.774C143.853 33.3193 143.523 32.9527 143.098 32.674C142.672 32.3953 142.188 32.256 141.646 32.256C141.103 32.256 140.619 32.3953 140.194 32.674C139.768 32.9527 139.431 33.3267 139.182 33.796C138.947 34.2507 138.83 34.7567 138.83 35.314ZM148.637 35.292C148.637 34.368 148.857 33.5393 149.297 32.806C149.737 32.058 150.346 31.4713 151.123 31.046C151.901 30.6207 152.788 30.408 153.785 30.408C154.797 30.408 155.685 30.6207 156.447 31.046C157.21 31.4713 157.797 32.058 158.207 32.806C158.633 33.5393 158.845 34.368 158.845 35.292C158.845 36.216 158.633 37.052 158.207 37.8C157.797 38.548 157.21 39.142 156.447 39.582C155.685 40.0073 154.79 40.22 153.763 40.22C152.781 40.22 151.901 40.022 151.123 39.626C150.361 39.23 149.752 38.6653 149.297 37.932C148.857 37.184 148.637 36.304 148.637 35.292ZM150.925 35.314C150.925 35.886 151.05 36.4067 151.299 36.876C151.549 37.3307 151.886 37.6973 152.311 37.976C152.737 38.24 153.213 38.372 153.741 38.372C154.284 38.372 154.768 38.24 155.193 37.976C155.619 37.6973 155.949 37.3307 156.183 36.876C156.433 36.4067 156.557 35.886 156.557 35.314C156.557 34.742 156.433 34.2287 156.183 33.774C155.949 33.3193 155.619 32.9527 155.193 32.674C154.768 32.3953 154.284 32.256 153.741 32.256C153.199 32.256 152.715 32.3953 152.289 32.674C151.864 32.9527 151.527 33.3267 151.277 33.796C151.043 34.2507 150.925 34.7567 150.925 35.314ZM165.287 40.22C164.422 40.22 163.644 40.022 162.955 39.626C162.266 39.2153 161.723 38.636 161.327 37.888C160.931 37.14 160.733 36.2673 160.733 35.27C160.733 34.2433 160.946 33.3707 161.371 32.652C161.796 31.9187 162.368 31.3613 163.087 30.98C163.82 30.584 164.642 30.386 165.551 30.386C166.255 30.386 166.922 30.5327 167.553 30.826C168.198 31.1047 168.697 31.5007 169.049 32.014L168.983 32.784V22.906H171.227V40H168.961V37.822L169.203 38.416C168.748 38.9293 168.191 39.362 167.531 39.714C166.871 40.0513 166.123 40.22 165.287 40.22ZM165.991 38.306C166.504 38.306 166.959 38.218 167.355 38.042C167.751 37.866 168.088 37.6167 168.367 37.294C168.646 36.9567 168.844 36.568 168.961 36.128V34.28C168.858 33.8693 168.66 33.51 168.367 33.202C168.088 32.8793 167.744 32.63 167.333 32.454C166.922 32.278 166.475 32.19 165.991 32.19C165.448 32.19 164.95 32.322 164.495 32.586C164.055 32.8353 163.696 33.1873 163.417 33.642C163.153 34.0967 163.021 34.6247 163.021 35.226C163.021 35.798 163.153 36.3187 163.417 36.788C163.696 37.2573 164.062 37.6313 164.517 37.91C164.972 38.174 165.463 38.306 165.991 38.306Z" fill="#292E36"/>
<path d="M24.1658 26.867C24.0186 26.6345 23.9667 26.3528 24.021 26.082C24.0754 25.8112 24.2317 25.5727 24.4568 25.4171C28.4057 22.5447 33.1418 21 38 21C42.8582 21 47.5943 22.5447 51.5432 25.4171C51.7683 25.5727 51.9246 25.8112 51.979 26.082C52.0333 26.3528 51.9814 26.6345 51.8342 26.867L38.8861 47.5014C38.7922 47.6539 38.6616 47.7798 38.5066 47.867C38.3516 47.9542 38.1772 48 38 48C37.8228 48 37.6484 47.9542 37.4934 47.867C37.3384 47.7798 37.2078 47.6539 37.1139 47.5014L24.1658 26.867Z" stroke="#E1B168" stroke-width="2" stroke-linecap="round" stroke-linejoin="round"/>
<path d="M27 30C30.1028 27.4134 33.9895 26 38 26C42.0105 26 45.8972 27.4134 49 30" stroke="#E1B168" stroke-width="2" stroke-linecap="round" stroke-linejoin="round"/>
<path d="M42.3447 40.2514C41.7388 40.1384 41.1728 39.8998 40.6918 39.5548C40.2108 39.2097 39.828 38.7677 39.574 38.264C39.3199 37.7602 39.2016 37.2086 39.2285 36.6531C39.2554 36.0976 39.4267 35.5534 39.7287 35.064C40.0308 34.5747 40.4554 34.1535 40.9685 33.8342C41.4817 33.5148 42.0693 33.3061 42.6846 33.2245C43.2999 33.143 43.9259 33.1909 44.5128 33.3646C45.0996 33.5382 45.6311 33.8326 46.0649 34.2245" stroke="#E1B168" stroke-width="2" stroke-linecap="round" stroke-linejoin="round"/>
<path d="M29 34.225C29.2402 33.6321 29.6432 33.1137 30.1658 32.7256C30.6884 32.3375 31.3108 32.0944 31.9658 32.0224C32.6209 31.9505 33.2839 32.0524 33.8834 32.3173C34.4829 32.5821 34.9962 32.9999 35.3682 33.5255C35.7401 34.0512 35.9565 34.6648 35.9941 35.3004C36.0317 35.936 35.8891 36.5695 35.5815 37.1326C35.274 37.6957 34.8133 38.1672 34.2489 38.4962C33.6845 38.8253 33.0379 38.9995 32.3786 39H32.1456" stroke="#E1B168" stroke-width="2" stroke-linecap="round" stroke-linejoin="round"/>
</svg>
