<svg width="15" height="15" viewBox="0 0 15 15" fill="none" xmlns="http://www.w3.org/2000/svg">
<path d="M12.9459 3.6041C12.6421 3.6041 12.3451 3.51734 12.0925 3.35479C11.8398 3.19224 11.6429 2.96121 11.5267 2.6909C11.4104 2.4206 11.38 2.12316 11.4393 1.83621C11.4985 1.54925 11.6448 1.28567 11.8597 1.07878C12.0745 0.8719 12.3482 0.731012 12.6462 0.673933C12.9442 0.616854 13.2531 0.646149 13.5338 0.758113C13.8145 0.870077 14.0544 1.05968 14.2232 1.30295C14.392 1.54622 14.4821 1.83223 14.4821 2.1248C14.4825 2.31918 14.4431 2.51173 14.3661 2.6914C14.289 2.87106 14.1759 3.0343 14.0331 3.17175C13.8904 3.3092 13.7209 3.41815 13.5343 3.49234C13.3477 3.56654 13.1478 3.60451 12.9459 3.6041ZM6.28929 4.58994C7.09954 4.58994 7.89159 4.82131 8.56529 5.25479C9.23898 5.68826 9.76406 6.30438 10.0741 7.02523C10.3842 7.74608 10.4653 8.53927 10.3073 9.30452C10.1492 10.0698 9.75902 10.7727 9.18608 11.3244C8.61315 11.8761 7.88319 12.2518 7.08851 12.4041C6.29383 12.5563 5.47013 12.4782 4.72156 12.1796C3.97298 11.881 3.33317 11.3753 2.88302 10.7266C2.43287 10.0779 2.1926 9.31514 2.1926 8.5349C2.19376 7.48897 2.62575 6.48621 3.39378 5.74663C4.1618 5.00705 5.20314 4.59106 6.28929 4.58994ZM6.28929 2.61772C5.07397 2.61772 3.88595 2.96476 2.87545 3.61495C1.86495 4.26513 1.07736 5.18927 0.612276 6.27049C0.147194 7.35172 0.025507 8.54146 0.262604 9.68928C0.4997 10.8371 1.08493 11.8914 1.94429 12.719C2.80365 13.5465 3.89854 14.1101 5.09051 14.3384C6.28247 14.5667 7.51798 14.4495 8.64078 14.0017C9.76359 13.5538 10.7233 12.7954 11.3985 11.8223C12.0737 10.8492 12.434 9.7052 12.434 8.5349C12.434 6.96557 11.7867 5.46051 10.6343 4.35082C9.48192 3.24114 7.91898 2.61772 6.28929 2.61772Z" fill="#292E36"/>
</svg>
