<svg width="566" height="68" viewBox="0 0 566 68" fill="none" xmlns="http://www.w3.org/2000/svg">
<rect x="1" y="1" width="267" height="66" stroke="#EAEAEA" stroke-width="2"/>
<path d="M70.914 37.712H76.282V40H67.812L70.914 37.712ZM59.254 32.036C59.254 30.936 59.4593 29.8947 59.87 28.912C60.2953 27.9293 60.882 27.0567 61.63 26.294C62.378 25.5313 63.2433 24.9373 64.226 24.512C65.2087 24.072 66.2647 23.852 67.394 23.852C68.5087 23.852 69.5573 24.072 70.54 24.512C71.5227 24.9373 72.3953 25.5313 73.158 26.294C73.9207 27.0567 74.5147 27.9293 74.94 28.912C75.3653 29.8947 75.578 30.936 75.578 32.036C75.578 33.1653 75.3653 34.2213 74.94 35.204C74.5147 36.1867 73.9207 37.052 73.158 37.8C72.41 38.548 71.5373 39.1347 70.54 39.56C69.5573 39.9707 68.5087 40.176 67.394 40.176C66.2647 40.176 65.2087 39.9707 64.226 39.56C63.2433 39.1493 62.378 38.5773 61.63 37.844C60.882 37.096 60.2953 36.2307 59.87 35.248C59.4593 34.2507 59.254 33.18 59.254 32.036ZM61.674 32.058C61.674 32.85 61.8207 33.6053 62.114 34.324C62.422 35.028 62.84 35.6513 63.368 36.194C63.896 36.722 64.5047 37.14 65.194 37.448C65.898 37.756 66.6533 37.91 67.46 37.91C68.252 37.91 68.9927 37.756 69.682 37.448C70.3713 37.14 70.9727 36.722 71.486 36.194C72.014 35.666 72.4247 35.05 72.718 34.346C73.0113 33.6273 73.158 32.8573 73.158 32.036C73.158 31.2293 73.004 30.474 72.696 29.77C72.4027 29.066 71.992 28.45 71.464 27.922C70.9507 27.3793 70.342 26.954 69.638 26.646C68.9487 26.338 68.208 26.184 67.416 26.184C66.5947 26.184 65.8393 26.338 65.15 26.646C64.4607 26.954 63.852 27.3793 63.324 27.922C62.796 28.4647 62.3853 29.088 62.092 29.792C61.8133 30.496 61.674 31.2513 61.674 32.058ZM82.2368 40.374C81.3861 40.374 80.6894 40.1173 80.1468 39.604C79.6041 39.0907 79.3181 38.4307 79.2888 37.624V30.782H81.5548V36.81C81.5841 37.2793 81.7161 37.668 81.9508 37.976C82.2001 38.2693 82.5961 38.4233 83.1388 38.438C83.6374 38.438 84.0774 38.2913 84.4588 37.998C84.8548 37.69 85.1628 37.2793 85.3828 36.766C85.6174 36.238 85.7348 35.6367 85.7348 34.962V30.782H88.0008V40H85.9548L85.7788 37.866L85.8668 38.218C85.6761 38.6287 85.4048 39.0027 85.0528 39.34C84.7008 39.6627 84.2828 39.912 83.7988 40.088C83.3148 40.2787 82.7941 40.374 82.2368 40.374ZM95.3204 40.22C94.4551 40.22 93.6704 40.044 92.9664 39.692C92.2624 39.3253 91.7051 38.7827 91.2944 38.064C90.8838 37.3453 90.6784 36.458 90.6784 35.402C90.6784 34.3607 90.8911 33.466 91.3164 32.718C91.7564 31.97 92.3284 31.398 93.0324 31.002C93.7511 30.5913 94.5284 30.386 95.3644 30.386C96.2444 30.386 96.9631 30.5767 97.5204 30.958C98.0924 31.3247 98.5398 31.7573 98.8624 32.256L98.7084 32.608L98.9284 30.782H101.018V40H98.7524V37.69L98.9944 38.24C98.9358 38.3573 98.8111 38.526 98.6204 38.746C98.4298 38.9513 98.1731 39.1713 97.8504 39.406C97.5424 39.6407 97.1758 39.8387 96.7504 40C96.3398 40.1467 95.8631 40.22 95.3204 40.22ZM95.9364 38.372C96.4204 38.372 96.8531 38.284 97.2344 38.108C97.6158 37.932 97.9384 37.6827 98.2024 37.36C98.4664 37.0373 98.6498 36.656 98.7524 36.216V34.302C98.6351 33.8913 98.4371 33.5393 98.1584 33.246C97.8798 32.938 97.5424 32.696 97.1464 32.52C96.7651 32.344 96.3398 32.256 95.8704 32.256C95.3424 32.256 94.8584 32.388 94.4184 32.652C93.9784 32.9013 93.6264 33.2533 93.3624 33.708C93.0984 34.1627 92.9664 34.6907 92.9664 35.292C92.9664 35.864 93.0984 36.3847 93.3624 36.854C93.6411 37.3233 94.0078 37.6973 94.4624 37.976C94.9171 38.24 95.4084 38.372 95.9364 38.372ZM104.49 22.906H106.756V40H104.49V22.906ZM111.085 26.734H113.351V30.804H115.815V32.586H113.351V40H111.085V32.586H109.457V30.804H111.085V26.734ZM119.031 44.422L125.125 30.782H127.193L121.253 44.422H119.031ZM121.363 40.066L116.897 30.782H119.449L123.101 38.922L121.363 40.066ZM136.814 40V23.5H136.836L145.328 35.534L144.316 35.314L152.764 23.5H152.808V40H150.476V28.802L150.63 30.012L144.734 38.35H144.69L138.684 30.012L139.08 28.912V40H136.814ZM160.633 40.22C159.768 40.22 158.983 40.044 158.279 39.692C157.575 39.3253 157.018 38.7827 156.607 38.064C156.196 37.3453 155.991 36.458 155.991 35.402C155.991 34.3607 156.204 33.466 156.629 32.718C157.069 31.97 157.641 31.398 158.345 31.002C159.064 30.5913 159.841 30.386 160.677 30.386C161.557 30.386 162.276 30.5767 162.833 30.958C163.405 31.3247 163.852 31.7573 164.175 32.256L164.021 32.608L164.241 30.782H166.331V40H164.065V37.69L164.307 38.24C164.248 38.3573 164.124 38.526 163.933 38.746C163.742 38.9513 163.486 39.1713 163.163 39.406C162.855 39.6407 162.488 39.8387 162.063 40C161.652 40.1467 161.176 40.22 160.633 40.22ZM161.249 38.372C161.733 38.372 162.166 38.284 162.547 38.108C162.928 37.932 163.251 37.6827 163.515 37.36C163.779 37.0373 163.962 36.656 164.065 36.216V34.302C163.948 33.8913 163.75 33.5393 163.471 33.246C163.192 32.938 162.855 32.696 162.459 32.52C162.078 32.344 161.652 32.256 161.183 32.256C160.655 32.256 160.171 32.388 159.731 32.652C159.291 32.9013 158.939 33.2533 158.675 33.708C158.411 34.1627 158.279 34.6907 158.279 35.292C158.279 35.864 158.411 36.3847 158.675 36.854C158.954 37.3233 159.32 37.6973 159.775 37.976C160.23 38.24 160.721 38.372 161.249 38.372ZM169.802 30.782H172.068V40H169.802V30.782ZM169.67 27.482C169.67 27.13 169.81 26.8367 170.088 26.602C170.367 26.3673 170.668 26.25 170.99 26.25C171.328 26.25 171.628 26.3673 171.892 26.602C172.156 26.8367 172.288 27.13 172.288 27.482C172.288 27.834 172.156 28.1273 171.892 28.362C171.628 28.582 171.328 28.692 170.99 28.692C170.668 28.692 170.367 28.582 170.088 28.362C169.81 28.1273 169.67 27.834 169.67 27.482ZM177.541 30.782L177.739 32.894L177.651 32.608C177.959 31.948 178.436 31.42 179.081 31.024C179.727 30.6133 180.489 30.408 181.369 30.408C182.235 30.408 182.946 30.6647 183.503 31.178C184.075 31.6913 184.369 32.3587 184.383 33.18V40H182.117V33.972C182.103 33.5027 181.963 33.1213 181.699 32.828C181.435 32.52 181.025 32.3587 180.467 32.344C179.969 32.344 179.514 32.498 179.103 32.806C178.693 33.0993 178.37 33.5027 178.135 34.016C177.901 34.5293 177.783 35.1233 177.783 35.798V40H175.517V30.782H177.541ZM188.729 26.734H190.995V30.804H193.459V32.586H190.995V40H188.729V32.586H187.101V30.804H188.729V26.734ZM199.756 40.22C198.891 40.22 198.106 40.044 197.402 39.692C196.698 39.3253 196.141 38.7827 195.73 38.064C195.319 37.3453 195.114 36.458 195.114 35.402C195.114 34.3607 195.327 33.466 195.752 32.718C196.192 31.97 196.764 31.398 197.468 31.002C198.187 30.5913 198.964 30.386 199.8 30.386C200.68 30.386 201.399 30.5767 201.956 30.958C202.528 31.3247 202.975 31.7573 203.298 32.256L203.144 32.608L203.364 30.782H205.454V40H203.188V37.69L203.43 38.24C203.371 38.3573 203.247 38.526 203.056 38.746C202.865 38.9513 202.609 39.1713 202.286 39.406C201.978 39.6407 201.611 39.8387 201.186 40C200.775 40.1467 200.299 40.22 199.756 40.22ZM200.372 38.372C200.856 38.372 201.289 38.284 201.67 38.108C202.051 37.932 202.374 37.6827 202.638 37.36C202.902 37.0373 203.085 36.656 203.188 36.216V34.302C203.071 33.8913 202.873 33.5393 202.594 33.246C202.315 32.938 201.978 32.696 201.582 32.52C201.201 32.344 200.775 32.256 200.306 32.256C199.778 32.256 199.294 32.388 198.854 32.652C198.414 32.9013 198.062 33.2533 197.798 33.708C197.534 34.1627 197.402 34.6907 197.402 35.292C197.402 35.864 197.534 36.3847 197.798 36.854C198.077 37.3233 198.443 37.6973 198.898 37.976C199.353 38.24 199.844 38.372 200.372 38.372ZM208.926 30.782H211.192V40H208.926V30.782ZM208.794 27.482C208.794 27.13 208.933 26.8367 209.212 26.602C209.49 26.3673 209.791 26.25 210.114 26.25C210.451 26.25 210.752 26.3673 211.016 26.602C211.28 26.8367 211.412 27.13 211.412 27.482C211.412 27.834 211.28 28.1273 211.016 28.362C210.752 28.582 210.451 28.692 210.114 28.692C209.791 28.692 209.49 28.582 209.212 28.362C208.933 28.1273 208.794 27.834 208.794 27.482ZM216.664 30.782L216.862 32.894L216.774 32.608C217.082 31.948 217.559 31.42 218.204 31.024C218.85 30.6133 219.612 30.408 220.492 30.408C221.358 30.408 222.069 30.6647 222.626 31.178C223.198 31.6913 223.492 32.3587 223.506 33.18V40H221.24V33.972C221.226 33.5027 221.086 33.1213 220.822 32.828C220.558 32.52 220.148 32.3587 219.59 32.344C219.092 32.344 218.637 32.498 218.226 32.806C217.816 33.0993 217.493 33.5027 217.258 34.016C217.024 34.5293 216.906 35.1233 216.906 35.798V40H214.64V30.782H216.664Z" fill="#292E36"/>
<path d="M40 30L30.6614 39L26 34.5" stroke="#E1B168" stroke-width="2" stroke-linecap="round" stroke-linejoin="round"/>
<path d="M33 48C40.732 48 47 41.732 47 34C47 26.268 40.732 20 33 20C25.268 20 19 26.268 19 34C19 41.732 25.268 48 33 48Z" stroke="#E1B168" stroke-width="2" stroke-linecap="round" stroke-linejoin="round"/>
<rect x="298" y="1" width="267" height="66" stroke="#EAEAEA" stroke-width="2"/>
<path d="M366.188 40C367.097 39.076 367.977 38.1813 368.828 37.316C369.679 36.4507 370.441 35.6073 371.116 34.786C371.805 33.9647 372.341 33.1727 372.722 32.41C373.118 31.6473 373.316 30.9067 373.316 30.188C373.316 29.748 373.243 29.3667 373.096 29.044C372.964 28.7067 372.773 28.4353 372.524 28.23C372.275 28.01 371.996 27.8487 371.688 27.746C371.38 27.6287 371.05 27.57 370.698 27.57C370.243 27.57 369.855 27.6433 369.532 27.79C369.209 27.9367 368.945 28.1273 368.74 28.362C368.549 28.582 368.403 28.824 368.3 29.088C368.197 29.352 368.146 29.616 368.146 29.88C368.146 30.364 368.219 30.7967 368.366 31.178C368.527 31.5593 368.74 31.8893 369.004 32.168L367.574 33.488C367.207 33.268 366.892 32.9527 366.628 32.542C366.379 32.1167 366.188 31.6693 366.056 31.2C365.924 30.7307 365.858 30.3127 365.858 29.946C365.858 29.1393 366.056 28.3913 366.452 27.702C366.863 26.998 367.457 26.426 368.234 25.986C369.026 25.546 369.979 25.326 371.094 25.326C372.033 25.326 372.847 25.5387 373.536 25.964C374.24 26.3893 374.783 26.9613 375.164 27.68C375.56 28.384 375.758 29.154 375.758 29.99C375.758 30.7087 375.619 31.4127 375.34 32.102C375.061 32.7913 374.687 33.4733 374.218 34.148C373.763 34.808 373.25 35.468 372.678 36.128C372.121 36.7733 371.563 37.426 371.006 38.086L369.95 37.734H376.176V40H366.188ZM377.295 36.568V36.546L386.227 25.326H386.249V34.764H388.097V36.568H386.249V40H383.895V36.568H377.295ZM384.027 30.584L380.727 34.874L380.397 34.764H383.895V30.232L384.027 30.584ZM397.515 23.566C396.488 26.382 395.454 29.1907 394.413 31.992C393.386 34.7933 392.352 37.602 391.311 40.418H389.265C390.306 37.602 391.34 34.7933 392.367 31.992C393.408 29.1907 394.442 26.382 395.469 23.566H397.515ZM407.78 25.502L402.06 40H399.42L404.502 27.438L405.294 27.746H398.232V25.502H407.78ZM425.898 27.086C425.341 26.7927 424.739 26.5433 424.094 26.338C423.449 26.1327 422.825 26.03 422.224 26.03C421.403 26.03 420.75 26.2207 420.266 26.602C419.782 26.9687 419.54 27.4747 419.54 28.12C419.54 28.5747 419.701 28.9707 420.024 29.308C420.347 29.6453 420.765 29.9387 421.278 30.188C421.791 30.4373 422.334 30.672 422.906 30.892C423.39 31.068 423.867 31.2807 424.336 31.53C424.82 31.7647 425.253 32.058 425.634 32.41C426.03 32.762 426.338 33.202 426.558 33.73C426.793 34.2433 426.91 34.874 426.91 35.622C426.91 36.4727 426.697 37.2427 426.272 37.932C425.861 38.6213 425.26 39.1713 424.468 39.582C423.691 39.978 422.745 40.176 421.63 40.176C420.955 40.176 420.295 40.1027 419.65 39.956C419.019 39.7947 418.418 39.5893 417.846 39.34C417.289 39.076 416.783 38.79 416.328 38.482L417.384 36.656C417.736 36.9053 418.139 37.1473 418.594 37.382C419.049 37.602 419.518 37.778 420.002 37.91C420.501 38.042 420.97 38.108 421.41 38.108C421.894 38.108 422.371 38.0273 422.84 37.866C423.309 37.69 423.698 37.426 424.006 37.074C424.314 36.7073 424.468 36.2307 424.468 35.644C424.468 35.1453 424.329 34.7273 424.05 34.39C423.786 34.038 423.427 33.7373 422.972 33.488C422.532 33.2387 422.055 33.0187 421.542 32.828C421.043 32.6373 420.537 32.4247 420.024 32.19C419.511 31.9553 419.034 31.6767 418.594 31.354C418.154 31.0167 417.795 30.606 417.516 30.122C417.252 29.6233 417.12 29.0147 417.12 28.296C417.12 27.4453 417.318 26.7047 417.714 26.074C418.125 25.4287 418.689 24.9227 419.408 24.556C420.127 24.1893 420.955 23.984 421.894 23.94C422.965 23.94 423.896 24.072 424.688 24.336C425.48 24.6 426.184 24.9153 426.8 25.282L425.898 27.086ZM434.215 40.22C433.144 40.22 432.227 40.0147 431.465 39.604C430.702 39.1787 430.115 38.5993 429.705 37.866C429.294 37.118 429.089 36.2673 429.089 35.314C429.089 34.4047 429.316 33.5833 429.771 32.85C430.24 32.102 430.863 31.508 431.641 31.068C432.433 30.628 433.305 30.408 434.259 30.408C435.491 30.408 436.51 30.7673 437.317 31.486C438.138 32.2047 438.688 33.2093 438.967 34.5L431.465 37.096L430.937 35.776L436.943 33.62L436.481 33.906C436.305 33.4513 436.026 33.0553 435.645 32.718C435.263 32.366 434.743 32.19 434.083 32.19C433.555 32.19 433.078 32.322 432.653 32.586C432.242 32.8353 431.912 33.1873 431.663 33.642C431.428 34.082 431.311 34.6027 431.311 35.204C431.311 35.82 431.435 36.3627 431.685 36.832C431.949 37.2867 432.301 37.646 432.741 37.91C433.195 38.174 433.701 38.306 434.259 38.306C434.655 38.306 435.029 38.2327 435.381 38.086C435.747 37.9393 436.092 37.756 436.415 37.536L437.449 39.208C436.965 39.516 436.437 39.7653 435.865 39.956C435.307 40.132 434.757 40.22 434.215 40.22ZM443.506 30.782L443.726 33.422L443.616 33.07C443.865 32.5127 444.217 32.036 444.672 31.64C445.127 31.244 445.596 30.9433 446.08 30.738C446.579 30.518 446.997 30.408 447.334 30.408L447.224 32.652C446.52 32.608 445.904 32.74 445.376 33.048C444.863 33.356 444.459 33.7667 444.166 34.28C443.873 34.7933 443.726 35.3433 443.726 35.93V40H441.482V30.782H443.506ZM453.754 40.242L448.54 30.782H451.224L454.612 37.91L453.226 37.844L456.306 30.782H458.836L453.842 40.242H453.754ZM460.947 30.782H463.213V40H460.947V30.782ZM460.815 27.482C460.815 27.13 460.954 26.8367 461.233 26.602C461.512 26.3673 461.812 26.25 462.135 26.25C462.472 26.25 462.773 26.3673 463.037 26.602C463.301 26.8367 463.433 27.13 463.433 27.482C463.433 27.834 463.301 28.1273 463.037 28.362C462.773 28.582 462.472 28.692 462.135 28.692C461.812 28.692 461.512 28.582 461.233 28.362C460.954 28.1273 460.815 27.834 460.815 27.482ZM474.208 39.142C473.797 39.4793 473.298 39.7433 472.712 39.934C472.14 40.1247 471.56 40.22 470.974 40.22C469.962 40.22 469.067 40.022 468.29 39.626C467.527 39.23 466.933 38.6727 466.508 37.954C466.082 37.2353 465.87 36.3773 465.87 35.38C465.87 34.3973 466.097 33.5467 466.552 32.828C467.006 32.0947 467.608 31.5373 468.356 31.156C469.104 30.76 469.896 30.562 470.732 30.562C471.494 30.562 472.169 30.6647 472.756 30.87C473.342 31.0753 473.848 31.3613 474.274 31.728L473.152 33.202C472.902 32.9967 472.587 32.8133 472.206 32.652C471.839 32.4907 471.414 32.41 470.93 32.41C470.416 32.41 469.947 32.542 469.522 32.806C469.096 33.0553 468.759 33.4073 468.51 33.862C468.26 34.302 468.136 34.808 468.136 35.38C468.136 35.9227 468.26 36.4287 468.51 36.898C468.774 37.3527 469.133 37.712 469.588 37.976C470.042 38.24 470.563 38.372 471.15 38.372C471.531 38.372 471.883 38.3207 472.206 38.218C472.528 38.1007 472.814 37.9393 473.064 37.734L474.208 39.142ZM481.136 40.22C480.066 40.22 479.149 40.0147 478.386 39.604C477.624 39.1787 477.037 38.5993 476.626 37.866C476.216 37.118 476.01 36.2673 476.01 35.314C476.01 34.4047 476.238 33.5833 476.692 32.85C477.162 32.102 477.785 31.508 478.562 31.068C479.354 30.628 480.227 30.408 481.18 30.408C482.412 30.408 483.432 30.7673 484.238 31.486C485.06 32.2047 485.61 33.2093 485.888 34.5L478.386 37.096L477.858 35.776L483.864 33.62L483.402 33.906C483.226 33.4513 482.948 33.0553 482.566 32.718C482.185 32.366 481.664 32.19 481.004 32.19C480.476 32.19 480 32.322 479.574 32.586C479.164 32.8353 478.834 33.1873 478.584 33.642C478.35 34.082 478.232 34.6027 478.232 35.204C478.232 35.82 478.357 36.3627 478.606 36.832C478.87 37.2867 479.222 37.646 479.662 37.91C480.117 38.174 480.623 38.306 481.18 38.306C481.576 38.306 481.95 38.2327 482.302 38.086C482.669 37.9393 483.014 37.756 483.336 37.536L484.37 39.208C483.886 39.516 483.358 39.7653 482.786 39.956C482.229 40.132 481.679 40.22 481.136 40.22Z" fill="#292E36"/>
<path d="M336 27V34" stroke="#E1B168" stroke-width="2" stroke-linecap="round" stroke-linejoin="round"/>
<path d="M344 38L336 34" stroke="#E1B168" stroke-width="2" stroke-linecap="round" stroke-linejoin="round"/>
<path d="M345 30H352V24" stroke="#E1B168" stroke-width="2" stroke-linecap="round" stroke-linejoin="round"/>
<path d="M346.464 43.8955C344.461 45.8545 341.908 47.189 339.128 47.7302C336.348 48.2713 333.467 47.9947 330.848 46.9354C328.229 45.8761 325.99 44.0817 324.416 41.7792C322.841 39.4766 322 36.7694 322 34C322 31.2306 322.841 28.5234 324.416 26.2208C325.99 23.9183 328.229 22.1239 330.848 21.0646C333.467 20.0053 336.348 19.7287 339.128 20.2698C341.908 20.811 344.461 22.1455 346.464 24.1046L352 29.4977" stroke="#E1B168" stroke-width="2" stroke-linecap="round" stroke-linejoin="round"/>
</svg>
