<svg width="161" height="26" viewBox="0 0 161 26" fill="none" xmlns="http://www.w3.org/2000/svg">
<path d="M17.41 2.67241C18.7669 2.67631 20.0671 3.19711 21.0266 4.12107C21.9861 5.04503 22.5269 6.29707 22.531 7.60374V17.4653C22.5269 18.772 21.9861 20.0241 21.0266 20.948C20.0671 21.872 18.7669 22.3928 17.41 22.3967H7.16907C5.81214 22.3928 4.51195 21.872 3.55245 20.948C2.59295 20.0241 2.05212 18.772 2.04807 17.4653V7.60374C2.05212 6.29707 2.59295 5.04503 3.55245 4.12107C4.51195 3.19711 5.81214 2.67631 7.16907 2.67241H17.41ZM17.41 0.700195H7.16907C3.226 0.700195 0 3.80671 0 7.60374V17.4653C0 21.2624 3.226 24.3689 7.16907 24.3689H17.41C21.353 24.3689 24.579 21.2624 24.579 17.4653V7.60374C24.579 3.80671 21.353 0.700195 17.41 0.700195Z" fill="#292E36"/>
<path d="M18.9459 7.6041C18.6421 7.6041 18.3451 7.51734 18.0925 7.35479C17.8398 7.19224 17.6429 6.96121 17.5267 6.6909C17.4104 6.4206 17.38 6.12316 17.4393 5.83621C17.4985 5.54925 17.6448 5.28567 17.8597 5.07878C18.0745 4.8719 18.3482 4.73101 18.6462 4.67393C18.9442 4.61685 19.2531 4.64615 19.5338 4.75811C19.8145 4.87008 20.0544 5.05968 20.2232 5.30295C20.392 5.54622 20.4821 5.83223 20.4821 6.1248C20.4825 6.31918 20.4431 6.51173 20.3661 6.6914C20.289 6.87106 20.1759 7.0343 20.0331 7.17175C19.8904 7.3092 19.7209 7.41815 19.5343 7.49234C19.3477 7.56654 19.1478 7.60451 18.9459 7.6041ZM12.2893 8.58994C13.0995 8.58994 13.8916 8.82131 14.5653 9.25479C15.239 9.68826 15.7641 10.3044 16.0741 11.0252C16.3842 11.7461 16.4653 12.5393 16.3073 13.3045C16.1492 14.0698 15.759 14.7727 15.1861 15.3244C14.6132 15.8761 13.8832 16.2518 13.0885 16.4041C12.2938 16.5563 11.4701 16.4782 10.7216 16.1796C9.97298 15.881 9.33317 15.3753 8.88302 14.7266C8.43287 14.0779 8.1926 13.3151 8.1926 12.5349C8.19376 11.489 8.62575 10.4862 9.39378 9.74663C10.1618 9.00705 11.2031 8.59106 12.2893 8.58994ZM12.2893 6.61772C11.074 6.61772 9.88595 6.96476 8.87545 7.61495C7.86495 8.26513 7.07736 9.18927 6.61228 10.2705C6.14719 11.3517 6.02551 12.5415 6.2626 13.6893C6.4997 14.8371 7.08493 15.8914 7.94429 16.719C8.80365 17.5465 9.89854 18.1101 11.0905 18.3384C12.2825 18.5667 13.518 18.4495 14.6408 18.0017C15.7636 17.5538 16.7233 16.7954 17.3985 15.8223C18.0737 14.8492 18.434 13.7052 18.434 12.5349C18.434 10.9656 17.7867 9.46051 16.6343 8.35082C15.4819 7.24114 13.919 6.61772 12.2893 6.61772Z" fill="#292E36"/>
<path fill-rule="evenodd" clip-rule="evenodd" d="M69.1581 12.6053C69.1581 6.07004 63.6553 0.770996 56.8686 0.770996C50.082 0.770996 44.5791 6.07004 44.5791 12.6053C44.5791 18.5119 49.0725 23.4079 54.9484 24.2965V16.0273H51.8272V12.6053H54.9484V9.99809C54.9484 7.03263 56.7836 5.39326 59.5904 5.39326C60.9351 5.39326 62.3418 5.62466 62.3418 5.62466V8.53729H60.7914C59.2656 8.53729 58.7883 9.44916 58.7883 10.3864V12.6053H62.1964L61.6522 16.0273H58.7889V24.2976C64.6648 23.4095 69.1581 18.5135 69.1581 12.6053Z" fill="#292E36"/>
<path d="M115.493 4.4968C114.505 4.92603 113.46 5.20882 112.39 5.33622C113.514 4.67806 114.36 3.63246 114.768 2.39552C113.705 3.0169 112.544 3.45289 111.335 3.68482C110.826 3.15128 110.214 2.72684 109.536 2.43729C108.857 2.14774 108.127 1.99913 107.39 2.0005C104.404 2.0005 101.988 4.38159 101.988 7.31681C101.986 7.72509 102.033 8.13215 102.127 8.5293C99.9865 8.42893 97.8901 7.88277 95.9723 6.92577C94.0545 5.96876 92.3576 4.62198 90.9901 2.97159C90.5104 3.78035 90.2567 4.70312 90.2555 5.64346C90.2555 7.48689 91.2172 9.11634 92.6695 10.071C91.8091 10.0506 90.9663 9.82283 90.2127 9.40712V9.47296C90.2127 12.0516 92.0781 14.1967 94.5469 14.685C94.0827 14.8088 93.6042 14.8715 93.1238 14.8716C92.7828 14.8722 92.4427 14.8391 92.1082 14.7728C92.7946 16.8851 94.7922 18.4213 97.1585 18.4652C95.2357 19.947 92.875 20.7479 90.4475 20.742C90.0166 20.7414 89.5861 20.7157 89.1582 20.6652C91.6277 22.2421 94.4984 23.0762 97.4284 23.0682C107.379 23.0682 112.814 14.9648 112.814 7.93677C112.814 7.70634 112.808 7.47591 112.797 7.25097C113.852 6.50047 114.765 5.56781 115.493 4.4968Z" fill="#292E36"/>
<path d="M147.981 0.0498047C141.085 0.0498047 135.493 5.63875 135.493 12.5316C135.493 17.6413 138.57 22.0323 142.969 23.9658C142.935 23.0966 142.963 22.049 143.186 21.1017C143.426 20.0875 144.792 14.298 144.792 14.298C144.792 14.298 144.39 13.5012 144.39 12.3254C144.39 10.4754 145.461 9.09354 146.799 9.09354C147.936 9.09354 148.482 9.94609 148.482 10.9658C148.482 12.1081 147.752 13.8132 147.378 15.3957C147.066 16.7219 148.042 17.7974 149.352 17.7974C151.716 17.7974 153.31 14.7605 153.31 11.1608C153.31 8.42487 151.465 6.37986 148.114 6.37986C144.329 6.37986 141.965 9.20498 141.965 12.3589C141.965 13.4454 142.289 14.2144 142.79 14.8051C143.019 15.0781 143.052 15.1896 142.969 15.5016C142.908 15.7301 142.774 16.2817 142.712 16.5046C142.629 16.8222 142.372 16.9337 142.088 16.8166C140.343 16.1034 139.529 14.1977 139.529 12.0468C139.529 8.50288 142.523 4.25127 148.454 4.25127C153.221 4.25127 156.359 7.70048 156.359 11.4004C156.359 16.2984 153.633 19.9538 149.62 19.9538C148.27 19.9538 147.005 19.2239 146.57 18.3992C146.57 18.3992 145.845 21.2744 145.689 21.8317C145.427 22.7957 144.909 23.7541 144.435 24.5063C145.584 24.8453 146.777 25.0179 147.975 25.019C154.871 25.019 160.462 19.43 160.462 12.5372C160.462 5.64433 154.876 0.0498047 147.981 0.0498047Z" fill="#292E36"/>
</svg>
