<svg width="94" height="94" viewBox="0 0 94 94" fill="none" xmlns="http://www.w3.org/2000/svg">
<path opacity="0.87" d="M93 47C93 21.6042 72.3958 1 47 1C21.6042 1 1 21.6042 1 47C1 72.3958 21.6042 93 47 93C72.3958 93 93 72.3958 93 47Z" stroke="white" stroke-width="2" stroke-miterlimit="10"/>
<path d="M46.0327 58.5077L56.3332 48.6377C56.5419 48.4378 56.7098 48.1874 56.825 47.9044C56.9403 47.6214 57 47.3126 57 47C57 46.6874 56.9403 46.3786 56.825 46.0956C56.7098 45.8126 56.5419 45.5622 56.3332 45.3623L46.0327 35.4923C45.7626 35.2337 45.4341 35.0689 45.0856 35.0174C44.7371 34.9658 44.3831 35.0296 44.065 35.2013C43.7469 35.3729 43.4778 35.6453 43.2892 35.9867C43.1006 36.328 43.0003 36.7241 43 37.1287V56.8713C43.0003 57.2759 43.1006 57.672 43.2892 58.0133C43.4778 58.3547 43.7469 58.6271 44.065 58.7987C44.3831 58.9704 44.7371 59.0342 45.0856 58.9826C45.4341 58.9311 45.7626 58.7663 46.0327 58.5077Z" fill="white"/>
</svg>
